<svg width="168" height="226" viewBox="0 0 168 226" fill="none" xmlns="http://www.w3.org/2000/svg">
<path d="M81.6831 24.2144C82.939 24.1071 84.4222 24.1505 85.6957 24.1596C94.9228 24.1144 104.016 27.1388 112.163 32.9637C112.926 33.5214 113.671 34.572 114.422 35.1351C115.427 35.8907 116.662 36.4028 117.623 37.2459C119.513 38.9053 121.359 40.489 122.866 42.778C123.491 43.7281 124.273 44.5873 124.939 45.4922C124.393 45.612 123.792 45.6853 123.238 45.7669C122.356 44.716 121.775 43.3987 120.756 42.3073C116.345 37.5825 111.232 34.1187 106.144 30.9254C104.763 30.0589 102.901 29.4479 101.436 28.7801C100.664 28.4853 99.8569 27.9734 99.0759 27.7388C98.0503 27.4305 96.9806 27.4199 95.9419 27.1329C94.409 26.7099 92.8872 26.1012 91.3278 25.9166C89.5296 25.6819 87.8506 25.8973 86.069 25.9047C85.0635 25.8845 83.9605 25.585 82.963 25.6707C78.8344 26.0256 74.6885 26.6336 70.6621 27.9505C69.5213 28.3442 68.4814 29.0266 67.386 29.574C65.4029 30.565 63.3648 31.4863 61.4873 32.811C60.5261 33.4892 59.5838 34.1683 58.6298 34.8433C56.7023 36.2071 55.0389 38.0961 53.2614 39.7789C51.8435 41.1213 50.3045 42.197 48.98 43.7044C47.7446 45.0985 46.8402 46.7746 45.7278 48.3534C44.0122 50.7883 42.4368 53.5473 40.8518 56.1444C40.2271 57.1681 39.5403 58.0818 38.9839 59.1515C38.1271 60.7985 37.453 62.5727 36.7223 64.3191C36.3577 65.1994 35.8812 65.9946 35.54 66.8952C34.7589 69.4907 33.6115 71.7955 32.7501 74.3318C30.9722 79.5659 29.9045 85.0361 28.8081 90.5901C27.7516 95.9422 26.9552 101.633 26.6143 107.166C26.3824 110.94 26.3476 114.73 26.5103 118.51C26.6153 120.715 26.8471 122.77 26.7509 125.064C26.8785 126.204 27.1006 127.378 27.2504 128.509C27.5704 130.926 27.7725 134.766 28.358 137.049C29.1658 140.197 29.4585 143.307 30.2677 146.329C30.9252 148.786 31.893 151.327 32.5088 153.849C33.0044 156.492 34.0486 158.406 35.0278 160.732C36.4673 164.15 38.2829 167.403 40.0003 170.595C41.2087 172.84 43.0708 175.218 44.4225 177.364C44.3131 175.847 44.103 174.29 44.0471 172.767C43.9695 170.163 44.0859 167.555 44.3945 164.982C44.6044 163.16 44.8201 160.924 45.2945 159.218C47.4283 151.49 51.3637 144.784 53.6744 137.17C54.5741 134.206 55.2232 129.792 55.4908 126.588C55.7748 123.185 55.4941 119.861 55.6641 116.482C55.8529 112.733 55.8112 108.828 56.2963 105.144C57.3668 97.469 59.2731 90.0803 62.5445 83.5763C63.4643 81.7475 64.8433 80.0407 65.1854 77.7804C65.7196 73.6676 62.2271 72.8836 60.0049 73.6142C59.5379 73.763 58.0508 74.2897 57.686 74.2127C57.5769 74.0804 57.5328 74.0776 57.5078 73.8708C57.3774 72.7886 59.3184 64.4964 59.7966 62.9363C60.1231 61.882 60.5293 60.8757 61.0088 59.9333C62.8694 56.3209 70.5599 58.5637 71.0265 57.6378L70.96 57.4626C70.6574 57.2011 70.1682 57.1493 69.8001 57.0637C67.386 56.5025 63.5411 56.0307 61.4637 58.0744C58.9502 60.5471 57.104 66.7837 56.8009 70.8635C56.6068 73.4774 56.6655 76.3031 56.3254 78.8382C55.9649 81.238 55.2785 83.7972 53.7415 85.2432C52.4644 86.4447 49.6163 86.7287 48.3662 85.3577C46.5452 83.3608 44.7095 81.1523 42.8007 79.2512C42.5006 78.9523 41.7125 77.5778 42.0023 76.8451C42.8147 75.6461 44.8451 74.6802 45.8584 73.8971C48.644 71.7443 52.0662 68.9528 53.4294 64.8786C54.254 61.3621 53.6516 58.9467 56.9044 56.8631C58.4401 55.8793 59.6379 55.8467 61.2214 55.3066C65.0348 54.0059 67.0937 53.5682 70.8765 55.3564C79.3264 49.6791 88.7032 45.9862 98.2162 46.4261C100.84 46.5474 101.112 44.4538 103.337 48.5437C104.474 49.2177 109.572 50.1814 111.035 50.1456C111.776 50.1274 113.93 49.7162 114.789 49.5577C116.578 49.2425 118.365 48.9144 120.151 48.5736C122.201 48.174 124.282 47.719 126.329 47.3452C127.867 47.0644 129.303 46.9131 130.866 46.5773C134.441 45.8088 138.001 44.6699 141.587 44.084C142.826 43.8815 145.101 43.0561 146.228 43.5537C146.841 43.8187 147.348 44.4037 147.636 45.177C148.223 46.7619 147.698 49.8441 147.295 51.5033C146.83 53.4188 145.974 54.0173 145.313 55.2793C143.688 58.3864 143.358 59.6853 140.694 61.3506C140.584 61.6255 140.452 61.9959 140.359 62.2787C139.564 64.6979 136.75 67.4796 134.82 67.8286C133.617 68.039 132.355 67.8519 131.189 68.3763C128.422 69.6209 125.667 70.933 122.903 72.1987C120.479 73.1786 110.659 77.3927 109.413 79.6508C108.721 80.9053 111.283 82.5689 111.303 84.1011C111.307 84.4135 111.238 84.6539 111.081 84.8802C110.06 86.34 107.62 85.5767 106.397 84.9619C105.614 84.5683 104.711 83.6991 103.868 83.7439C103.124 84.2372 102.261 85.18 101.558 85.8152C96.8334 90.0755 92.644 97.378 91.343 104.904C89.3678 116.33 87.918 129.662 94.7081 138.873C96.4744 141.27 98.4684 142.942 100.473 144.894C102.322 146.734 104.125 148.658 105.877 150.665C108.581 153.819 111.546 158.087 113.961 161.663C115.829 164.428 117.399 168.14 119.025 171.205C120.483 173.953 121.875 176.788 122.938 179.858C125.824 177.298 127.017 174.239 128.965 170.629C129.474 169.687 130.509 168.555 131.028 167.547C131.383 166.907 131.605 165.849 131.939 165.222C132.993 163.242 133.903 161.29 134.673 159.079C135.054 157.985 135.642 156.878 136.023 155.767C136.541 154.253 136.825 152.57 137.343 151.05C137.663 150.101 138.546 148.552 138.728 147.734C139.485 144.35 140.171 140.792 140.741 137.348C141.474 132.932 142.044 128.469 142.447 123.977C142.582 122.517 142.857 120.274 142.864 118.844C142.876 116.042 142.819 113.107 142.758 110.299C142.736 109.325 142.553 108.08 142.512 107.065C142.474 106.124 142.55 105.135 142.508 104.23C142.503 103.543 142.071 102.202 142.082 101.582C142.142 98.2831 141.657 95.5333 140.981 92.383C140.761 91.3534 140.801 89.9253 140.572 88.7966C140.099 86.4595 139.348 84.2542 138.722 81.9864C138.495 81.1375 138.497 79.5757 138.243 78.6115C137.719 76.6294 136.872 74.8584 136.211 72.9679C135.897 72.0698 135.901 71.3277 135.54 70.3135L137.021 69.777C137.745 72.6261 138.875 75.2326 139.701 78.0177C140.081 79.3019 140.127 80.7165 140.451 82.022C140.849 83.6262 141.434 85.1407 141.811 86.7595C142.131 88.1358 142.237 89.5814 142.551 90.9513C142.836 92.1952 143.266 93.3291 143.459 94.618C143.729 96.4227 143.662 98.2078 143.776 100.025C143.839 101.045 144.013 102.05 144.073 103.072C144.139 104.171 144.078 105.3 144.184 106.391C144.239 106.963 144.391 107.515 144.449 108.089C144.604 109.615 144.313 111.303 144.362 112.859C144.423 114.857 144.369 116.802 144.378 118.793C144.383 120.163 144.497 121.529 144.395 122.898C144.229 125.13 143.795 127.285 143.573 129.5C143.307 132.167 143.153 134.89 142.685 137.512C142.44 138.879 142.035 140.181 141.75 141.532C141.567 142.401 141.577 143.3 141.354 144.169C140.84 146.184 140.287 148.334 139.62 150.262C139.192 151.498 138.66 152.667 138.249 153.914C137.741 155.457 137.413 157.098 136.886 158.63C136.147 160.781 135.138 162.77 134.193 164.762C133.568 166.077 132.975 167.443 132.299 168.709C131.318 170.546 130.203 172.216 129.127 173.95C128.055 175.681 127.026 177.457 125.878 179.1C124.787 180.664 123.473 182.042 122.505 183.73C121.747 185.05 120.847 185.314 119.989 186.327C119.417 187.002 119.02 187.941 118.427 188.58C117.672 189.392 116.706 189.733 115.89 190.413C114.336 191.708 112.795 193.203 111.168 194.328C106.267 197.719 100.367 200.205 94.9622 201.717C94.0406 201.975 93.1096 202.299 92.1773 202.461C90.8789 202.687 89.5949 202.537 88.2946 202.592C87.1107 202.644 85.9912 202.953 84.7955 202.818C83.8055 202.706 82.848 202.259 81.8549 202.151C80.3286 201.986 78.7865 202.382 77.2544 202.134C74.0567 201.618 70.9728 200.44 67.899 199.189C66.8 198.741 65.6805 198.374 64.6001 197.846C63.4286 197.273 62.2984 196.543 61.1464 195.903C59.596 195.041 58.1022 194.28 56.6317 193.166C54.932 191.877 53.4388 190.19 51.8238 188.73C50.8526 187.851 49.7848 187.153 48.8601 186.184C47.9959 185.28 47.2624 184.171 46.433 183.212C45.8029 182.485 45.0297 181.846 44.4663 181.036C43.9502 180.294 43.6299 179.319 43.1074 178.572C42.2483 177.343 41.1984 176.367 40.3541 175.111C39.0854 173.223 37.9797 170.912 36.9178 168.807C36.4675 167.914 35.8727 167.165 35.4418 166.273C33.6595 162.581 31.8894 157.551 30.6959 153.442C30.364 152.3 30.1638 151.094 29.8221 149.959C29.367 148.448 28.8361 146.976 28.4141 145.447C28.0395 144.089 27.7711 142.677 27.4296 141.304C27.1222 140.067 26.749 138.823 26.545 137.547C26.188 135.313 26.0255 133.237 25.8134 130.991C25.6809 129.589 25.4489 128.219 25.3546 126.805C25.264 125.446 25.3335 124.085 25.28 122.726C25.2347 121.574 25.0524 120.423 24.9536 119.276C24.7716 117.165 24.8625 114.965 24.8897 112.842C24.9192 110.543 24.8039 108.152 24.9463 105.87C25.1514 102.58 25.7226 99.3582 26.151 96.1197C26.2881 95.0845 26.2426 94.0251 26.4243 92.9927C26.805 90.8291 27.4597 88.6969 27.8935 86.533C28.4157 83.9284 28.8336 81.0988 29.5833 78.6005C29.9039 77.5319 30.3884 76.5751 30.7366 75.526C31.1656 74.2334 31.5253 72.8996 31.9846 71.6246C33.3726 67.7708 35.0166 64.1125 36.7367 60.5152C37.1898 59.5676 37.6032 58.568 38.0883 57.6503C38.5182 56.8368 39.0555 56.1198 39.5195 55.3406C40.0881 54.3851 40.605 53.3746 41.1721 52.417C41.9739 51.0632 43.019 50.0206 43.8992 48.7645C45.0946 47.0587 46.0605 44.9881 47.3435 43.4153C48.4046 42.1144 49.7901 41.095 50.9579 39.9542C54.3331 36.6565 57.686 33.1397 61.5475 30.8998C62.8976 30.1168 64.3137 29.6453 65.6856 28.9564C66.3778 28.6089 67.0226 28.0815 67.6995 27.6826C68.5922 27.1564 69.5986 26.8168 70.542 26.4877C71.8687 26.025 73.2042 25.7517 74.5491 25.4155C75.4098 25.2005 76.2756 24.902 77.1434 24.757C77.9247 24.6266 78.7169 24.7157 79.5009 24.6393C80.2325 24.5679 80.9531 24.3303 81.6831 24.2144Z" fill="#1F2A22"/>
<path d="M94.5497 47.8786C96.5194 47.5032 97.6247 47.1939 99.5222 48.3442C99.8906 48.5671 101.159 49.3684 101.528 49.4896C104.618 50.5038 107.943 51.7473 111.122 51.8807C111.587 51.9002 112.956 51.5818 113.465 51.4848C114.85 51.2186 116.238 50.965 117.626 50.724C124.296 49.6508 130.94 48.3206 137.551 46.7353C138.316 46.5522 144.79 44.7927 145.208 45.001C145.813 45.3037 146.066 46.1054 146.341 46.8248C145.569 46.9122 144.782 46.6939 144.212 47.5722C143.955 48.7433 144.919 49.0191 145.243 49.9679L145.169 50.121C144.221 50.4346 142.426 49.6948 142.424 48.0961C142.422 47.0717 142.773 46.7028 143.26 46.044C142.322 46.1877 141.33 46.4892 140.393 46.7126C138.566 47.1484 137.068 47.1232 135.415 48.3887C135.724 48.6262 135.86 48.5331 135.915 49.007L135.85 49.219C138.119 50.0408 137.752 50.7463 139.425 52.2425C140.58 53.2752 142.134 53.9112 143.405 55.149C142.973 55.9094 142.236 57.2864 141.762 57.9221C141.008 58.0221 141.482 58.179 141.019 58.6267C140.548 59.0814 141.206 57.5102 141.232 57.4031C140.73 57.8905 140.385 58.5526 139.857 58.951C139.692 58.8001 139.773 58.885 139.618 58.6937C138.999 58.886 138.299 59.4367 137.615 59.7071C137.503 59.9028 137.515 59.8303 137.476 60.0493L137.422 60.4744L137.358 60.5062C134.459 61.9134 130.915 61.1881 128.207 63.7419L128.209 63.9419C128.777 64.4742 130.825 63.9596 131.543 63.7871C132.597 63.5266 133.649 63.2413 134.696 62.9312C135.151 62.7958 136.434 62.2533 136.765 62.5459C136.756 63.8755 134.21 65.5461 133.304 65.846C133.108 65.9395 133.039 65.9629 132.839 66.026C132.669 66.0722 132.787 65.7739 132.772 65.4957C132.638 65.5669 131.913 65.9544 131.827 65.9375C130.686 65.7149 129.663 66.2318 128.567 66.2444C128.312 66.2473 128.118 66.5102 127.942 66.6947C127.71 66.7062 127.686 66.7065 127.45 66.6672C126.817 66.6901 125.339 68.3383 124.722 68.7913C124.334 69.0755 123.99 69.3182 123.577 69.5774L123.864 69.6204C123.641 70.0591 121.688 71.1441 121.184 71.4772C120.84 71.3826 121.316 71.4226 120.924 71.1158C120.103 71.6389 119.286 72.0898 118.448 72.5595C118.182 72.8058 118.246 72.4557 117.94 72.1834C113.815 74.3228 109.675 76.4117 105.522 78.45C101.258 80.5509 96.7275 82.5065 93.0581 86.3903C92.0609 87.4456 91.5754 88.1586 90.4475 89.1496L90.5151 89.2734C90.5721 89.3701 90.6059 89.4551 90.6175 89.5789C90.5197 89.8753 89.8848 90.6665 89.68 90.7525C89.2548 91.2805 88.8377 91.8202 88.4291 92.3714C89.8886 91.4466 91.7615 89.3679 93.2326 88.0966C93.3527 88.3906 93.3072 88.525 93.5373 88.4213C94.6022 87.985 96.8222 85.8998 97.9144 85.0647C99.6572 83.7326 100.77 83.0933 102.662 82.2201L102.599 82.2952C100.987 84.183 98.8313 85.84 97.2113 87.8199C96.5156 88.6695 95.6513 89.4215 95.0269 90.4062C93.3041 93.2241 91.6923 96.2674 90.2015 99.3155C88.9318 101.912 87.4169 104.244 86.2789 106.945C86.0399 107.486 85.7804 107.992 85.5113 108.507L85.5583 108.656C85.8227 108.508 86.1912 107.943 86.3529 108.096C86.3569 108.287 86.1897 108.479 86.0955 108.607C85.3784 110.238 84.6276 111.512 83.8715 112.954C83.4524 113.755 82.3825 116.521 82.1203 117.4C83.5372 116.042 83.8736 114.899 84.9151 113.106C85.2235 112.575 86.155 111.467 86.3528 110.977C86.7176 110.073 87.1895 108.143 87.7018 107.416L87.8104 107.451C87.9637 108.079 87.562 111.33 87.472 112.277C87.2197 114.751 87.0409 117.237 86.936 119.73C86.9005 120.602 86.866 126.209 86.7409 126.785C86.5722 126.906 86.5082 126.897 86.4063 127.108C86.4694 127.465 86.4407 127.551 86.6359 127.798C86.6307 127.793 86.8131 127.934 86.8067 127.977C86.708 128.641 86.963 130.864 86.6247 131.202C86.3141 131.284 86.426 131.411 86.3531 131.853C85.5767 132.361 86.0749 132.765 86.0582 133.712C86.0501 134.17 85.8612 133.959 85.8158 134.504L85.7936 134.63C85.7668 134.805 85.6967 134.842 85.5799 134.918C85.3831 135.641 85.4831 137.226 85.5182 138.017L85.5689 138.197C85.6553 138.602 85.6141 138.627 85.8928 138.733C86.2907 138.544 86.1647 139.589 86.1705 139.585C85.7211 140 86.0971 141.56 85.9522 142.243C85.8759 142.602 85.9292 144.895 85.8424 145.052C85.8007 145.004 85.7589 144.957 85.7171 144.909C85.6852 144.636 85.641 144.657 85.4632 144.532C85.3857 145.121 85.4035 145.54 85.4096 146.131C85.3226 147.937 85.1668 150.113 85.1163 151.878C85.1928 152.272 85.2388 152.392 85.34 152.749C85.6977 152.855 85.4643 153.881 85.4231 154.184C85.2881 156.071 85.2546 157.221 85.4887 159.129C85.5102 159.155 85.6764 159.392 85.6867 159.399C85.7441 159.374 85.8648 159.192 85.9156 159.132C86.2056 159.225 86.1558 159.708 86.1761 160.069C86.323 162.661 85.8167 165.262 85.3127 167.743C85.1922 168.336 85.5974 167.973 85.525 168.505C85.4516 168.95 85.021 169.894 85.066 170.307L85.3649 170.216C85.3957 170.563 85.1775 171.277 85.0724 171.655C84.5292 173.61 84.3029 175.498 84.1954 177.587C85.58 175.36 85.7479 172.808 86.3477 170.184C86.7115 168.626 87.1419 167.096 87.6369 165.604C88.1421 164.102 89.1099 161.167 89.7847 159.914C92.0082 155.781 93.172 151.554 94.0313 146.618C94.1935 145.688 94.125 144.948 94.2431 143.956C94.7447 144.58 94.8938 144.799 95.3025 145.534C95.5163 145.775 95.925 146.506 95.9128 146.91C95.8481 147.025 95.7985 147.122 95.7385 147.24L95.8247 147.397C96.3563 148.365 97.4635 151.118 97.9594 151.619C98.251 151.598 98.385 151.479 98.5894 151.795C98.9363 152.333 99.3291 153.508 99.9019 153.596C99.9066 153.458 99.8747 153.053 100.034 153.025C100.174 153.1 100.265 153.51 100.325 153.69C100.486 154.32 100.673 154.388 100.95 154.895C101.157 155.275 100.756 155.289 100.958 155.833C101.191 156.46 101.581 156.986 101.862 157.542L101.963 157.19C102.076 157.426 102.098 157.462 102.173 157.71C102.167 157.896 102.159 158.081 102.151 158.266C102.513 159.252 104.971 164.19 105.495 164.669C105.641 164.601 105.734 164.576 105.89 164.562C106.465 165.004 106.776 165.883 107.161 166.611C108.426 168.998 109.145 171.318 109.993 174.036C110.39 175.306 110.964 177.856 111.769 178.903C111.833 178.986 112.085 178.551 112.148 179.105C112.201 179.483 112.238 179.823 112.278 180.176C111.758 179.599 111.504 179.227 111.046 178.551C111.64 180.694 111.816 181.254 112.861 183.076C112.944 185.566 112.581 189.285 111.848 191.538C110.204 192.486 108.68 193.605 107.059 194.621C105.158 195.813 103.148 196.919 101.21 198.007C100.508 198.401 99.5156 198.558 98.79 198.925C94.9313 200.716 90.7571 201.072 86.7042 201.013C84.4464 200.98 82.2611 200.693 80.0178 200.394C79.0031 200.258 77.9588 200.37 76.9455 200.175C75.7317 199.928 74.5017 199.509 73.3047 199.161C71.1357 198.53 69.211 198.114 67.1686 196.864C65.5027 195.846 63.5981 195.194 62.1972 193.475L62.458 193.316L63.0547 193.77C63.1604 193.547 63.1633 193.554 63.2293 193.318C63.1051 192.761 62.0088 191.225 61.5659 191.02C60.7673 191.134 60.7413 190.88 60.1901 190.178C60.0731 190.107 59.222 189.099 59.176 188.984C58.9168 188.337 59.5766 189.016 59.6866 189.145L59.9487 189.009C59.2713 188.012 58.7425 186.935 58.1669 185.83C58.0449 185.75 57.9838 185.707 57.8678 185.612L57.7491 185.652C57.5236 185.601 57.5965 185.632 57.3984 185.496C56.8082 184.272 56.4128 183.436 55.7747 182.24C55.3782 181.814 55.3785 181.701 55.8521 181.495C55.6062 180.894 55.5954 180.97 55.1545 180.976C53.853 178.848 52.8442 177.507 52.0835 174.831C52.0479 174.6 51.8769 173.616 51.9812 173.452L51.9912 173.462L51.9964 173.488L52.0347 173.474L52.0939 173.619C52.1766 173.819 52.1826 173.832 52.2251 174.046C52.343 174.396 52.633 175.287 52.7867 175.56C53.2645 176.408 54.0764 177.42 54.4491 178.355L54.6997 178.291C53.4477 176.242 52.2777 171.318 51.4062 170.269C51.1893 169.02 51.1587 167.491 50.948 166.081C50.8121 166.815 50.7146 167.991 50.6328 168.771C50.1282 166.594 50.1146 165.443 51.0252 163.44L51.2727 163.579L51.4065 163.405C51.7367 162.098 51.4964 161.255 51.9896 160.114C52.1682 159.553 52.4163 159.025 52.6529 158.503L52.4887 159.401C52.3723 160.038 52.2988 159.98 52.381 160.575C53.4515 157.417 55.2661 153.412 55.7555 149.962C55.8795 149.088 55.602 147.998 55.3761 147.168C60.7469 152.089 65.2016 158.611 68.3937 166.225C69.8906 169.761 71.2285 173.737 72.0978 177.64C72.2271 178.221 72.3088 179.643 72.6839 179.945C72.9428 179.878 72.8336 179.962 73.0043 179.646C73.2295 177.979 72.7808 175.857 72.52 174.248C72.3126 172.968 72.5746 173.254 72.1559 171.829C72.0351 172.121 72.0355 172.131 71.9466 172.454C71.3261 172.323 71.4379 171.138 71.5244 170.584C71.6709 170.637 71.7348 170.663 71.872 170.572L72.0087 170.485C72.0909 170.25 72.0921 170.269 72.067 170.012C71.3707 169.361 71.1038 168.281 71.0131 167.162C70.9805 166.76 71.0336 166.897 70.8628 166.497L70.4811 166.491C70.2153 166.513 70.2289 166.01 70.1786 165.68C69.9801 165.602 70.0511 165.646 69.8897 165.46C69.7171 164.837 69.711 164.723 69.6791 164.054L69.807 163.886C69.712 163.386 69.4303 163.388 69.7467 163.116C69.8622 162.959 69.8882 162.947 69.9566 162.779C69.752 162.395 69.5456 161.934 69.3544 161.53L69.0772 161.697C68.7266 161.833 68.5255 160.977 68.4225 160.669L68.3939 160.585C68.2575 160.427 68.2277 160.417 68.3741 160.274C68.4235 160.2 68.5132 160.072 68.5568 159.987C66.3071 156.073 64.0802 153.746 63.0664 148.32C61.7888 141.481 62.8627 134.652 64.562 128.15C65.1478 125.908 65.8344 123.329 66.7252 121.289L66.6004 120.385C66.3504 118.481 65.2884 117.498 65.1406 115.75C64.9176 115.353 65.3542 114.819 64.7571 114.666C64.296 114.116 63.7451 113.209 64.5839 112.886C64.7715 112.799 64.6924 111.926 64.7231 111.552C64.7125 111.322 64.6353 110.86 64.5992 110.613C64.4786 110.176 64.4832 110.116 64.2126 109.866C64.1333 109.538 64.1951 108.716 64.0957 108.054C64.0619 107.711 63.9056 107.354 64.1577 107.286C64.3182 106.549 64.2695 105.765 64.2641 104.988C64.249 104.519 64.3436 103.521 63.9732 103.336L63.8705 103.28C64.147 103.316 64.234 103.429 64.3486 103.092C64.4008 103.299 64.3928 103.347 64.4051 103.574C64.4606 103.651 64.5708 103.861 64.6105 103.907C64.6632 103.796 64.7373 103.425 64.7913 103.245C64.9106 101.68 65.0488 99.9381 65.296 98.3908C65.3737 97.9039 65.646 97.5861 65.7619 96.9412C65.656 96.615 65.6298 96.6178 65.6641 96.2758C66.3941 95.4237 66.2331 95.0064 66.573 93.8262C67.7151 89.8615 68.2601 85.8833 68.5258 81.6473C69.381 82.1511 70.4722 83.2379 71.3574 83.9045C74.2301 86.0682 76.8796 86.6719 80.1485 86.5659C84.2288 86.4336 88.0802 85.0529 91.7023 82.5189C92.2147 82.1605 92.7675 81.5499 93.23 81.0866C93.5789 80.7371 93.9956 80.588 94.2638 80.2089C93.9366 79.8408 91.3727 81.5176 90.8586 81.6755C90.5602 81.7671 90.3865 81.7849 90.0759 81.8113C89.9047 81.7745 89.7577 81.7385 89.587 81.6883C89.5542 81.5754 89.5287 81.4881 89.5011 81.3722L88.823 81.5456C88.7506 81.6898 88.6791 81.8349 88.6086 81.9808C88.4891 82.286 87.4255 82.371 87.1738 82.3982L87.1004 82.4151L86.9777 82.4407C84.5928 82.9658 82.8596 81.5296 81.1349 79.5025C80.8577 79.1194 80.704 78.8585 80.5265 78.3893C80.406 78.1035 80.4861 78.1872 80.6212 77.8736C79.956 76.9864 79.5828 76.4441 79.3594 75.2356L79.4639 75.2067C79.5133 74.9645 79.5598 74.744 79.599 74.4976C79.6901 74.4308 79.6907 74.4274 79.7824 74.4855C79.808 74.1964 79.8111 74.1902 79.8806 73.9201C79.1967 72.1526 80.6142 71.3959 80.2218 70.5974L79.8947 70.673C79.8933 70.2103 80.4184 69.0332 80.6259 68.6369C82.3079 65.424 84.5059 63.1825 87.3776 62.3802C87.5525 62.438 87.5346 62.4854 87.6096 62.6977L87.7421 62.8661C88.2804 62.7383 88.908 62.8468 89.4512 62.7228C90.7928 62.4166 91.7113 64.1626 92.6926 64.7697C93.8475 65.4841 94.3781 65.4494 95.476 66.5531C94.9678 66.3587 94.2122 66.0382 93.715 65.908C94.9594 67.0202 95.4347 67.1866 96.9881 66.7955C97.8169 66.5869 98.6175 66.2921 99.39 65.8203L99.3685 65.8078C100.357 65.315 100.967 65.1372 102.03 64.988C102.43 64.9319 103.253 65.0369 103.481 64.8732L103.501 64.6766C103.036 64.2179 100.441 64.629 99.7341 64.7164C99.4894 64.8341 98.8378 65.0371 98.76 64.57C98.73 64.5453 98.7 64.5207 98.67 64.496L97.4775 64.4413L97.5497 64.7997C97.8225 64.8031 97.8047 64.7908 98.041 64.9558C97.4635 65.049 97.2563 65.0714 96.7088 64.884C96.3235 64.863 96.09 64.8732 95.7131 64.7365L95.625 64.4629C95.7328 64.3499 95.7535 64.2899 95.8744 64.2837C96.3722 64.3559 96.4641 64.3817 96.9441 64.2155L97.0172 63.9548L97.0031 64.1816L97.05 64.1376L97.0463 63.9993C96.7772 63.7389 95.3831 63.7279 94.8769 63.5222C94.1644 63.2326 93.9591 63.094 93.2766 62.5843C92.898 62.2758 92.8686 62.3037 92.5595 61.9189C92.541 61.7748 92.5429 61.7655 92.5504 61.6176C91.9415 61.2381 90.1289 59.0865 89.8402 58.4282C89.8016 57.5066 90.5618 56.9543 90.8423 56.0816C91.277 54.7218 91.0878 53.3534 91.6235 52.0115C92.4263 50.0006 93.4586 49.8151 94.9641 49.3428C95.1675 49.2789 95.2528 49.1477 95.3428 48.9065C95.2463 48.4989 94.8206 48.1555 94.5497 47.8786Z" fill="white"/>
<path d="M79.8806 73.9201C80.124 74.865 79.4613 74.5441 80.1702 75.3959C80.4098 75.8879 80.5753 76.3004 80.8497 76.771C81.2729 77.4967 81.7758 77.989 82.0826 78.8008C81.8691 78.8358 81.8496 78.8323 81.6559 78.9257C81.3022 78.5903 80.9824 78.1964 80.6212 77.8736C79.956 76.9863 79.5828 76.4441 79.3594 75.2356L79.4639 75.2067C79.5133 74.9645 79.5598 74.744 79.599 74.4976C79.69 74.4307 79.6907 74.4274 79.7824 74.4855C79.808 74.1964 79.8111 74.1902 79.8806 73.9201Z" fill="white"/>
<path d="M80.1702 75.3959C80.4098 75.888 80.5753 76.3005 80.8497 76.771C81.2729 77.4967 81.7758 77.989 82.0826 78.8008L81.9857 78.7656C81.2442 78.5057 79.8473 76.2894 80.1702 75.3959Z" fill="#1F2A22"/>
<path d="M79.599 74.4976C79.6901 74.4308 79.6907 74.4274 79.7824 74.4855C79.7647 75.055 79.8962 75.6908 79.4639 75.2067C79.5133 74.9645 79.5598 74.744 79.599 74.4976Z" fill="#1F2A22"/>
<path d="M80.6212 77.8736C80.9824 78.1965 81.3022 78.5903 81.6559 78.9258C82.2556 79.7846 82.5425 80.2109 83.4648 80.5619C83.6222 80.6218 84.3521 81.2374 84.7455 81.4706L85.2698 81.7767C84.7296 81.6353 84.0773 81.3538 83.5432 81.2966C83.0293 81.2417 83.3382 80.8228 82.9272 80.579C82.3463 80.1304 81.7553 79.6888 81.2206 79.1612L81.1349 79.5025C80.8577 79.1194 80.704 78.8585 80.5265 78.3893C80.406 78.1035 80.4861 78.1872 80.6212 77.8736Z" fill="#1F2A22"/>
<path d="M80.5265 78.3893C80.7296 78.4319 81.1287 78.9534 81.2206 79.1612L81.1349 79.5025C80.8577 79.1194 80.7041 78.8585 80.5265 78.3893Z" fill="white"/>
<path d="M86.4062 127.108C86.4693 127.465 86.4407 127.551 86.6358 127.798C86.6307 127.793 86.813 127.934 86.8067 127.977C86.7079 128.641 86.9629 130.864 86.6247 131.202C86.314 131.284 86.4259 131.411 86.3531 131.853C86.1918 130.3 86.4063 128.657 86.4062 127.108Z" fill="#1F2A22"/>
<path d="M86.6359 127.798C86.6307 127.793 86.8131 127.934 86.8067 127.977C86.708 128.641 86.963 130.864 86.6247 131.202C86.473 130.737 86.578 128.372 86.6359 127.798Z" fill="#1F2A22"/>
<path d="M64.723 111.552C64.7929 112.032 64.805 112.473 64.8509 112.955C64.9731 114.244 65.3456 114.537 65.1406 115.75C64.9175 115.353 65.3541 114.819 64.757 114.666C64.296 114.116 63.745 113.209 64.5839 112.886C64.7715 112.799 64.6924 111.926 64.723 111.552Z" fill="#1F2A22"/>
<path d="M64.757 114.666C64.296 114.116 63.745 113.209 64.5839 112.886C64.7147 113.575 64.8372 113.961 64.757 114.666Z" fill="white"/>
<path d="M86.5472 82.1786C86.3718 82.1206 85.5699 81.7595 86.2457 81.8194C87.2139 81.905 87.8827 81.7398 88.823 81.5456C88.7506 81.6898 88.6791 81.8349 88.6086 81.9808C88.4891 82.286 87.4254 82.371 87.1738 82.3982C87.1232 82.1269 86.8128 82.2631 86.5472 82.1786Z" fill="#1F2A22"/>
<path d="M88.6086 81.9807C88.4891 82.286 87.4254 82.3709 87.1738 82.3982C87.1232 82.1269 86.8128 82.2631 86.5472 82.1786C86.884 82.1351 88.3858 81.91 88.6086 81.9807Z" fill="#1F2A22"/>
<path d="M85.8928 138.733C86.2907 138.544 86.1647 139.589 86.1705 139.585C85.721 140 86.0971 141.56 85.9521 142.243C85.8758 142.602 85.9292 144.895 85.8424 145.052C85.8006 145.004 85.7588 144.957 85.7171 144.91C85.6851 144.636 85.641 144.657 85.4631 144.532C85.5745 144.463 85.6494 144.438 85.7516 144.378C85.8679 144.131 85.8664 142.938 85.7133 142.565C85.8416 141.55 85.7909 140.003 85.8928 138.733Z" fill="white"/>
<path d="M85.5182 138.017L85.5689 138.197C85.6553 138.602 85.6141 138.627 85.8928 138.733C85.7909 140.003 85.8416 141.55 85.7133 142.565C85.6479 142.55 85.5764 142.556 85.523 142.498C85.6154 142.805 85.5195 138.147 85.5182 138.017Z" fill="#1F2A22"/>
<path d="M71.5244 170.584C71.6708 170.637 71.7348 170.663 71.8719 170.572L72.0087 170.485C71.9447 170.99 72.0529 171.34 72.1559 171.829C72.0351 172.121 72.0354 172.131 71.9466 172.454C71.3261 172.323 71.4379 171.138 71.5244 170.584Z" fill="#1F2A22"/>
<path d="M71.5244 170.584C71.7723 171.225 71.9259 171.743 71.9466 172.454C71.3261 172.323 71.4379 171.138 71.5244 170.584Z" fill="white"/>
<path d="M89.257 90.4705C89.4846 89.9568 90.069 89.4764 90.4475 89.1496L90.5151 89.2734C90.5721 89.3701 90.6059 89.4551 90.6176 89.5789C90.5197 89.8753 89.8848 90.6665 89.68 90.7525C89.5295 90.6431 89.4108 90.5666 89.257 90.4705Z" fill="#1F2A22"/>
<path d="M90.6176 89.5789C90.5197 89.8753 89.8848 90.6665 89.68 90.7525C89.5295 90.6431 89.4108 90.5666 89.257 90.4705C89.7446 90.3398 90.1106 89.9118 90.6176 89.5789Z" fill="white"/>
<path d="M60.1901 190.178C60.073 190.107 59.2219 189.099 59.1759 188.984C58.9168 188.337 59.5766 189.016 59.6866 189.145L59.9487 189.009C60.1809 189.193 60.3554 189.505 60.5149 189.79C60.5716 190.1 60.416 190.059 60.1901 190.178Z" fill="white"/>
<path d="M59.9487 189.009C60.1809 189.193 60.3554 189.505 60.515 189.79C60.1914 189.925 59.9257 189.449 59.6866 189.145L59.9487 189.009Z" fill="#1F2A22"/>
<path d="M69.9566 162.779C70.0977 163.088 71.087 165.155 70.8321 165.363C70.7004 165.368 70.1998 163.991 70.075 163.711C69.9974 163.778 69.8926 163.834 69.807 163.886C69.7119 163.386 69.4303 163.388 69.7467 163.116C69.8622 162.959 69.8882 162.947 69.9566 162.779Z" fill="#1F2A22"/>
<path d="M69.7467 163.116C69.9294 163.373 69.9385 163.397 70.075 163.711C69.9974 163.778 69.8926 163.834 69.807 163.886C69.7119 163.386 69.4303 163.388 69.7467 163.116Z" fill="white"/>
<path d="M68.5567 159.987C68.7294 160.197 68.9392 160.668 69.1323 160.977C69.1175 161.137 69.1011 161.27 69.0806 161.428C69.079 161.518 69.0762 161.609 69.0771 161.697C68.7265 161.833 68.5254 160.977 68.4225 160.669L68.3939 160.585C68.2575 160.427 68.2277 160.417 68.374 160.274C68.4234 160.2 68.5131 160.072 68.5567 159.987Z" fill="#1F2A22"/>
<path d="M68.3939 160.585C68.4912 160.492 68.5151 160.514 68.6307 160.541C68.7832 160.872 68.9043 161.117 69.0806 161.428C69.079 161.518 69.0762 161.609 69.0772 161.697C68.7265 161.833 68.5255 160.977 68.4225 160.669L68.3939 160.585Z" fill="white"/>
<path d="M68.3939 160.585C68.2575 160.427 68.2277 160.417 68.374 160.274C68.5135 160.384 68.5332 160.383 68.6307 160.541C68.5151 160.514 68.4912 160.492 68.3939 160.585Z" fill="#1F2A22"/>
<path d="M63.0547 193.77C63.1604 193.547 63.1633 193.554 63.2293 193.318C63.3069 193.678 64.7541 194.716 65.1177 195.065C64.2477 194.8 63.7728 194.535 63.0547 193.77Z" fill="#1F2A22"/>
<path d="M85.1163 151.878C85.1928 152.272 85.2388 152.392 85.34 152.749C85.6977 152.855 85.4643 153.881 85.423 154.184L85.2384 153.959C84.863 154.048 85.0975 152.3 85.1163 151.878Z" fill="#1F2A22"/>
<path d="M85.3399 152.749C85.6977 152.855 85.4642 153.881 85.423 154.184L85.2384 153.959C85.3015 153.515 85.3102 153.198 85.3399 152.749Z" fill="white"/>
<path d="M57.8678 185.612C57.9155 185.309 57.8908 185.245 57.6874 184.992C57.6074 184.893 57.3603 184.455 57.6578 184.546C58.0846 184.734 58.2607 185.18 58.53 185.615C58.6424 185.798 58.7207 186.095 58.4664 185.871C58.417 185.827 58.3419 185.653 58.2839 185.642C58.2434 185.676 58.1899 185.788 58.1669 185.83C58.0449 185.75 57.9838 185.707 57.8678 185.612Z" fill="#1F2A22"/>
<path d="M89.5011 81.3722C89.6864 81.2871 89.8394 81.2472 90.0275 81.1877C90.362 81.0784 90.6923 80.9469 91.0171 80.7934C91.0879 80.7592 91.2533 80.7027 91.2812 80.8406L91.2828 80.8274L91.2385 80.8226L91.2169 80.9417C90.9769 81.1828 90.2282 81.3956 89.9151 81.5041L90.0759 81.8113C89.9047 81.7745 89.7577 81.7385 89.587 81.6883C89.5543 81.5754 89.5288 81.4881 89.5011 81.3722Z" fill="#1F2A22"/>
<path d="M89.915 81.5041L90.0758 81.8112C89.9046 81.7744 89.7576 81.7385 89.5869 81.6883C89.7122 81.6081 89.7808 81.558 89.915 81.5041Z" fill="white"/>
<path d="M99.5943 64.396C99.6431 64.5156 99.6806 64.6018 99.734 64.7164C99.4893 64.8341 98.8378 65.0371 98.76 64.57C98.73 64.5453 98.7 64.5207 98.67 64.496L97.4775 64.4413C97.8094 64.3195 99.2559 64.3079 99.5943 64.396Z" fill="#1F2A22"/>
<path d="M99.5944 64.396C99.6431 64.5156 99.6806 64.6018 99.7341 64.7164C99.4894 64.8341 98.8378 65.0371 98.76 64.57C99.0825 64.5703 99.3441 64.6357 99.5944 64.396Z" fill="white"/>
<path d="M135.092 48.5474L135.131 48.5299C135.223 48.491 135.333 48.4539 135.415 48.3887C135.724 48.6263 135.86 48.5331 135.915 49.007L135.85 49.219C135.897 49.2419 134.43 48.4937 135.092 48.5474Z" fill="#1F2A22"/>
<path d="M135.092 48.5474L135.131 48.5299C135.223 48.491 135.333 48.4539 135.415 48.3887C135.724 48.6263 135.86 48.5331 135.915 49.007C135.612 48.8619 135.399 48.6681 135.092 48.5474Z" fill="#1F2A22"/>
<path d="M95.3025 145.534C95.5162 145.775 95.925 146.506 95.9128 146.91C95.5369 146.703 95.4656 146.222 95.0193 145.931C95.0203 145.914 95.0156 145.805 95.0419 145.773C95.0512 145.761 95.0606 145.762 95.0747 145.762C95.1169 145.763 95.1553 145.771 95.1984 145.759C95.2556 145.742 95.2968 145.551 95.3025 145.534Z" fill="white"/>
<path d="M51.9896 160.114C52.1682 159.553 52.4163 159.025 52.6529 158.503L52.4887 159.401C52.3723 160.038 52.2988 159.98 52.3809 160.575C52.0564 160.459 52.3472 160.381 51.9896 160.114Z" fill="white"/>
<path d="M64.3486 103.092C64.4008 103.299 64.3928 103.347 64.4051 103.574C64.4401 103.926 64.4777 104.161 64.5584 104.497C64.2832 104.571 64.3569 104.614 64.264 104.988C64.249 104.519 64.3435 103.521 63.9732 103.336L63.8705 103.28C64.147 103.316 64.234 103.429 64.3486 103.092Z" fill="white"/>
<path d="M70.1786 165.68L70.3819 165.751C70.6895 165.932 70.6923 166.05 70.8628 166.497L70.4811 166.491C70.2153 166.513 70.2289 166.01 70.1786 165.68Z" fill="#1F2A22"/>
<path d="M70.1786 165.68L70.3819 165.751C70.3076 166.184 70.5443 166.098 70.4811 166.491C70.2153 166.513 70.2289 166.01 70.1786 165.68Z" fill="#1F2A22"/>
<path d="M141.232 57.4031C141.387 57.948 141.326 57.7413 141.762 57.9221C141.008 58.0221 141.482 58.179 141.019 58.6267C140.548 59.0814 141.206 57.5102 141.232 57.4031Z" fill="white"/>
<path d="M132.772 65.4957C132.817 65.4785 133.259 65.2713 133.284 65.3969C133.267 65.4645 133.224 65.4896 133.18 65.5382L133.304 65.846C133.108 65.9395 133.039 65.9629 132.839 66.026C132.669 66.0722 132.787 65.7739 132.772 65.4957Z" fill="#1F2A22"/>
<path d="M132.839 66.026C132.986 65.7575 132.983 65.7533 133.18 65.5382L133.304 65.846C133.108 65.9395 133.039 65.9629 132.839 66.026Z" fill="white"/>
<path d="M95.0193 145.931C95.4656 146.222 95.5369 146.703 95.9128 146.91C95.8481 147.025 95.7984 147.122 95.7384 147.24C95.5115 146.927 95.1768 146.323 95.0193 145.931Z" fill="#1F2A22"/>
<path d="M117.94 72.1834C118.138 72.0885 118.606 71.7916 118.781 71.8898C118.815 72.0739 118.388 72.2696 118.333 72.457C118.346 72.5023 118.41 72.5332 118.447 72.5595C118.182 72.8058 118.246 72.4557 117.94 72.1834Z" fill="#1F2A22"/>
<path d="M55.8521 181.495C56.1399 181.935 56.2059 182.108 55.7747 182.24C55.3782 181.814 55.3785 181.701 55.8521 181.495Z" fill="#1F2A22"/>
<path d="M92.5594 61.9189C92.9918 61.9113 93.1039 62.1997 93.4542 62.1564L93.2765 62.5843C92.898 62.2758 92.8685 62.3037 92.5594 61.9189Z" fill="white"/>
<path d="M92.5504 61.6176C92.8071 61.6968 93.319 61.834 93.4542 62.1564C93.104 62.1997 92.9918 61.9114 92.5595 61.9189C92.541 61.7748 92.5429 61.7655 92.5504 61.6176Z" fill="#1F2A22"/>
<path d="M64.4052 103.574C64.4606 103.651 64.5708 103.862 64.6105 103.907C64.6632 103.796 64.7373 103.425 64.7913 103.245C64.779 103.792 64.8842 104.177 64.5584 104.497C64.4777 104.161 64.4401 103.926 64.4052 103.574Z" fill="#1F2A22"/>
<path d="M85.4886 159.129C85.5102 159.155 85.6763 159.392 85.6866 159.399C85.744 159.374 85.8648 159.192 85.9156 159.132C85.8633 159.333 85.8104 160.055 85.7286 160.094C85.555 160.177 85.5037 159.273 85.4886 159.129Z" fill="#1F2A22"/>
<path d="M120.924 71.1159C121.127 70.7712 121.657 70.5256 121.184 71.4773C120.84 71.3826 121.316 71.4226 120.924 71.1159Z" fill="#1F2A22"/>
<path d="M85.5583 108.656C85.8227 108.508 86.1913 107.943 86.3529 108.096C86.3569 108.287 86.1898 108.479 86.0955 108.607C85.8949 108.64 85.7593 108.647 85.5583 108.656Z" fill="white"/>
<path d="M52.0835 174.831C52.0478 174.6 51.8768 173.616 51.9812 173.452L51.9912 173.462L51.9964 173.488L52.0347 173.474L52.0939 173.619C52.1766 173.819 52.1825 173.832 52.2251 174.046C52.0042 174.101 52.1007 174.499 52.0835 174.831Z" fill="#1F2A22"/>
<path d="M99.9019 153.596C99.9065 153.458 99.8747 153.053 100.034 153.025C100.174 153.1 100.265 153.51 100.325 153.69L99.9019 153.596Z" fill="white"/>
<path d="M97.5497 64.7997C97.8225 64.8031 97.8047 64.7908 98.0409 64.9558C97.4634 65.049 97.2562 65.0714 96.7087 64.884C97.0753 64.8866 97.2159 64.9781 97.5497 64.7997Z" fill="#1F2A22"/>
<path d="M101.963 157.19C102.076 157.426 102.097 157.462 102.172 157.71C102.167 157.896 102.159 158.081 102.151 158.266C102.039 158.014 101.951 157.813 101.862 157.542L101.963 157.19Z" fill="#1F2A22"/>
<path d="M69.1323 160.977C69.2281 161.107 69.2739 161.326 69.3544 161.53L69.0772 161.697C69.0762 161.609 69.079 161.518 69.0806 161.428C69.1012 161.27 69.1176 161.137 69.1323 160.977Z" fill="#1F2A22"/>
<path d="M54.6996 178.291C54.8934 178.779 54.6486 178.662 54.449 178.355L54.6996 178.291Z" fill="#1F2A22"/>
<path d="M96.7612 49.8979C97.2103 49.8408 97.3791 49.9165 97.7831 50.1659C98.3906 50.5407 102.203 53.1461 102.368 53.7239C102.323 53.9639 102.326 54.0968 102.146 54.255C100.629 55.5877 98.9447 56.1075 97.2281 56.0395C95.4928 56.0673 93.7224 55.9189 91.9987 56.1912C91.8409 56.2161 91.8414 56.2022 91.7214 56.0787C91.931 55.671 92.7295 55.1152 93.0415 54.7629C94.2328 53.4178 95.2978 50.7916 96.7612 49.8979Z" fill="#1F2A22"/>
<path d="M97.3106 52.2192C97.4391 52.2478 97.8591 52.2817 97.7016 52.6857C97.1794 54.0345 98.7769 54.8473 96.9797 54.5682L96.8269 54.4866C96.3834 54.2521 96.1153 53.9635 96.0347 53.3077C95.9156 52.3435 96.8072 52.4158 97.3106 52.2192Z" fill="white"/>
<path d="M115.298 68.9759C116.706 68.8869 118.597 67.878 119.895 67.1921C121.465 66.3625 124.941 63.5142 126.598 64.3442L126.705 64.5355C126.386 65.6179 122.861 66.8149 121.951 67.436C120.657 68.3196 119.421 69.2686 118.135 70.1727C115.842 71.4082 112.424 73.1812 109.988 71.8956C109.543 71.6608 109.215 71.3775 109.324 70.6987C109.841 69.8205 111.26 69.3505 112.073 69.1392C112.314 68.9568 112.529 69.1224 112.848 69.0193C112.802 68.065 114.221 68.3951 114.311 68.6207C114.44 69.2131 114.787 68.9328 115.298 68.9759Z" fill="#1F2A22"/>
<path d="M112.848 69.0193C112.802 68.065 114.221 68.3951 114.311 68.6206C114.44 69.2131 114.787 68.9328 115.298 68.9759C114.787 69.1153 112.576 69.2756 112.073 69.1392C112.314 68.9568 112.529 69.1224 112.848 69.0193Z" fill="white"/>
<path d="M112.848 69.0193C112.802 68.065 114.221 68.3951 114.311 68.6206C113.662 68.6709 113.649 68.9473 112.848 69.0193Z" fill="#1F2A22"/>
<path d="M77.1534 106.812C77.7672 105.65 78.2613 104.407 78.9214 103.305C79.1968 102.845 79.5646 103.104 79.8633 102.674C81.6459 100.112 83.4497 97.141 85.561 95.0668C86.2052 94.434 87.0524 94.1301 87.7636 93.6683C88.2647 93.344 88.8039 92.851 89.2739 92.4369C88.8723 93.2984 85.4364 97.6251 84.813 97.8054C84.6392 97.6149 84.6433 97.5749 84.428 97.5601C84.1931 97.7562 84.2118 97.7497 84.071 98.0758C84.0777 98.1818 84.1047 98.6027 84.0617 98.6817C83.556 99.6091 81.9236 101.242 81.544 102.074L81.6226 102.347L82.0349 102.056L82.1485 102.109C82.0887 102.496 82.0073 102.638 81.8621 102.975C81.6605 103.351 81.4504 103.822 81.2002 104.138C80.9469 104.459 80.5404 104.617 80.2447 104.867C79.9623 105.107 79.7204 105.468 79.4873 105.789C78.5144 107.126 74.2909 114.319 73.4394 114.521C73.3109 114.552 73.2866 114.474 73.191 114.378C73.1024 113.322 76.5721 108.405 77.2269 107.551C77.6437 106.929 77.8703 106.533 78.2355 105.853C77.9151 106.159 77.5039 106.71 77.1534 106.812Z" fill="#1F2A22"/>
<path d="M109.133 174.879C109.18 175.2 109.411 176.33 109.381 176.408C109.099 177.145 108.533 174.76 108.45 174.522C108.022 173.291 107.469 172.172 107.003 170.978C106.999 170.966 106.995 170.887 107.013 170.873C107.636 170.92 107.5 172.07 108.438 172.295C108.495 172.253 108.597 172.174 108.66 172.144C108.803 172.454 109.407 174.317 109.392 174.649C109.225 174.683 109.223 174.689 109.133 174.879Z" fill="#1F2A22"/>
<path d="M108.66 172.144C108.803 172.454 109.407 174.317 109.392 174.649C109.225 174.683 109.223 174.689 109.133 174.879C108.978 174.171 108.841 172.808 108.438 172.295C108.495 172.253 108.597 172.174 108.66 172.144Z" fill="white"/>
<path d="M103.625 163.539C102.943 162.481 102.519 161.492 101.963 160.342C101.116 158.587 101.627 158.075 102.518 159.671C102.577 159.704 102.572 159.729 102.584 159.819C102.936 160.96 103.312 162.365 103.625 163.539Z" fill="#1F2A22"/>
<path d="M102.518 159.671C102.577 159.704 102.572 159.729 102.584 159.819C102.534 159.75 102.533 159.758 102.518 159.671Z" fill="#1F2A22"/>
<path d="M86.3028 96.8575C86.3849 96.9124 86.4497 96.9319 86.4591 97.0657C86.3227 97.39 83.7906 100.884 83.4252 101.354C83.027 101.143 83.5665 100.526 83.7243 100.177C84.3362 98.823 85.3392 97.7413 86.3028 96.8575Z" fill="#1F2A22"/>
<path d="M107.409 167.689C107.79 168.57 109.572 173.666 109.773 174.96C109.778 174.999 109.756 174.999 109.719 175.012C109.585 174.959 109.487 174.774 109.392 174.649C109.407 174.317 108.803 172.454 108.66 172.144C108.263 170.954 107.68 169.615 107.512 168.392L107.409 167.689Z" fill="#1F2A22"/>
<path d="M86.8692 92.7941C87.3477 93.4675 84.3877 95.5138 83.9526 95.8539C83.5692 95.3596 84.0407 95.1179 84.3917 94.8661C85.2532 94.2491 86.0357 93.4954 86.8692 92.7941Z" fill="#1F2A22"/>
<path d="M101.893 74.3871C103.188 74.3629 99.2737 76.1623 99.2831 76.1587C98.8031 75.8941 99.0572 75.5257 99.4209 75.3939C100.162 75.1326 100.895 74.8388 101.619 74.5129L101.893 74.3871Z" fill="#1F2A22"/>
<path d="M100.663 73.7145C100.654 73.7158 100.926 73.6836 100.843 73.8093C100.609 74.1705 100.107 74.3557 99.8016 74.6353C99.5288 74.8849 99.1725 75.1145 98.8753 75.3188C97.5516 75.0087 100.627 73.7341 100.663 73.7145Z" fill="#1F2A22"/>
<path d="M113.146 73.8096C113.175 73.8262 113.205 73.8427 113.235 73.8593C113.303 74.2864 111.376 75.1369 111.077 75.2588C110.996 75.2264 110.972 75.2299 110.921 75.1548C110.891 74.9678 111.084 74.8544 111.192 74.8281C111.915 74.6505 112.493 74.2309 113.146 73.8096Z" fill="#1F2A22"/>
<path d="M80.1208 105.699C80.3597 106.029 79.2814 107.69 79.0655 108.008C78.7568 107.494 79.8327 106.07 80.1208 105.699Z" fill="#1F2A22"/>
<path d="M104.997 54.07C105.239 54.4319 104.512 55.288 104.326 55.488C104.019 54.8624 104.619 54.4025 104.997 54.07Z" fill="#1F2A22"/>
<path d="M51.0387 164.173C51.3602 164.654 51.1769 165.361 51 165.888C50.7863 165.517 50.7774 164.715 50.9787 164.303L51.0387 164.173Z" fill="#1F2A22"/>
<path d="M106.124 54.1755C106.287 54.5245 105.674 55.1907 105.473 55.3975C105.092 54.8288 105.765 54.4348 106.124 54.1755Z" fill="#1F2A22"/>
<path d="M97.0528 48.5048C97.5525 48.6512 97.6312 48.7862 97.7128 49.5189C97.2412 49.3061 97.0434 49.1785 97.0528 48.5048Z" fill="#1F2A22"/>
<path d="M98.0494 48.8749C98.4881 48.8903 98.8472 49.2791 98.8106 49.8884C98.5003 49.6605 98.1019 49.3707 98.0494 48.8749Z" fill="#1F2A22"/>
<path d="M106.706 54.5272C106.811 54.4696 106.933 54.4997 107.017 54.6045C107.1 54.7093 107.131 54.8697 107.095 55.0158C107.06 55.1618 106.965 55.267 106.852 55.2856C106.705 55.3095 106.568 55.1841 106.532 54.9923C106.494 54.8004 106.569 54.6015 106.706 54.5272Z" fill="#1F2A22"/>
<path d="M68.2736 67.4716C68.7608 68.0019 68.9987 68.7237 69.4794 69.2992C70.4606 70.4735 71.1268 67.8945 71.7494 68.6226C71.6087 69.7697 69.2022 71.0316 68.448 71.2355C67.88 71.3904 67.3025 71.4742 66.7231 71.4857C65.7701 71.5012 59.9507 71.489 60.056 69.6421C60.1617 67.7902 62.2539 66.2509 63.1445 64.5786C63.9798 63.0102 64.2338 59.6075 65.778 59.5097C67.1032 59.6268 68.9337 59.9918 67.1132 61.8679C67.7543 62.7155 69.969 64.9687 69.9843 66.0089C69.7359 66.2048 69.8671 66.1632 69.576 66.1311C69.3791 65.9197 69.2446 65.7102 69.0051 65.7022C68.8209 66.0819 69.1526 66.3076 69.0148 67.0871C68.8016 67.3511 68.8445 67.2642 68.4706 67.2923C68.3646 67.3385 68.3706 67.3534 68.2736 67.4716Z" fill="white"/>
<path d="M67.0172 66.6541C67.1268 66.8982 67.6676 67.4255 67.3572 67.4524C66.7204 67.5075 65.6105 66.2699 65.2298 65.6744C64.8968 65.1534 65.7022 65.2941 65.8428 65.9416C65.8352 65.909 66.4403 66.7961 66.6047 66.614C66.6194 66.5393 66.4925 66.1796 66.5974 66.1973C67.0004 66.2652 68.1816 66.9819 68.4706 67.2923C68.3647 67.3385 68.3707 67.3534 68.2736 67.4716C67.7437 67.0175 67.5897 66.9615 67.0172 66.6541Z" fill="#1F2A22"/>
<path d="M64.3819 67.6579L64.7087 67.6343C66.219 67.5307 67.442 69.1864 68.4723 70.4448C67.27 70.7303 66.3114 70.8108 65.083 70.7981C64.0309 70.7155 62.9806 70.5953 61.9332 70.4376C61.8337 70.4217 60.7031 70.2353 60.9491 69.7433C61.2182 69.0189 62.9687 69.188 63.1197 68.9552C63.7231 68.025 63.101 68.1091 64.3819 67.6579Z" fill="#1F2A22"/>
<path d="M55.9515 184.979C56.1525 185.135 57.1334 186.042 57.2076 186.042L57.324 186.047L57.5184 185.988C57.7741 186.421 58.4699 187.417 58.4246 187.948C58.1533 188.092 56.3808 185.758 56.2091 185.446L55.9515 184.979Z" fill="white"/>
<path d="M101.963 157.19C101.672 156.534 101.424 155.843 101.226 155.127C101.646 155.697 103.028 157.808 103.058 158.576C103.097 159.564 102.227 157.816 102.173 157.71C102.098 157.462 102.076 157.426 101.963 157.19Z" fill="white"/>
<path d="M63.8705 103.28C63.7401 102.666 63.6551 99.4827 64.2874 101.137C64.297 101.162 64.338 102.897 64.3486 103.092C64.234 103.429 64.147 103.316 63.8705 103.28Z" fill="white"/>
<path d="M70.2952 63.1179C70.4776 63.1769 71.9676 63.8888 71.9845 64.0515C71.8989 64.1044 71.8533 64.1029 71.7501 64.1259C71.5848 64.0767 71.1293 63.8009 71.0543 64.0034C70.7374 64.8598 70.3537 63.3974 70.2952 63.1179Z" fill="white"/>
<path d="M93.2326 88.0966C93.3203 87.9804 94.9434 86.3014 94.8234 87.0151C94.7653 87.3577 93.591 87.8026 93.5373 88.4213C93.3072 88.525 93.3527 88.3906 93.2326 88.0966Z" fill="white"/>
<path d="M85.8158 134.504C85.9938 134.913 86.3303 136.915 86.0802 137.222L85.9777 137.172L85.9742 137.181C85.7813 136.723 85.9937 135.593 85.5799 134.918C85.6967 134.842 85.7668 134.805 85.7936 134.63L85.8158 134.504Z" fill="white"/>
<path d="M63.9709 110.205C64.512 110.739 64.3548 111.446 64.3457 112.244C64.0127 112.35 63.8675 110.511 63.9709 110.205Z" fill="white"/>
<path d="M71.7707 62.6607C72.3034 62.7929 72.7647 62.9615 72.7684 63.8C72.2495 63.7061 71.8621 63.4489 71.7707 62.6607Z" fill="white"/>
<path d="M137.476 60.0493C137.936 60.2731 138.955 59.1148 138.993 59.6359C139.029 60.1393 137.763 60.3791 137.422 60.4744L137.476 60.0493Z" fill="white"/>
<path d="M127.45 66.6672C127.686 66.7065 127.71 66.7061 127.942 66.6947C127.306 67.3973 126.651 67.9647 125.923 68.471L126.278 67.996C126.652 67.4974 127.138 67.2481 127.45 66.6672Z" fill="white"/>
<path d="M56.7003 108.982C57.0349 109.34 56.9877 110.504 56.8186 110.99C56.41 110.013 56.5981 110.041 56.7003 108.982Z" fill="white"/>
<path d="M56.1564 120.045C56.3997 120.369 56.3449 121.613 56.1536 122.057C55.8308 121.531 56.0419 120.691 56.1564 120.045Z" fill="#1F2A22"/>
<path d="M87.3776 62.3802C88.3238 62.0828 88.2617 62.0503 89.2629 62.3931C88.7627 62.4038 88.01 62.2863 87.6096 62.6977C87.5346 62.4854 87.5525 62.438 87.3776 62.3802Z" fill="#1F2A22"/>
<path d="M95.625 64.4629C95.3241 64.2746 94.725 64.1235 94.5225 63.8613L94.5291 63.8732L94.5197 63.8479C94.5328 63.5778 95.7581 64.212 95.8744 64.2837C95.7535 64.2899 95.7328 64.3499 95.625 64.4629Z" fill="#1F2A22"/>
<path d="M61.074 192.152C61.4875 192.488 62.0667 192.955 62.4579 193.316L62.1972 193.475C61.8585 193.229 61.3474 192.54 61.074 192.152Z" fill="#1F2A22"/>
<path d="M64.0957 108.054C64.0357 107.856 63.4792 106.279 63.7751 106.056C63.874 106.177 63.8951 106.84 64.1577 107.286C63.9056 107.354 64.0619 107.711 64.0957 108.054Z" fill="#1F2A22"/>
<path d="M87.0843 142.823C87.5382 142.972 87.4932 143.271 87.3492 143.807C86.9786 143.534 87.0032 143.328 87.0843 142.823Z" fill="white"/>
<path d="M100.827 47.019C101.186 47.0505 101.507 46.9753 101.519 47.5443C101.26 47.5156 100.864 47.5808 100.838 47.138L100.827 47.019Z" fill="white"/>
<path d="M79.3594 75.2356C79.3039 74.9595 79.1694 73.647 79.599 74.4976C79.5598 74.744 79.5133 74.9645 79.4639 75.2067L79.3594 75.2356Z" fill="#1F2A22"/>
<path d="M56.2331 111.713C56.5451 112.011 56.4444 112.228 56.368 112.726C56.0664 112.426 56.171 112.218 56.2331 111.713Z" fill="#1F2A22"/>
<path d="M71.1642 169.253C71.3232 169.411 71.3896 169.438 71.3801 169.712C71.139 169.73 71.1853 169.578 71.1642 169.253Z" fill="#1F2A22"/>
<path d="M97.4288 148.993C97.5366 149.012 97.561 149.042 97.516 149.179C97.2375 149.26 97.3406 149.169 97.4288 148.993Z" fill="#1F2A22"/>
<path d="M88.8805 16.0479C91.6595 16.0311 92.5298 17.1036 95.0437 17.7902C96.0984 18.0781 98.0634 17.7735 99.3422 18.0622C101.557 18.5624 103.011 19.9027 105.182 20.5805C107.085 21.1744 108.503 20.9971 110.343 22.0473C111.796 22.8769 112.749 24.7469 113.831 25.4313C115.209 26.3037 116.516 26.3107 118.042 27.5585C119.46 28.7174 120.008 30.1479 121.288 31.2176C122.693 32.3923 124.336 32.4383 125.737 33.9769C126.991 35.3529 127.772 36.9705 128.948 38.4481C129.667 39.3495 130.821 39.997 131.412 41.0204C131.704 41.5252 132.014 43.0897 132.355 43.3786C132.754 43.7163 133.651 43.2518 134.098 43.8119L134.077 44.0247C133.875 44.1925 132.562 44.4597 132.217 44.4972C131.181 44.6098 128.677 45.5436 127.815 45.0397C126.672 44.3716 125.922 41.7194 125.034 40.5748C124.187 39.4813 123.175 38.9299 122.235 38.0229C121.506 37.2539 121.015 36.3089 120.172 35.4895C118.22 33.5932 116.199 33.1877 114.154 31.933C112.534 30.9393 111.053 28.8 109.236 27.7877C107.289 26.7034 105.613 26.5289 103.586 25.906C101.565 25.2846 99.9553 23.8728 98.0016 23.2676C96.3778 22.7645 94.5309 22.9546 92.8444 22.7197C91.2925 22.5035 90.2331 21.9204 88.7949 21.4997C87.0352 20.9849 84.7163 21.952 82.7965 22.1766C80.8154 22.4084 79.434 21.7141 77.6805 21.9114C76.5859 22.0346 74.3947 23.219 73.1882 23.6355C71.5353 24.2062 70.163 23.9766 68.5911 24.5495C67.2857 25.0253 65.9305 26.1867 64.6524 26.941C63.0552 27.8838 61.0637 28.3952 59.5286 29.1967C58.4421 29.764 56.4844 31.7619 55.3238 32.6057C53.9464 33.6071 52.1725 34.6031 50.9165 35.7126C50.3709 36.1945 49.3475 38.0588 48.5879 38.8054C47.4382 39.9355 46.3753 40.2899 45.3588 41.5733C43.9173 43.3932 42.7767 45.5806 41.399 47.4449C41.1305 47.8083 40.186 48.5852 39.8115 48.9198C38.1002 50.4487 37.9196 52.9757 36.538 55.2662C35.3688 57.2045 34.2294 58.2446 33.1446 59.9946C32.6695 60.7609 32.5474 63.3272 31.9925 64.6343C31.2537 66.3748 30.2189 67.2764 29.5592 68.9358C28.8975 70.6 29.0729 72.6331 28.5919 74.3739C28.1879 75.8358 26.9185 77.2716 26.5789 78.6437C26.2609 79.9284 26.4232 81.466 26.0959 83.0079C25.729 84.7362 24.4665 86.5733 24.298 87.987C24.0937 89.7022 24.5685 91.7744 24.2261 93.7082C23.9718 95.1449 22.9578 97.0629 22.8602 98.3202C22.6961 100.434 22.9466 101.735 22.6462 103.994C22.4345 105.587 21.4102 108.493 21.3871 109.526C21.3577 110.844 22.2822 113.453 22.3039 115.315C22.3297 117.526 21.7204 118.345 21.6412 120.28C21.5781 121.824 22.4524 124.138 22.5778 125.794C22.7105 127.544 22.1074 129.037 22.3271 130.745C22.5286 132.313 23.3166 133.548 23.7012 135.125C24.1221 136.85 23.4918 139.122 23.8802 140.601C24.3297 142.315 25.4602 144.015 25.9744 145.86C26.4994 147.743 26.0354 148.617 26.2656 150.494C26.4145 151.708 27.2932 153.026 27.5824 154.198C27.5841 154.204 27.4549 154.974 27.4478 155.072C27.3913 155.872 27.5639 155.311 27.8379 155.81L27.7219 155.997C27.2802 156.584 26.3949 157.738 26.0975 158.421L26.169 158.533C26.7592 158.43 27.4594 157.331 28.0968 156.873C28.4865 157.017 28.6726 158.523 28.8969 158.885C30.5564 161.557 31.5637 163.617 32.4403 166.86C32.7943 168.169 35.0394 170.088 35.8699 171.462C37.0827 173.467 37.6145 175.504 38.6086 177.665C39.2167 178.899 41.5162 180.66 42.5116 182.07C43.5145 183.225 44.0812 185.524 45.0544 186.608C46.4887 188.204 48.3385 189.14 49.648 191.058C50.257 191.951 50.7894 191.7 50.6051 193.194L50.5885 193.321C50.8278 193.453 51.1514 193.338 51.4442 193.293C52.2213 193.913 52.8245 194.539 53.5457 195.266C51.4087 195.117 49.267 195.136 47.1317 195.324C46.8528 194.809 46.544 194.261 46.1737 193.863C44.6827 192.145 42.3978 191.036 40.9336 189.382C39.3453 187.587 39.089 185.544 37.007 184.148C35.3045 183.006 34.3763 179.644 33.2137 177.782C32.3107 176.336 31.0521 175.02 30.22 173.466C29.443 172.064 29.2083 170.202 28.4962 168.763C27.0764 165.893 25.2552 163.653 24.2089 160.434C24.1715 160.319 24.3717 160.134 24.4289 160.06L24.3731 159.923C24.1557 159.909 24.0699 159.935 23.885 159.789C23.386 158.692 24.123 157.108 23.7621 156.257C23.1442 154.799 22.1207 154.357 21.5517 152.608C20.8888 150.569 20.8889 148.518 20.3707 146.459C19.7527 144.002 18.9707 142.524 18.6016 139.882C18.3288 137.93 18.3072 135.914 17.9784 134.069C17.7081 132.552 17.0577 131.475 16.8902 129.718C16.7037 127.763 17.2691 125.939 17.108 124.206C17.0059 123.108 16.2922 121.885 16.3342 120.404C16.3778 118.872 16.9292 117.97 17.0496 116.586C17.1651 115.258 16.6536 113.782 16.67 112.349C16.6861 110.939 17.1488 109.435 17.2028 108.17C17.2761 106.45 16.6934 104.987 16.9035 103.121C17.1204 101.194 18.0572 99.8145 18.3587 98.1344C18.6255 96.6475 17.7823 94.8178 18.1964 92.9499C18.5752 91.2415 19.2432 90.3624 19.5566 88.6367C19.8794 86.8587 19.6227 84.7522 20.0016 83.1184C20.528 80.8481 22.5779 79.2865 22.9014 76.9394C22.9572 76.5344 22.8811 75.1054 22.8611 74.6729C22.7164 71.5372 24.5239 70.3841 25.3972 68.4778C26.0141 67.1315 26.1769 63.8097 27.0325 61.8726C27.8 60.1354 28.9442 59.5536 29.4635 58.3902C30.2356 56.6606 30.591 55.0348 31.5869 53.1486C32.522 51.3776 33.3524 50.594 34.3119 49.0309C35.0282 47.8641 35.5892 45.7214 36.5524 44.5509C37.5029 43.379 38.6295 42.5637 39.5083 41.2679C40.2629 40.1551 40.8011 38.8489 41.5523 37.7409C42.4427 36.4277 43.7401 35.9183 44.7999 34.8963C46.1912 33.5545 47.2483 31.6769 48.7384 30.5294C49.9901 29.5325 51.2957 29.1681 52.498 28.369C53.9445 27.4077 55.045 25.7496 56.5944 24.7362C58.0672 23.7729 59.5849 23.5583 60.9495 22.8176C62.4926 21.9801 63.3194 20.999 65.1367 20.3921C66.8914 19.8063 68.6146 19.6464 70.3175 19.0623C71.4727 18.6662 72.5205 17.5945 73.8738 17.3167C75.408 17.0018 76.6538 17.3532 78.1526 17.2154C79.0827 17.1298 80.1882 16.5716 81.1749 16.437C82.5494 16.2495 83.9406 16.7629 85.2788 16.6622C86.5116 16.5695 87.5883 16.1122 88.8805 16.0479Z" fill="#1F2A22"/>
<path d="M141.281 65.7078C141.313 65.1121 142.094 64.127 142.416 63.6461C142.588 63.7577 142.512 63.7056 142.642 63.9717C143.287 63.6519 142.591 62.7606 143.719 61.8563C143.843 62.3434 144.243 63.8542 144.179 64.063C143.519 66.2231 144.445 66.4373 145.22 68.0959C145.619 68.9513 145.572 70.7742 145.807 71.7481C146.052 72.7611 146.843 73.7224 147.165 74.8149C147.611 76.3313 147.31 77.8246 147.663 79.2546C148.072 80.9147 149.134 82.3529 149.535 84.025C150.048 86.1634 149.784 88.2784 149.909 90.4515C149.993 91.9258 150.79 93.2984 151.038 94.7881C151.278 96.2331 150.966 97.5341 151.07 98.8945C151.186 100.423 151.992 103.57 151.766 105.024C151.55 105.179 151.437 105.18 151.198 105.229L151.083 105.38C151.182 105.653 151.335 105.752 151.525 105.927C151.483 106.311 150.729 106.595 150.463 106.726L150.577 106.74C150.342 106.964 150.277 106.939 149.993 106.956C149.822 107.125 149.721 107.218 149.537 107.363C150.236 107.727 151.897 108.075 151.695 109.354C151.391 109.714 150.049 109.603 149.305 109.801C150.101 110.289 150.973 110.367 151.177 111.494C151.382 111.739 151.4 111.754 151.638 111.936C152.143 115.699 151.349 114.104 150.951 117.48C150.81 118.674 151.744 120.479 151.635 122.038C151.523 123.623 150.78 124.691 150.645 126.006C150.408 128.314 150.619 130.838 150.46 133.175C150.315 135.445 149.324 137.46 149.01 139.667C148.625 142.375 148.739 144.972 148.148 147.651C147.591 150.184 146.365 152.071 145.706 154.47C145.172 156.419 145.417 158.901 144.402 160.657C143.705 161.978 142.657 163.137 142.166 164.506C141.522 166.3 141.553 168.165 140.704 169.942C139.694 172.057 138.28 173.33 137.279 175.454C136.482 177.145 136.097 179.107 135.181 180.648C134.317 182.099 133.018 183.123 132.017 184.368C131.451 185.073 130.892 186.236 130.39 187.061C129.624 188.322 128.637 189.536 127.656 190.481C126.149 191.929 124.186 192.95 122.715 194.418C121.449 195.68 120.704 197.128 119.252 198.245C117.565 199.542 115.537 200.058 113.906 201.22C112.563 202.178 111.772 203.32 110.207 204.218C108.396 205.257 106.376 205.195 104.75 206.025C102.552 207.196 100.608 208.991 98.2237 209.464C95.7394 209.957 93.1977 209.915 90.6858 210.003C89.0262 210.061 86.76 210.666 85.1992 210.018C84.7121 210.263 83.7789 210.787 83.2898 210.536C83.2159 210.384 83.1638 210.284 83.0823 210.139C83.6408 209.804 85.8269 208.722 86.3467 208.808C87.232 209.62 87.758 208.505 88.7138 209.21C88.8569 209.315 88.8601 209.26 89.0538 209.209C89.0804 209.142 89.2372 208.746 89.2714 208.736C90.3444 208.413 91.5276 208.221 92.6018 207.888L92.5794 207.783C92.3558 207.694 90.4217 207.815 89.6613 207.687C90.9001 207.114 92.5247 207.144 93.7351 206.316C94.1972 206 93.7725 205.693 93.8803 205.16C94.5469 204.817 95.85 204.354 96.555 204.203C97.35 204.032 98.1178 204.028 98.9269 203.735C99.9975 203.346 100.819 202.419 101.837 201.92C102.954 201.371 104.178 201.274 105.327 200.829C106.82 200.251 108.084 199.027 109.465 198.156C110.489 197.51 111.87 197.089 112.871 196.365C114.374 195.276 115.723 193.649 117.182 192.411C118.446 191.339 120.16 190.501 121.286 189.251C122.297 188.13 123.157 186.496 124.237 185.337C125.151 184.355 126.434 183.472 127.228 182.409C128.038 181.323 128.682 179.3 129.481 178.146C130.595 176.535 132.069 174.774 133.072 173.067C133.888 171.678 134.225 169.233 135.082 167.632C136.117 165.696 137.542 164.077 138.444 162.076C138.785 161.321 138.847 159.63 139.143 158.631C139.693 156.772 140.927 155.324 141.516 153.665C142.033 152.207 141.942 149.818 142.419 148.077C142.865 146.455 143.349 145.916 143.916 144.558C144.562 143.012 144.196 140.35 144.466 138.375C144.81 135.85 145.932 133.745 146.265 131.402C146.452 130.092 146.048 127.539 146.124 125.936C146.209 124.161 146.841 122.392 146.797 120.838C146.756 119.403 146.158 118.183 146.227 116.427C146.301 114.531 146.992 113.427 147 111.638C147.005 110.714 146.752 109.564 146.55 108.685C147.197 108.736 147.869 108.683 148.526 108.72C149.054 108.749 149.886 109.107 150.316 108.691C150.051 107.609 147.106 107.849 146.669 107.247C146.678 107.052 146.7 106.921 146.591 106.778L146.518 106.677C146.231 105.754 146.705 104.377 146.568 103.289C146.448 102.333 146.201 101.069 146.149 100.139C146.087 99.0562 146.288 98.1948 146.14 97.0276C145.969 95.6774 145.226 93.8588 145.129 92.6248C145.01 91.1139 145.308 90.0644 145.025 88.3931C144.652 86.1993 143.638 84.7496 143.107 82.7853C142.713 81.326 143.116 79.2153 142.515 77.5858C141.464 74.7371 140.013 72.2825 139.411 69.1074C139.352 68.7967 139.369 68.585 139.497 68.337L139.772 68.339C139.881 68.304 139.949 68.295 140.047 68.2246C140.041 67.7564 139.981 67.6745 140.129 67.3386C140.336 67.3965 140.367 67.5255 140.549 67.7673L140.614 67.7635C140.633 67.3817 140.623 67.1475 140.607 66.763C140.823 66.3044 140.839 66.271 140.948 65.7557C141.088 65.6985 141.123 65.7122 141.281 65.7078Z" fill="#1F2A22"/>
<path d="M140.047 68.2246C140.088 68.3023 140.328 69.5358 140.329 69.6446C140.322 69.6497 140.315 69.6548 140.308 69.6599C140.046 69.431 139.893 68.7201 139.772 68.339C139.881 68.3039 139.949 68.295 140.047 68.2246Z" fill="#1F2A22"/>
<path d="M140.948 65.7557C141.088 65.6984 141.123 65.7122 141.281 65.7078C141.323 65.8248 141.677 66.7046 141.31 66.5936C141.329 66.5993 141.01 65.8664 140.948 65.7557Z" fill="white"/>
<path d="M149.537 107.363C148.562 106.888 149.753 106.955 149.993 106.956C149.822 107.125 149.721 107.218 149.537 107.363Z" fill="white"/>
<path d="M146.518 106.677C146.679 106.707 147.117 106.739 147.206 106.88C147.215 106.999 146.756 107.191 146.669 107.247C146.678 107.052 146.7 106.921 146.591 106.778L146.518 106.677Z" fill="white"/>
<path d="M48.5373 196.587C49.5808 196.591 50.6334 196.562 51.6769 196.495C52.2635 196.456 54.7463 195.778 55.0928 196.346L54.9622 196.531C55.1583 196.995 55.5559 196.758 56.0316 196.888C56.5453 197.007 57.0785 196.866 57.4914 196.975C57.9874 197.105 58.7574 197.901 59.2737 198.116C60.5006 198.627 61.447 198.786 62.6142 199.576C63.6625 200.286 65.0444 201.577 66.0852 202.085C67.3688 202.711 69.3177 202.491 70.7253 202.845C72.1141 203.195 73.3558 204.053 74.6849 204.468C75.8849 204.842 77.4705 204.771 78.7358 204.944C80.1396 205.138 81.4885 205.658 82.8649 205.891C85.5107 206.339 87.4756 205.303 89.872 204.529C90.0187 204.495 90.3222 204.361 90.4104 204.577C90.3811 204.694 90.2898 204.707 90.2099 204.739C89.8367 204.979 87.8988 205.886 87.8082 206.153C88.0206 206.206 88.2325 206.264 88.4439 206.324L88.3832 206.444C87.382 206.971 86.7158 207.418 85.7635 208.02C85.3147 208.304 83.9296 208.82 83.3937 209.053C82.1795 209.58 80.5984 210.543 79.3449 210.593C76.7926 210.693 74.2034 209.575 71.7519 208.808C70.1825 208.318 68.5375 209.016 66.8687 208.545C64.3726 207.84 62.3085 205.797 60.0772 204.524C58.3807 203.557 57.0317 203.503 55.1863 201.997C53.9564 200.992 53.2715 199.621 52.3124 198.844C50.8374 197.65 50.1491 198.541 48.5373 196.587Z" fill="#1F2A22"/>
<path d="M54.9622 196.531C55.1583 196.995 55.5559 196.758 56.0316 196.888C56.0152 196.889 55.7047 196.923 55.6614 196.915C55.3171 196.845 54.6515 197.092 54.3799 196.928C54.3704 196.923 54.3686 196.901 54.3734 196.885C54.4048 196.783 54.5651 196.711 54.6307 196.68L54.9622 196.531Z" fill="white"/>
<path d="M89.872 204.529C90.0186 204.495 90.3222 204.361 90.4103 204.577C90.3811 204.694 90.2898 204.707 90.2099 204.739C90.0956 204.671 89.9851 204.601 89.872 204.529Z" fill="#1F2A22"/>
<path d="M27.314 35.947C27.6338 35.9741 28.0373 35.9072 28.1558 36.3446C28.4728 36.7133 29.0549 36.8573 29.1532 37.1414C29.5888 38.4017 28.0518 38.7077 27.8741 37.3012C27.7982 36.1372 27.9851 36.7385 27.3112 36.2472L27.314 35.947Z" fill="#1F2A22"/>
<path d="M27.314 35.947C27.6338 35.9741 28.0373 35.9072 28.1558 36.3446C27.8304 36.6279 27.9332 36.7812 27.8741 37.3012C27.7982 36.1372 27.9851 36.7385 27.3112 36.2472L27.314 35.947Z" fill="#1F2A22"/>
<path d="M143.797 210.684C144.267 210.674 145.673 210.578 144.882 211.756C144.428 211.772 142.826 211.794 143.797 210.684Z" fill="#1F2A22"/>
<path d="M82.5345 210.465C82.6181 210.512 82.6339 210.528 82.7141 210.593C83.3295 211.817 82.3998 211.431 81.6718 211.299C81.6299 211.217 81.5877 211.136 81.5452 211.056C81.8769 210.865 82.2067 210.668 82.5345 210.465Z" fill="#1F2A22"/>
<path d="M93.4425 220.341C93.9075 220.342 94.3921 220.347 94.0584 221.133C93.6995 221.124 93.283 221.175 93.4193 220.468L93.4425 220.341Z" fill="#1F2A22"/>
<path d="M15.1605 36.4613C15.2128 36.3607 15.3017 36.3067 15.3924 36.3203C15.483 36.334 15.5608 36.4131 15.5953 36.5267C15.6298 36.6403 15.6154 36.7701 15.5578 36.8651C15.4731 37.005 15.3214 37.0295 15.2144 36.9208C15.1075 36.8121 15.0837 36.609 15.1605 36.4613Z" fill="#1F2A22"/>
<path d="M83.0823 210.139C83.1638 210.284 83.2159 210.384 83.2898 210.536L83.1894 210.515C83.0299 210.476 82.8695 210.552 82.7141 210.593C82.6339 210.528 82.6181 210.512 82.5345 210.465C82.7153 210.351 82.898 210.242 83.0823 210.139Z" fill="#1F2A22"/>
<path d="M81.5451 211.056C81.5877 211.136 81.6299 211.217 81.6718 211.299C81.6078 211.317 81.0169 211.583 81.0378 211.284C81.1035 211.161 81.4439 211.091 81.5451 211.056Z" fill="#1F2A22"/>
<path d="M27.3111 36.2472C26.8812 36.0898 26.6702 35.7669 27.314 35.947L27.3111 36.2472Z" fill="#1F2A22"/>
<path d="M25.5042 35.0868C25.5272 35.0979 25.5503 35.109 25.5733 35.1201C25.5149 35.0998 25.536 35.1123 25.5042 35.0868Z" fill="#1F2A22"/>
</svg>
