<svg width="232" height="232" viewBox="0 0 232 232" fill="none" xmlns="http://www.w3.org/2000/svg">
<path d="M114.206 10.8245C115.993 11.0812 117.56 10.9835 119.167 11.7066C119.355 11.6347 119.545 11.569 119.738 11.5096C120.335 11.324 121.243 11.3194 121.822 11.6353L121.857 11.8282C121.556 12.0762 121.438 12.0721 121.07 12.1301L121.048 12.2546C122.252 13.0922 123.448 13.6841 121.884 15.0071C118.42 14.4963 110.403 14.473 107.099 15.1748C106.293 15.346 105.507 15.7069 104.719 15.9512C103.895 16.2066 103.042 16.3767 102.227 16.6596C101.355 16.9619 100.52 17.366 99.6501 17.6723C98.6625 18.0199 97.6634 18.2981 96.6951 18.7041C94.9711 19.4267 92.0093 20.833 90.5162 21.8712C89.6116 22.5002 88.8408 23.2965 87.9208 23.9089C86.2791 25.0014 83.9883 26.4127 82.5743 27.719C82.0668 28.1878 81.695 28.7936 81.1918 29.2667C80.6973 29.7318 80.1184 30.1072 79.6234 30.5771C77.4438 32.6465 75.2321 34.9058 73.3115 37.2233C72.5666 38.1223 71.9175 39.0954 71.2007 40.0162C70.3973 41.0482 69.4462 41.9583 68.6675 43.0113C66.248 46.2824 63.9518 50.5663 62.0731 54.1933C60.6594 56.9229 59.2296 59.6063 58.0165 62.4406C57.2764 64.17 56.8975 66.0389 56.1775 67.778C55.6 69.1729 54.8519 70.5038 54.295 71.9053C53.4633 73.9976 53.051 76.3552 52.5072 78.5393C52.0518 80.3688 51.4175 82.1491 50.9711 83.9858C50.6014 85.5065 50.414 87.0698 50.0934 88.6027C49.6881 90.5396 49.1559 92.4851 48.8498 94.4381C48.6831 95.5015 48.7189 96.5893 48.5564 97.6546C48.3319 99.1256 47.9966 100.576 47.785 102.053C47.2378 106.135 46.8898 110.241 46.7426 114.357C46.5142 121.779 47.043 129.7 47.5598 137.123C47.5929 137.597 47.7836 138.359 47.8835 138.855C49.1536 145.163 50.124 151.55 51.4827 157.837C51.8982 159.749 53.0224 161.849 53.7005 163.714L56.4369 171.048C57.6547 174.383 58.5805 177.117 60.308 180.243C61.7301 182.816 62.9232 185.196 64.6945 187.591C65.6145 188.835 66.3189 190.52 67.2852 191.77C68.4192 193.371 69.619 194.909 70.8873 196.407C72.9733 199.11 75.0375 201.587 77.5505 203.919C78.518 204.817 80.006 205.704 81.1431 206.645C82.9303 208.123 85.0282 209.805 86.8618 211.178C87.5542 211.696 89.8916 212.758 90.8062 213.321C93.4403 214.963 95.7739 216.089 98.6666 217.282C104.311 219.642 110.343 219.846 116.36 220.025C117.926 220.072 120.235 219.143 121.926 219.284C122.046 219.293 123.636 219.213 123.759 219.175C125.67 218.457 128.149 218.063 129.988 217.257C133.024 215.927 136.09 214.539 139.127 213.2C139.701 212.947 140.078 212.157 140.78 211.88C143.022 211.003 144.911 209.503 146.843 208.144C148.17 207.212 148.087 204.799 147.058 205.415C144.796 206.768 142.617 208.693 140.343 210.078C139.869 210.336 139.036 210.459 138.613 210.737C136.389 212.205 134.522 213.172 132.047 214.128C128.753 215.402 125.671 216.933 122.105 217.416C120.391 217.648 118.638 217.574 116.915 217.606C115.943 217.629 114.931 217.761 113.972 217.761C112.486 217.76 110.974 217.741 109.491 217.663C108.048 217.507 106.393 217.136 104.906 216.963C103.961 216.853 102.759 216.635 101.831 216.42C101.326 216.251 100.841 215.738 100.357 215.562C98.3263 214.823 96.314 214.14 94.3574 213.212C93.51 212.81 90.8189 212.414 90.3674 211.635C88.2808 208.033 90.1744 202.205 90.8262 198.309C90.898 197.935 91.2295 197.5 91.3264 197.159C92.1568 194.247 93.6784 191.538 94.7133 188.683C95.0473 187.761 97.0299 186.146 97.0086 185.036C96.7977 184.786 96.9314 184.865 96.5775 184.824C96.205 184.964 95.5142 185.476 95.2235 185.829C93.3424 188.114 91.7945 191.684 90.4102 194.351C90.0566 195.15 89.9788 196.457 89.6943 197.216C88.2341 201.095 87.8417 204.429 88.2876 208.508C88.3286 208.883 87.9994 209.825 87.4651 209.52C86.0786 208.728 84.7822 207.448 83.5105 206.438C81.8079 205.087 80.1877 203.593 78.5483 202.167C77.8827 201.663 76.8983 200.177 76.2791 199.762C74.6775 198.689 73.9849 197.171 72.8659 195.95C69.0701 191.81 65.9082 186.782 63.4642 181.734C63.0841 180.949 62.3473 180.104 61.9413 179.305C61.5264 178.242 57.8715 170.113 58.1389 169.576C59.4847 166.873 59.0837 167.008 58.4053 162.926C57.7111 158.747 56.8919 153.186 57.1857 148.866C57.086 145.876 57.7499 142.874 57.9323 139.941C58.3471 133.272 59.474 126.803 61.0038 120.301C61.5953 117.786 61.6458 115.668 62.9604 113.299C63.3154 112.659 63.5139 110.508 63.8585 109.744C64.3965 108.369 64.7683 106.765 65.2935 105.368C66.296 103.318 66.6692 101.678 67.2449 99.4856C67.8804 97.0662 69.4937 94.7097 70.6864 92.5399C71.2553 91.3276 71.4993 89.8792 72.1665 88.7146C75.1927 83.4323 78.4668 77.9513 82.3852 73.295C82.88 72.7069 83.5073 71.5913 84.0092 71.1239C85.7578 69.4956 87.1561 67.86 88.5248 65.9073C88.9677 65.4236 89.6429 64.948 90.0799 64.4758C91.8731 62.3511 94.0028 60.8531 96.0904 59.1097C97.7098 57.7574 98.5597 57.1332 100.28 55.9707C102.367 54.561 104.258 52.8539 106.516 51.5962C108.045 50.7446 109.54 49.3687 111.072 48.4799C111.756 48.0657 113.554 47.3423 114.444 46.8817C114.982 45.4831 114.93 44.5991 115.239 43.2227C116.132 39.2033 117.016 35.1138 119.28 31.6048C119.713 30.9344 122.379 27.8196 123.004 27.5412C124.381 26.9276 128.36 24.0677 129.504 24.3007L129.615 24.568C129.523 25.7701 127.726 28.3002 127.223 29.8048C126.019 33.4071 126.801 37.6384 124.747 40.876C124.114 41.8742 120.566 46.1689 119.724 46.3246C119.506 45.6829 120.058 43.8947 120.183 43.0949C120.519 40.9568 120.417 38.8002 120.677 36.671C120.802 35.648 121.361 34.774 121.782 33.9028C122.391 32.6431 125.476 29.8863 125.561 28.7084L125.402 28.5729C123.979 28.4137 122.99 30.3331 122.249 31.3261C121.694 32.0695 120.743 32.8788 120.293 33.6452C118.513 36.7707 119.27 40.139 118.461 43.5233C118.058 45.2085 118.229 46.7673 117.266 48.4454C117.039 48.8417 116.82 50.0549 116.722 50.5459C115.954 51.3538 115.455 51.584 114.551 52.1561C114.359 52.277 114.387 52.4116 114.375 52.5838C115.651 53.6656 117.549 50.5515 118.346 49.7975C120.232 48.0131 122.477 46.4483 123.984 44.3195C124.341 43.8149 124.786 43.3158 125.199 42.8554C125.497 43.3154 126.199 44.4722 126.271 44.9287C126.914 48.9824 127.072 51.1032 130.554 53.7488C133.814 56.2256 136.637 55.7296 140.498 56.4535C142.405 56.811 145.132 57.8627 146.109 59.6963C146.652 60.7192 146.875 61.4968 147.545 62.5177L147.654 62.6828C149.012 63.0021 153.297 64.0483 153.02 66.0736C152.83 66.4701 152.597 66.5423 152.209 66.7614C150.853 69.9002 151.913 70.2693 151.795 73.3347L151.786 73.5479C154.036 77.268 156.965 80.7222 159.485 84.2586C162.519 88.5153 165.441 92.7925 169.726 95.9209C171.301 97.0712 174.251 99.0017 175.065 100.805C174.9 101.071 174.439 101.861 174.385 102.151C174.127 103.705 174.221 107.426 174.722 108.819C176.015 112.414 176.648 113.878 174.162 117.187C173.753 117.732 173.086 120.351 172.72 121.278C171.501 124.364 169.323 123.839 166.797 122.9C164.494 123.424 160.723 123.482 158.372 122.934C156.905 122.563 154.918 120.257 154.234 118.957C152.768 116.168 152.974 115.178 149.587 114.251C148.982 114.526 148.213 115.05 147.63 115.422C144.65 115.249 144.235 113.783 141.479 112.75C139.171 111.897 137.601 112.315 135.297 111.152C133.735 110.363 133.038 109.088 131.839 108.528C131.104 108.241 127.326 106.635 127.053 106.166C127.078 106.038 127.102 105.911 127.127 105.784C129.301 103.929 132.373 102.623 133.144 99.5269C133.267 99.0323 133.355 98.7015 133.053 98.2158C132.41 98.0517 130.586 100.479 130.036 101.113C127.325 104.235 123.838 105.139 119.911 105.827C119.154 105.96 115.338 105.236 114.481 104.838C112.538 103.937 109.662 102.305 108.163 100.693C106.187 97.805 103.528 92.2366 103.339 88.7749C103.074 83.8966 103.52 79.3016 104.569 74.6143C104.949 72.9183 105.958 71.0858 106.58 69.5445L106.431 69.3327L106.152 69.2853C102.452 70.5729 100.578 86.0498 101.363 89.84C102.23 94.0314 103.667 98.1705 106.708 101.392C107.894 102.648 108.564 103.945 110.106 104.867C111.755 106.103 113.986 106.737 115.449 107.879L115.577 107.982C114.663 110.304 113.059 112.933 112.266 115.316C110.473 120.701 108.535 127.489 108.265 133.149C108.022 138.257 108.31 143.878 108.966 148.924C109.072 149.573 110.084 153.111 110.705 153.084C111.08 152.67 111.058 152.26 111.029 151.722C110.932 149.935 110.345 148.13 110.121 146.337C109.956 145.015 110.015 137.426 110.46 136.364C110.566 136.112 110.591 136.071 110.831 135.968C111.766 136.232 113.923 138.965 114.876 139.652C117.4 141.469 119.571 143.479 121.559 145.873C122.112 146.54 122.629 147.475 123.197 148.105C125.176 150.299 126.355 152.655 127.55 155.319C129.523 159.238 130.714 163.012 130.817 167.422C130.861 169.31 130.775 171.224 130.957 173.092C130.986 173.369 131.129 173.522 131.345 173.654C131.653 173.499 131.928 172.98 131.976 172.671C132.551 168.959 132.738 164.87 131.913 161.175C131.35 158.655 129.994 155.753 128.862 153.446L128.91 153.327C129.364 153.614 130.589 155.242 131.037 155.731C136.797 162.01 146.733 165.933 155.222 164.813C156.276 164.674 157.476 164.679 158.552 164.516C162.764 163.877 167.137 163.139 171.379 163.938C172.078 164.07 173.137 163.922 173.756 164.272C174.062 165.554 169.938 172.659 169.466 174.356C168.85 176.652 167.239 180.228 165.748 182.058C163.453 184.874 162.452 187.813 160.589 190.772C159.962 191.768 157.722 192.894 157.021 194.861C156.745 195.638 153.648 197.587 154.198 199.232L154.444 199.323C154.706 199.137 154.663 198.844 154.743 198.412C154.983 198.154 154.836 198.231 155.215 198.202C155.496 198.503 155.394 198.759 155.494 199.304L155.696 199.427C157.112 199.187 158.225 196.843 159.117 196.073C161.411 194.093 162.066 192.033 163.594 189.575C164.969 187.363 166.826 185.388 168.104 183.022C169.177 181.033 169.752 179.067 170.653 177.046L174.037 169.357C174.477 168.382 175.225 167.22 175.566 166.25C176.178 164.508 176.318 162.523 176.847 160.731L178.857 153.778C179.251 152.428 179.711 151.178 180.068 149.803C180.514 148.157 180.598 146.44 180.932 144.776C181.539 141.743 182.297 138.577 182.708 135.52C183.356 130.701 183.693 125.828 184.069 120.983C184.18 119.549 183.898 117.867 183.971 116.409C184.06 114.102 184.302 111.736 184.181 109.426C184.107 108.032 183.911 106.548 183.781 105.146C183.334 100.068 182.671 95.0106 181.791 89.9888C181.498 88.2769 181.105 86.5689 180.839 84.835C180.71 83.9983 180.455 83.2799 180.351 82.3507L180.43 82.3476L180.886 83.046C181.084 82.9255 181.089 82.7042 181.185 82.4139C181.224 82.7191 181.198 82.624 181.315 82.8963C182.007 83.2436 182.296 82.3312 182.94 82.7683C183.194 83.7636 183.034 84.9195 183.187 85.8815C183.463 87.2316 183.483 88.8087 183.745 90.1263C185.785 100.394 186.793 110.705 186.271 121.179C186.112 124.365 185.685 127.751 185.313 130.976C184.653 137.196 183.623 143.372 182.229 149.47C181.882 150.961 181.321 152.392 180.956 153.862C180.556 155.476 180.383 157.303 179.881 158.893C179.289 160.769 178.607 162.64 177.969 164.51C177.288 166.509 176.79 168.647 176.13 170.604C175.553 172.317 173.85 174.525 173.263 176.183C172.11 179.438 170.863 182.524 169.41 185.66C169.011 186.521 167.245 187.912 166.76 188.664C165.947 189.926 165.052 191.354 164.311 192.664C163.862 193.458 163.536 194.422 163.007 195.197C162.301 196.233 161.257 196.898 160.455 197.841C160.447 197.947 160.39 198.575 160.346 198.614C159.199 199.623 158.561 200.563 157.965 201.957C154.48 202.382 154.861 204.602 152.511 206.384C151.985 208.263 151.609 208.416 150.317 209.859C147.595 210.253 146.783 211.638 144.693 213.197C143.855 213.762 142.783 214.184 141.968 214.768C140.579 215.763 139.274 216.714 137.754 217.515C137.069 217.983 135.502 218.124 134.856 218.506C131.723 220.362 128.936 221.473 125.321 222.122C123.817 222.393 122.083 223.246 120.413 223.31C113.441 223.576 105.923 224.086 99.4467 220.988C98.5139 220.544 96.461 220.43 95.6656 219.971C92.6373 218.227 89.4152 216.915 86.3586 215.196C84.9129 214.382 83.8709 213.379 82.5548 212.451C80.2441 210.821 77.7576 209.293 75.8538 207.173C72.2879 203.542 68.7373 199.805 65.5667 195.822C64.8093 194.831 64.1675 193.719 63.4346 192.715C62.2524 191.097 61.4483 189.385 60.4516 187.663C54.2916 176.971 49.7187 165.441 46.8765 153.434C46.5951 152.192 46.5498 150.79 46.2808 149.498C45.827 147.364 45.2384 145.259 44.7817 143.127C44.6598 142.558 44.6351 141.933 44.5696 141.354C44.4405 140.693 44.4921 139.763 44.3444 139.13C43.797 136.777 43.952 134.538 43.763 132.206L43.2542 125.791C43.1602 124.707 42.8251 122.603 42.9057 121.552C43.2082 117.612 43.2082 113.706 43.2379 109.755C43.2485 108.348 43.7399 106.583 43.713 105.347C43.6312 101.579 44.4801 98.3413 45.0989 94.685C45.5866 90.7712 46.1474 87.1738 47.0897 83.3401C49.3845 74.0042 52.1005 64.7674 56.7201 56.2822C57.173 55.569 57.5154 53.6473 57.9613 53.0372C59.5814 50.8196 60.6 48.5657 61.8661 46.1703C63.1296 43.7791 65.0069 41.5461 66.6121 39.3868C67.3505 38.3933 68.0331 37.2926 68.8045 36.3411C75.6664 28.0392 84.0556 21.1289 93.5182 15.9841C94.1723 15.6355 95.9492 15.1206 96.7227 14.7974C99.1641 13.777 101.5 12.9013 104.071 12.2246C104.909 12.0039 105.906 11.9938 106.719 11.8249C109.294 11.2896 111.609 11.0938 114.206 10.8245Z" fill="#1F2A22"/>
<path d="M100.467 96.5741C101.066 96.6604 101.887 97.0834 102.136 97.617C102.712 98.8544 101.808 99.2548 101.006 99.6293C100.43 101.33 97.9297 104.59 96.9738 106.303C95.9092 108.21 94.9889 109.971 94.0276 111.94C93.1918 113.653 92.1222 115.261 91.4985 117.129C90.8954 118.586 90.1724 119.662 89.6755 121.264C88.3352 125.492 87.5819 129.768 86.844 134.128C86.6527 135.258 85.7542 136.193 85.9178 137.768C85.9635 138.208 85.5476 139.723 85.5351 140.342C85.5192 141.126 85.7619 142.575 85.2381 143.093C84.7643 143.157 84.5514 142.924 84.263 142.602C83.8542 141.107 85.5512 141.267 84.0828 139.007C84.0647 138.518 84.2385 137.789 84.2906 137.252C84.4114 136.003 84.3257 134.736 84.6624 133.532C84.4043 132.886 84.0117 132.148 83.6952 131.517C83.728 131.204 83.7224 130.104 83.7942 129.998C84.3413 129.189 84.7893 127.628 85.2258 126.854C86.4375 124.706 85.6593 124.383 85.0183 122.296C85.4787 121.301 85.6833 120.754 86.5712 120.06C87.4477 119.375 87.3655 119.164 87.3392 118.168C87.8069 117.433 87.4421 118.218 88.0644 117.68C88.3313 116.986 88.2727 116.225 88.306 115.448C87.7504 114.568 87.9802 114.483 88.1909 113.501C88.2468 113.241 88.4741 113.173 88.6694 113.092C89.1918 113.13 89.6486 113.376 90.1382 113.586C90.3265 113.101 90.5011 112.529 90.667 112.03L91.6774 111.373C91.6355 110.737 91.5501 110.031 91.4851 109.391C91.7481 109.075 91.7923 109.02 91.9949 108.666C91.9518 108.341 91.9008 108.014 91.9973 107.693C92.1849 107.07 94.9268 104.468 95.5392 104.217C95.7562 103.367 95.7973 103.036 95.7238 102.163C96.1863 102.017 97.3662 101.647 97.5209 101.183C96.5977 100.747 97.0023 100.485 96.082 100.07C96.1369 99.5656 97.5558 98.7894 98.0819 98.8395C98.3191 99.2004 98.1304 99.3923 98.202 100.009C98.5226 100.177 98.3576 100.151 98.7136 100.092C98.9351 99.613 98.5112 99.734 98.676 99.0896C99.0851 98.7233 99.7965 98.4818 100.325 98.2597C100.241 97.5404 100.164 97.2248 100.467 96.5741Z" fill="white"/>
<path d="M93.6326 79.3551C94.049 79.3895 94.0604 79.3993 94.301 79.6838C94.3889 80.555 89.0653 86.0414 88.1697 87.1054C85.3452 90.4617 83.6041 94.1721 81.4377 97.9391C80.9632 98.7643 80.2115 99.3003 79.673 100.057C78.5161 103.092 77.4975 106.238 76.0579 109.149C75.4048 110.486 74.7264 111.717 74.3526 113.166C73.7814 115.38 72.599 117.372 71.9572 119.555C71.3171 120.118 71.0228 120.762 70.4378 120.831C70.0735 120.227 70.1952 119.539 70.226 118.827C70.1179 118.711 69.9806 118.563 69.8746 118.438C68.5413 116.868 70.6898 114.481 71.2163 112.947C71.7229 111.471 72.261 110.102 72.7669 108.633C73.0148 108.095 73.1824 107.279 73.4697 106.771C74.6906 104.612 75.6522 102.371 76.6742 100.141C77.3115 98.7509 78.5916 97.2964 79.317 95.881C80.2185 94.1215 81.2365 92.3743 82.3104 90.7229C82.6765 90.1914 83.9824 89.5522 84.3075 89.153C85.1397 88.0633 85.499 87.2374 86.6296 86.3998C87.5589 85.7111 88.5332 84.3422 89.3497 83.431C90.666 81.9601 92.0981 80.5969 93.6326 79.3551Z" fill="white"/>
<path d="M141.296 71.5441C143.387 71.7555 145.124 74.7038 146.565 75.9279C148.399 77.4866 149.715 79.5284 151.284 81.1794C153.504 83.5136 154.495 84.8857 156.091 87.6779C157.559 90.246 159.519 92.7823 160.824 95.4653C161.057 95.9306 160.802 96.543 160.617 96.9644C158.665 97.5247 158.37 94.2591 157.505 93.4353C153.456 89.5819 149.878 85.1238 146.752 80.4931C145.534 78.6883 144.054 77.0433 143.034 75.0656C142.437 73.9079 141.135 72.9094 141.296 71.5441Z" fill="white"/>
<path d="M70.4193 122.315C71.1921 123.082 70.0703 125.14 69.9251 126.01C69.6029 127.941 69.2713 130.092 68.9824 132.03C68.8009 133.249 68.6219 134.961 68.5363 136.165C68.3197 139.212 68.4198 142.329 68.1892 145.392C68.1527 146.182 68.4858 147.228 68.469 147.982C68.4087 150.692 68.7885 153.09 69.1824 155.752C69.4783 157.752 69.4131 160.056 70.0194 162.047C70.6941 164.262 70.8663 166.313 71.1467 168.587C71.2822 169.804 72.7574 173.506 72.4508 174.399C72.1087 174.786 72.3124 174.638 71.7888 174.819C69.7063 170.715 68.8793 163.258 67.8371 158.636C65.4621 148.1 67.3677 136.547 68.679 125.974C68.8603 124.513 69.2121 123.22 70.4193 122.315Z" fill="white"/>
<path d="M162.456 101.972C164.533 101.765 164.86 102.583 164.823 104.516C164.804 105.652 164.746 106.714 165.302 107.756C166.327 109.678 168.212 110.587 166.272 112.774C165.128 114.064 164.869 114.404 163.062 114.574C162.999 114.553 162.936 114.531 162.873 114.51C159.448 112.82 157.453 109.528 159.209 105.76C159.932 104.209 160.783 102.65 162.456 101.972Z" fill="white"/>
<path d="M162.529 103.805C162.884 104.004 162.777 103.863 162.903 104.205C161.508 108.183 164.392 107.682 164.942 110.843C165.108 111.798 163.697 112.818 162.627 112.79C161.41 111.951 159.981 110.291 159.851 108.792C159.697 107.014 161.48 105.106 162.529 103.805Z" fill="#1F2A22"/>
<path d="M123.176 63.6663C127.644 63.3204 129.543 66.4646 131.512 69.7133C131.932 70.4057 133.153 71.0174 133.213 71.8935C133.059 72.2644 133.175 72.1058 132.815 72.3548C131 72.5949 128.925 68.7139 128.209 67.3872C127.789 66.7793 126.175 65.4791 125.532 65.0728C124.771 65.1784 123.904 65.3497 123.192 65.6198C121.834 66.1341 117.844 68.5223 116.51 68.1545L116.418 67.9792C117.174 65.9687 121.364 64.5529 123.176 63.6663Z" fill="white"/>
<path d="M127.46 82.766C129.894 82.7524 134.745 87.6398 136.604 89.303C137.213 89.8484 139.361 91.6094 139.686 92.2633C139.709 92.6557 139.652 92.7287 139.503 93.0841C136.802 93.0463 133.475 90.1936 131.852 88.2176C130.438 86.4955 129.198 84.9745 127.424 83.5125C127.248 83.368 127.407 82.9745 127.46 82.766Z" fill="white"/>
<path d="M123.671 67.405C124.808 67.3876 126.85 68.2667 127.525 69.174C127.74 70.315 125.837 71.3973 124.877 71.5894C124.423 71.6098 123.886 71.6608 123.451 71.5455C121.741 71.0926 118.794 69.3141 121.959 68.1167C122.488 67.9164 123.132 67.6275 123.671 67.405Z" fill="white"/>
<path d="M123.063 58.7075C123.764 58.6849 125.203 58.6262 125.4 59.4713C124.992 60.5092 123.641 60.1186 122.58 60.3531C120.228 60.873 117.631 63.819 115.625 65.3957C115.544 65.4702 115.462 65.5436 115.379 65.6161C115.006 65.9412 114.793 66.1329 114.286 66.0996L114.133 65.9193C114.059 63.9271 117.523 61.4401 119.024 60.441C120.639 59.3659 121.164 59.0802 123.063 58.7075Z" fill="white"/>
<path d="M120.056 70.709C120.63 70.8765 122.015 72.5406 123.199 73.0963C125.342 74.1014 127.455 72.1357 128.288 72.4973C128.384 72.8899 128.342 72.7959 128.22 73.2404C127.134 74.3492 125.03 74.6687 123.576 74.2504C122.266 73.8737 120.739 73.0198 120.091 71.7759C119.822 71.2594 119.901 71.2222 120.056 70.709Z" fill="white"/>
<path d="M143.835 97.8451C145.38 97.9534 147.301 99.2693 148.648 100.06C149.589 100.613 152.153 101.487 152.094 102.635C150.263 102.5 146.26 99.8248 144.492 98.8517C144.051 98.6086 143.903 98.3284 143.835 97.8451Z" fill="white"/>
<path d="M152.764 201.7C153.039 201.728 152.91 201.684 153.149 201.835C153.224 202.329 152.552 203.062 152.172 203.303C151.796 203.278 151.89 203.244 151.552 203.342C151.219 204.106 151.165 204.306 150.556 204.887C150.293 204.354 150.197 204.01 149.689 203.767C149.312 203.952 149.246 203.98 148.843 204.098L148.74 203.983C148.948 203.448 150.297 202.662 150.853 202.287C151.197 202.302 151.192 202.42 151.524 202.738C151.872 202.725 152.206 202.162 152.678 201.77L152.764 201.7Z" fill="white"/>
<path d="M139.188 107.532C138.961 107.631 139.057 107.606 138.792 107.579L138.609 107.285C138.383 107.536 138.522 107.48 138.205 107.505C137.422 106.986 138.18 105.729 138.776 105.553L138.939 105.653C139.009 106.269 138.59 106.536 138.582 107.162C138.947 107.011 139.062 106.061 139.547 105.674C139.794 105.86 139.684 105.751 139.78 106.159L139.917 106.353C140.269 106.033 140.08 106.088 140.463 106.066C140.66 106.394 140.615 106.587 140.608 106.972C140.222 107.218 140.144 107.405 139.897 107.792L139.675 107.885C139.405 107.721 139.486 107.804 139.307 107.553L139.188 107.532Z" fill="white"/>
<path d="M139.917 106.353C140.269 106.033 140.08 106.088 140.463 106.066C140.66 106.394 140.615 106.587 140.608 106.972C140.222 107.218 140.144 107.405 139.897 107.792L139.675 107.885C139.405 107.721 139.486 107.804 139.307 107.553C139.661 107.038 139.73 106.944 139.917 106.353Z" fill="white"/>
<path d="M139.78 106.159L139.917 106.353C139.73 106.944 139.661 107.038 139.307 107.553L139.188 107.532L139.78 106.159Z" fill="#1F2A22"/>
<path d="M143.064 109.43C142.726 109.326 142.739 109.334 142.45 109.132C142.576 108.737 142.997 107.576 143.355 107.369L143.73 107.556C143.777 107.846 143.737 107.749 143.878 108L144.089 107.746L144.278 107.747C144.351 107.956 144.42 108.167 144.484 108.379L144.888 108.098L145.008 108.163C145.068 108.465 145.071 108.495 145.068 108.803C144.956 109.053 144.885 109.241 144.738 109.475C144.463 109.693 144.477 109.672 144.126 109.728L144.06 109.624L144.094 109.528C144.187 109.256 144.25 109.162 144.171 108.887L144.027 108.897C143.976 109.113 143.915 109.317 143.833 109.523C143.446 109.655 143.652 109.64 143.191 109.457L143.064 109.43Z" fill="white"/>
<path d="M143.064 109.43C142.726 109.326 142.739 109.334 142.45 109.132C142.576 108.737 142.997 107.576 143.355 107.369L143.73 107.556C143.777 107.846 143.737 107.749 143.878 108C143.626 108.747 143.469 108.847 143.191 109.457L143.064 109.43Z" fill="white"/>
<path d="M143.73 107.556C143.777 107.846 143.737 107.749 143.878 108C143.626 108.747 143.469 108.847 143.191 109.457L143.064 109.43C143.173 109.016 143.567 108.057 143.73 107.556Z" fill="#1F2A22"/>
<path d="M136.479 105.599C136.676 105.28 136.813 104.996 137.104 104.765C137.376 105.069 137.013 105.294 137.26 105.64C137.601 105.339 137.764 105.003 138.045 104.975C138.299 105.586 137.853 106.736 137.216 107.033L136.969 106.957C136.897 106.648 136.926 106.648 137.015 106.335C136.703 106.587 136.687 106.702 136.393 106.682C136.257 106.288 136.339 106.092 136.419 105.682L136.479 105.599Z" fill="white"/>
<path d="M141.762 106.688C142.154 107.062 142.108 107.04 142.162 107.606L143.168 106.864C142.906 107.595 142.478 108.477 142.149 109.201C141.913 108.937 141.923 108.958 141.805 108.625C141.888 108.317 141.965 108.19 141.869 107.895C141.705 108.246 141.683 108.305 141.449 108.633L141.248 108.63L141.052 108.355C141.146 107.795 141.498 107.209 141.762 106.688Z" fill="white"/>
<path d="M133.906 105.161C133.334 104.957 133.272 105.04 132.919 104.635C132.748 104.013 133.025 103.08 133.717 103.306L133.695 103.8C133.894 103.698 133.817 103.744 134.004 103.621L134.135 103.534L134.347 103.592C134.579 103.965 134.549 103.773 134.464 104.183C134.204 104.578 134.102 104.735 133.906 105.161Z" fill="white"/>
<path d="M145.068 108.803L145.306 108.485C145.871 108.459 146.163 108.866 146.166 109.405C145.872 109.929 145.408 110.034 144.877 109.828C144.778 109.643 144.756 109.664 144.738 109.475C144.885 109.241 144.956 109.053 145.068 108.803Z" fill="white"/>
<path d="M134.464 104.183L134.918 104.101C135.125 104.25 135.11 104.238 135.191 104.482C135.051 104.816 134.888 105.16 134.798 105.506L134.574 105.672C134.152 105.547 134.254 105.543 133.906 105.161C134.102 104.735 134.204 104.578 134.464 104.183Z" fill="white"/>
<path d="M140.608 106.972C140.903 106.553 140.787 106.58 141.183 106.441C141.593 106.731 141.321 107.104 141.135 107.48C140.876 107.938 140.842 108.133 140.392 108.343C140.049 107.656 140.43 107.523 140.608 106.972Z" fill="white"/>
<path d="M135.54 104.474C135.953 104.682 135.783 104.529 136.006 105.006L135.848 105.17C135.456 105.583 135.506 105.779 135.102 105.913C134.97 105.753 134.978 105.8 134.915 105.617L134.798 105.506C134.888 105.16 135.05 104.816 135.191 104.482L135.54 104.474Z" fill="white"/>
<path d="M135.191 104.482L135.54 104.474L134.915 105.617L134.798 105.506C134.888 105.16 135.05 104.816 135.191 104.482Z" fill="#1F2A22"/>
<path d="M136.006 105.006L136.424 104.772L136.576 104.842C136.548 105.116 136.528 105.326 136.48 105.599L136.419 105.682C136.222 105.975 136.196 106.08 135.881 106.229L135.731 106.143C135.665 105.688 135.823 105.453 136.006 105.006Z" fill="white"/>
<path d="M112.87 44.1697C113.217 44.1614 113.377 44.2289 113.532 44.5288C113.529 44.8261 113.511 45.0175 113.336 45.2686C112.493 46.4845 106.965 49.2277 105.286 50.2491C102.84 51.7537 100.498 53.4216 98.2767 55.2414C97.6378 55.7756 96.9869 56.5466 96.3498 57.0222C94.903 58.1017 93.6 59.1399 92.3247 60.4204C91.7334 60.9984 90.8636 61.4923 90.3092 62.0892C88.4711 64.069 86.4452 65.8799 84.6078 67.8448C83.8105 68.6972 83.2146 69.7586 82.4851 70.6395C81.2784 72.0967 80.0713 73.4371 79.0522 75.0425C78.5449 75.7863 77.5972 76.551 77.1545 77.3052C75.611 79.9614 73.7722 82.4445 72.189 85.0636C71.7016 85.8699 72.2141 87.0297 70.908 87.5762C70.5362 87.5574 70.3246 87.3226 70.018 87.0843C69.5867 87.189 68.9421 87.3129 68.5703 87.515C68.6913 88.0359 68.5592 88.6811 68.0605 88.9525C68.9321 89.5754 68.7414 89.7833 69.7278 90.3722L68.3059 91.8328C68.3861 93.5103 67.3958 94.7607 66.828 96.27C66.19 97.9654 65.6558 99.7007 64.9317 101.365C61.3128 103.294 59.167 107.482 57.7689 111.179C57.4232 111.826 57.1182 112.443 56.6787 113.031C56.688 112.689 57.0004 111.875 57.1463 111.53C58.2418 108.94 57.7116 105.908 58.7388 103.333C59.4169 101.634 60.6295 100.196 61.4202 98.4854C62.5061 96.1364 64.4607 94.0851 65.4079 91.6606C65.5081 91.4039 65.492 90.5657 65.4913 90.265C66.1814 89.3069 66.7469 89.2092 67.1244 88.7072C67.6697 87.9817 68.368 85.8473 68.8123 84.9813C70.3556 81.974 72.3557 79.1786 74.1902 76.3412C74.8739 75.2838 75.2668 74.3134 75.8751 73.3413C76.2281 72.7769 77.1951 71.6919 77.6423 71.084C78.0508 70.5285 78.8689 69.2038 79.2312 68.8104C80.7748 67.1362 82.0718 65.3998 83.6526 63.7699C84.3545 62.9504 84.9551 62.0983 85.7018 61.3144C87.2653 59.6721 89.1959 58.5102 90.7929 56.9132C91.1944 56.5725 91.6239 56.0622 92.0494 55.7668C93.5826 54.7022 95.1588 53.3917 96.7254 52.3971C98.6798 51.1562 100.995 50.2031 103.066 49.155C103.502 48.9522 104.238 48.1674 104.632 48.0107C106.574 47.2381 107.974 47.0403 109.596 45.5953C109.957 45.2731 112.305 44.3909 112.87 44.1697Z" fill="#1F2A22"/>
<path d="M64.5647 102.605L64.6936 102.712C64.9892 103.833 63.8415 105.74 63.4708 106.795C61.9309 111.29 60.5205 115.83 59.2409 120.406C58.6063 122.701 58.4087 124.679 57.9672 126.986C57.6978 128.394 57.0799 130.042 56.6875 131.503C56.0477 132.135 55.3621 132.879 54.8988 133.663C54.1614 134.911 52.1629 140.66 50.279 140.022C50.1913 139.938 49.9552 139.713 49.929 139.584C49.336 136.648 48.7914 133.779 50.8055 131.203C53.1915 128.928 52.981 126.759 55.4292 124.683C56.0396 124.165 57.0922 122.048 57.0659 121.227L56.9304 121.136C56.2648 121.342 55.9906 122.149 55.5434 122.441C54.1611 123.343 51.8835 123.869 50.3565 123.108C49.8376 122.849 48.8331 122.127 49.1614 121.526C49.6831 121.494 50.3216 121.863 50.8402 121.974C51.4032 122.094 52.5596 121.708 52.9436 121.368C53.9106 120.513 55.9383 118.143 56.5333 117.071C57.2965 115.6 57.7968 113.948 58.4785 112.443C59.2792 110.676 59.8508 109.67 60.1807 107.73C60.7324 107.245 61.3115 106.854 61.4802 106.174C61.8199 104.806 63.4606 103.561 64.5647 102.605Z" fill="#1F2A22"/>
<path d="M142.256 19.9C143.145 19.9562 147.05 22.3027 147.948 22.92C148.133 23.5825 148.186 23.7322 148.512 24.3358C149.943 25.0225 150.337 26.1116 151.65 26.5094C151.69 26.5217 151.973 26.5035 152.035 26.5316C154.629 27.7093 156.344 30.9655 158.162 33.0369C158.804 33.7689 160.049 34.4717 160.418 34.9693C162.163 37.3267 163.911 39.3768 165.489 41.8568C166.039 42.722 167.056 43.7905 167.667 44.7015C168.379 45.6259 168.727 46.876 169.332 47.8362C170.665 49.9512 171.819 52.108 172.938 54.3415C173.226 54.9172 173.609 56.1023 173.924 56.5822C175.318 58.7035 176.19 60.6488 176.812 63.1126C177.969 66.1792 179.172 69.5235 180.144 72.6312C180.368 73.3465 181.829 79.6691 181.794 79.8687L181.67 79.876L181.42 79.538C181.149 79.6336 181.275 79.5824 181.074 79.9607L180.555 80.0579C180.808 80.3806 180.941 80.4544 181.006 80.8214C180.74 80.6733 180.478 80.4832 180.172 80.4685L179.987 80.2564C179.963 80.1069 179.914 79.7367 179.832 79.6173C179.231 78.7445 179.756 77.5408 179.429 76.6445C179.13 75.8273 178.787 75.028 178.499 74.1804L174.663 62.8358C172.936 57.6554 169.775 52.0589 166.935 47.3763C166.373 46.4827 165.489 45.6705 164.951 44.7783C162.602 40.8785 159.937 37.2297 156.754 33.9661C156.398 33.6008 156.281 32.6083 155.81 32.0471C155.763 32.057 155.716 32.067 155.669 32.0767C155.557 32.3194 155.139 31.8189 154.901 31.5629C154.322 30.9385 153.703 29.9978 153.031 29.4599C152.67 29.1711 151.748 28.8596 151.427 28.5471C150.274 27.4245 150.439 26.9388 148.898 26.3067C148.195 25.0467 147.531 25.0488 146.338 24.3066C144.861 23.3865 143.458 22.1565 142.284 20.8728C142.033 20.598 142.195 20.2331 142.256 19.9Z" fill="#1F2A22"/>
<path d="M149.415 25.6949C149.61 25.6859 149.722 25.6992 149.916 25.7126C150.67 26.1802 151.167 26.4639 150.992 27.3751C150.444 26.9678 149.649 26.4856 149.34 25.9435L149.415 25.6949Z" fill="white"/>
<path d="M147.857 24.4105C148.708 24.5505 149.13 25.0762 149.227 25.9049C148.601 25.4724 147.907 25.1913 147.857 24.4105Z" fill="white"/>
<path d="M127.644 39.3494C128.806 39.225 130.592 39.3421 131.731 39.6729C132.722 39.9033 133.767 41.1499 134.63 41.504C136.693 42.35 138.375 42.7517 140.007 44.4457C140.655 44.9937 141.3 46.4122 141.977 46.8629C145.765 49.3881 146.909 49.3666 147.351 54.3215C146.957 53.938 146.667 53.5118 146.339 53.0705C144.167 50.5284 140.633 50.2328 137.544 49.6718C136.389 49.4622 136.638 49.9883 135.242 49.1797C132.739 47.7304 130.339 45.0624 128.211 43.0743C127.543 42.451 126.585 41.7761 125.848 41.1906C126.273 39.9325 126.194 39.4844 127.644 39.3494Z" fill="#1F2A22"/>
<path d="M127.376 44.2526C128.751 44.4649 129.261 46.4118 130.138 47.1943C131.297 48.2283 134.016 50.0084 135.496 50.3689C139.095 51.2455 143.521 51.0316 146.093 54.1851C147.55 55.9709 148.367 58.8988 148.148 61.1583C146.913 60.5703 148.06 57.0493 145.391 56.1558C140.804 54.6201 134.506 55.6131 130.622 52.6798C129.033 51.4793 127.437 46.265 127.376 44.2526Z" fill="#1F2A22"/>
<path d="M149.719 116.128C150.288 116.227 150.871 116.46 151.191 116.941C152.387 118.739 152.823 120.656 154.492 122.183C155.155 123.031 156.393 123.231 157.185 123.733C159.696 125.359 162.314 125.615 165.175 124.775C167.208 124.179 168.071 124.98 166.536 126.683C165.862 126.905 165.184 127.117 164.503 127.318C163.113 127.807 160.078 128.541 158.647 128.864C156.341 127.686 154.42 127.556 152.179 126.474C151.878 126.329 151.108 125.44 150.836 125.138C150.587 122.311 149.605 119.615 147.913 117.489C147.493 116.962 149.08 116.284 149.719 116.128Z" fill="#1F2A22"/>
<path d="M142.017 27.4703C142.372 27.5924 142.611 27.8804 142.63 28.253C142.833 32.2698 144.26 39.4452 142.032 43.0229C141.168 42.9053 140.005 42.8541 139.279 42.3509C137.664 41.2326 141.254 34.4985 140.933 32.7514C138.881 33.5354 138.104 39.5486 137.316 41.2854C137.074 41.3728 137.178 41.3889 136.903 41.3373C135.143 41.0069 135.559 39.1503 135.923 37.838C136.634 35.2783 139.695 28.7968 142.017 27.4703Z" fill="#1F2A22"/>
<path d="M55.8766 144.024L56.1444 144.169C56.4464 144.832 55.7688 148.16 55.7871 149.119C55.8766 153.77 55.8655 158.51 56.3708 163.136C56.4655 164.002 56.8407 164.89 56.7206 165.755L56.5921 165.842C55.9879 165.515 55.9122 164.742 55.7636 164.118C55.2898 162.459 54.3362 160.825 53.9744 159.267C53.655 157.891 53.285 156.236 52.995 154.863C52.6477 153.217 53.0231 152.821 52.1877 151.099C53.1296 149.526 53.9037 148.375 54.6756 146.625C55.0959 145.672 55.2506 144.658 55.8766 144.024Z" fill="#1F2A22"/>
<path d="M56.8715 132.922L57.1456 133.011C57.6336 133.574 56.9877 139.816 56.6886 140.85C56.4813 141.566 54.5034 144.461 53.9486 145.169C53.2929 146.006 52.6902 148.093 51.5808 148.142C51.4693 147.594 51.1653 146.866 51.0207 146.349C50.0157 142.752 51.8449 141.745 53.8276 139.243C54.5354 138.35 55.4414 136.284 56.0103 135.22C56.3853 134.517 56.4614 133.61 56.8715 132.922Z" fill="#1F2A22"/>
<path d="M125.355 12.9799C126.2 13.1037 127.6 14.0013 128.473 14.177C129.759 14.4357 137.643 16.2787 137.538 17.5546C137.021 17.9161 137.222 17.8759 136.65 17.924L136.463 18.2619C134.135 17.3002 131.46 16.957 129.186 15.7722C128.606 15.4703 126.742 15.3896 126.008 15.0948C125.08 14.7226 125.13 15.1332 124.518 14.1267C124.13 13.9747 123.995 13.9158 123.632 13.7165L123.616 13.5458C124.475 13.2043 123.992 14.0436 125.355 12.9799Z" fill="#1F2A22"/>
<path d="M175.705 102.352C177.322 103.716 176.483 106.83 175.939 108.496L175.767 108.731L175.616 108.72C175.235 107.881 175.406 103.481 175.705 102.352Z" fill="#1F2A22"/>
</svg>
