<svg width="166" height="226" viewBox="0 0 166 226" fill="none" xmlns="http://www.w3.org/2000/svg">
<path d="M138.365 82.7655C140.193 80.9034 142.641 76.0226 142.985 72.9162L143.137 72.8253C143.541 73.0438 143.673 73.7935 143.853 74.2784C144.699 76.5609 145.046 78.8458 145.436 81.3253C145.698 82.9937 146.156 84.755 146.475 86.4164C146.987 88.7889 147.71 90.585 148.016 93.0754C148.311 95.4748 148.241 97.8909 148.488 100.249C148.635 101.646 149.269 103.162 149.29 104.769C149.308 106.183 149.356 107.789 149.248 109.185C149.097 111.152 148.876 112.462 148.991 114.464C149.173 117.64 150.742 119.859 149.786 123.069C149.527 123.94 149.021 125.214 148.85 126.045C148.593 127.289 148.573 129.218 148.305 130.457C147.989 131.921 147.596 132.791 147.461 134.402C147.32 136.09 147.383 137.48 147.154 139.163C146.89 141.101 146.292 142.545 145.9 144.411C145.498 146.329 145.441 148.384 145.023 150.272C144.783 151.357 144.267 152.706 143.897 153.752C143.29 155.426 142.708 157.116 142.151 158.822C142.022 159.227 141.631 160.389 141.596 160.751C141.371 163.022 140.701 164.913 139.943 166.932C139.524 168.048 139.032 169.267 138.549 170.345C138.041 171.451 137.266 172.559 136.71 173.62C135.93 175.11 135.155 176.572 134.358 178.044C133.429 179.763 133.096 182.078 132.009 183.862C131.039 185.455 130.119 187.044 129.008 188.48C128.365 189.311 127.527 190.122 126.934 190.926C125.669 192.672 124.544 194.63 123.266 196.353C122.581 197.278 121.562 197.94 120.81 198.743C118.281 201.446 115.599 203.691 112.671 205.516C112.053 205.901 111.39 206.976 110.708 207.302C110.03 207.639 109.315 207.898 108.653 208.252C107.651 208.786 106.424 209.832 105.447 210.328C104.082 210.968 102.707 211.603 101.324 212.17C100.668 212.439 99.8724 212.977 99.2276 213.158C96.4866 213.929 93.6307 214.917 90.8767 215.487C88.8661 215.748 86.8389 215.788 84.8236 215.744C83.326 215.711 81.7114 215.957 80.2287 215.8C78.2781 215.594 76.2775 215.145 74.3309 214.834C73.2735 214.665 72.233 213.978 71.203 213.642C70.4523 213.401 69.6199 213.364 68.8114 213.056C67.3706 212.508 65.9715 211.86 64.5393 211.273C63.4455 210.825 62.2373 210.568 61.2082 209.925C60.1586 209.269 59.0986 208.491 58.0833 207.74C57.5505 207.347 56.8167 206.622 56.3015 206.306C54.9975 205.505 53.879 205.035 52.6387 203.97C51.4896 202.984 50.5513 201.892 49.4491 200.824C48.5762 199.978 47.5474 199.422 46.6827 198.707C46.209 198.316 44.8868 197.001 44.4689 196.503C43.1338 194.911 41.7897 192.835 40.625 191.009C39.8633 189.888 38.9326 188.999 38.2195 187.813C37.6468 186.903 37.2592 185.751 36.7386 184.799C36.4364 184.246 36.0164 183.5 35.6756 182.993C34.4228 181.129 33.5427 178.921 32.486 176.902C31.5641 175.14 29.6209 173.977 29.034 171.674C28.5783 170.041 28.6228 168.117 28.1338 166.494C27.6932 165.031 26.6462 164.211 26.3082 162.665C25.9422 160.992 25.8321 158.903 25.3385 157.31C24.7859 155.526 23.6178 154.124 23.1321 152.213C22.5253 149.824 23.1151 147.643 22.536 145.332C22.1824 143.922 21.5097 142.642 21.1176 141.396C20.8688 140.606 20.5831 138.856 20.3555 137.963C20.1054 136.98 18.9461 133.531 18.9245 132.765C18.8307 129.45 19.8507 126.398 19.599 122.911C19.3948 120.08 18.3203 118.578 18.301 115.811C18.282 113.082 19.6594 111.325 19.6396 108.605C19.6115 104.761 17.4958 102.958 18.8942 98.9317C19.2789 97.7822 19.9047 96.9458 20.1618 95.7108C20.5502 93.8458 20.1156 91.1644 20.6723 89.433C21.797 85.9343 23.2977 84.584 22.9806 80.3891C22.7942 77.9218 23.787 74.7087 24.8056 72.7387C25.0604 72.2005 25.3355 71.1645 25.738 70.8934C25.8649 70.8079 26.0344 70.8855 26.1467 70.9773C27.715 72.2607 29.6618 74.5589 31.211 75.7395C30.2764 78.2281 29.9376 81.2892 29.2047 83.8872C28.4344 86.6176 27.9391 89.1027 27.4947 91.9473C27.1712 93.8634 26.4344 96.1401 26.2144 98.0517C25.8508 101.212 25.4272 104.906 25.4245 108.1C25.4213 111.954 24.9795 115.714 24.9394 119.516C24.9183 124.322 25.2143 129.121 25.8238 133.856C26.006 135.235 26.2866 136.751 26.5068 138.132C26.9054 140.634 27.3161 143.397 27.917 145.816C28.356 147.549 28.9312 149.192 29.4108 150.909C29.8725 152.478 30.2177 154.163 30.6956 155.718C30.9886 156.541 31.3455 157.325 31.6652 158.129C33.3225 162.298 33.6418 166.991 35.9751 170.677C36.6515 171.956 37.2293 173.325 37.8399 174.657C38.1429 175.317 38.5572 176.423 38.9204 176.958C39.9576 178.487 41.0337 179.92 41.9908 181.557C42.7712 182.893 43.3993 184.342 44.1935 185.652C44.868 186.583 45.6665 187.389 46.3572 188.293C47.6521 189.987 48.9595 191.647 50.2844 193.296C50.5404 193.615 51.0492 193.971 51.349 194.238C51.9209 194.75 52.5309 195.185 53.0889 195.736C53.9368 196.574 54.6221 197.745 55.5798 198.369C56.6691 199.078 57.8264 199.528 58.8783 200.348C59.7035 200.992 60.5214 201.738 61.3088 202.46C61.811 202.925 62.2396 203.412 62.8171 203.705C63.684 204.143 64.6917 204.321 65.5493 204.725C68.0318 205.896 70.7309 206.588 73.1262 208.076C72.8533 205.539 72.182 202.819 71.9496 200.209C71.724 197.676 71.7777 195.122 71.4634 192.641C71.3832 192.101 71.2411 191.643 71.27 191.098C71.4287 190.801 71.5205 190.812 71.8032 190.818C72.3921 190.68 72.444 190.756 72.7352 190.086C71.2211 187.759 69.3794 185.466 67.9664 183.08C63.2769 175.163 61.6746 164.775 62.1292 154.798C62.4929 146.815 64.2061 139.144 65.6838 131.455C65.8887 130.39 66.4082 129.281 66.6952 128.243C67.7536 124.916 67.8594 123.541 68.0373 120.036L67.9873 119.89C67.4207 118.267 65.9887 116.633 65.27 115.267C63.4836 111.854 62.58 110.724 59.5054 110.05C57.5175 109.613 55.7326 107.408 54.5235 105.438C52.678 102.434 52.0645 100.39 51.8581 96.4384C51.8236 95.7777 51.3124 94.3634 51.2112 93.6413C51.1754 91.7883 50.2509 88.139 52.6044 89.064C54.8096 89.9306 56.7942 90.9172 58.8929 92.1141C59.1229 92.5437 61.2245 93.7101 61.2598 93.7593C62.4123 95.3846 63.5396 95.0157 64.7426 96.4282C65.2344 97.0062 67.9012 101.952 67.914 101.96C70.2921 103.547 70.6081 103.47 70.4275 107.375C69.4108 109.519 68.3842 108.507 67.0781 107.316C66.5651 106.847 66.0595 106.089 65.7303 105.378C65.0593 103.607 64.6624 99.9046 63.7031 98.4736C63.3712 97.9783 61.6192 96.9495 61.0483 96.5416C60.4435 96.1104 59.5663 95.1161 58.9274 95.2006L58.7569 95.393C58.7009 96.7841 61.7142 97.9634 62.3556 99.0897C63.534 101.159 63.3842 103.673 64.1816 105.96C64.6174 107.181 66.106 108.077 66.3474 108.579C66.1385 109.223 65.2797 108.655 64.7952 109.46C64.7439 109.959 65.0759 110.845 65.2339 111.367C65.909 111.778 67.5299 112.889 68.041 113.568C68.111 114.287 67.5713 114.325 67.4736 115.047C67.8018 115.936 68.8431 115.426 69.0203 115.722C69.8021 117.024 71.2295 117.571 70.9471 119.644C70.6993 121.464 70.2716 122.112 69.5132 123.341C69.3407 125.084 69.113 126.128 69.8051 127.703C69.6557 129.329 68.9601 132.755 69.1988 134.102L69.3251 134.305C70.0742 134.083 70.4325 131.98 71.2071 132.362C71.3455 132.431 71.4964 132.772 71.4952 132.965C71.4876 134.273 70.2969 137.612 70.898 138.925C71.164 139.093 71.0267 139.067 71.326 138.984C72.281 137.841 72.1822 135.701 73.219 135.659C73.579 135.976 73.5306 135.994 73.6418 136.552C74.4117 140.411 72.4884 141.548 72.5041 144.934C72.8239 145.131 73.0973 145.245 73.3199 145.601C73.5634 146.768 72.4703 149.951 72.8206 150.703C73.34 150.764 73.7524 149.638 74.2968 149.296L74.4344 149.342C74.6087 149.824 74.491 150.248 74.3607 150.744C74.0799 151.814 73.58 153.295 73.9285 154.427C74.0933 154.888 74.312 155.158 74.6629 155.315C75.4046 155.659 76.6243 153.867 77.1525 155.139C77.5899 156.192 77.5724 157.704 78.0105 158.793C78.4266 159.827 79.4154 160.504 80.244 159.868C81.1259 159.191 81.0489 156.637 82.191 156.844C83.2435 157.145 83.1516 159.253 84.5362 159.355C84.7792 159.407 85.1392 159.314 85.3257 159.097C85.9371 158.383 86.4941 156.885 87.5094 157.244C89.676 158.011 89.974 157.866 90.9016 154.903C91.4113 153.275 91.9387 151.112 92.2918 149.329C92.9137 146.545 93.0008 143.086 94.8053 141.131C95.1221 140.787 95.7047 140.41 96.1142 140.611C96.4208 141.243 96.7562 143.265 96.9331 144.096C97.1906 145.304 97.5556 145.905 97.8585 146.904C98.6635 149.72 99.9576 151.945 101.761 153.726C102.129 154.041 103.103 155.294 103.476 155.389C104.665 155.691 106.071 155.364 107.237 155.537C109.628 155.89 111.968 156.367 114.379 156.458C114.778 156.473 115.301 156.719 115.706 156.79C116.978 157.024 118.324 157.749 119.569 157.993C122.234 158.513 124.9 159.247 127.567 159.709C129.142 159.981 130.779 159.379 132.361 159.468C133.137 159.495 135.121 160.056 135.699 159.756C136.259 158.972 136.612 156.409 136.896 155.212C137.212 153.883 137.836 152.269 138.083 150.956C138.791 147.205 139.751 143.614 140.56 139.919C140.755 139.028 140.652 137.867 140.782 136.944C141.182 133.176 142.094 129.301 142.176 125.505C142.234 122.848 142.786 120.646 143.237 118.105C143.411 117.08 143.349 115.855 143.355 114.805C143.306 112.699 143.36 110.544 143.191 108.452C142.939 106.626 142.279 104.686 142.102 102.855C141.98 101.15 142.084 99.4772 141.886 97.7673C141.611 95.38 140.83 93.0503 140.582 90.662C140.373 88.6419 139.797 87.1351 139.176 85.3067C138.893 84.4735 138.675 83.5874 138.365 82.7655Z" fill="#1F2A22"/>
<path d="M72.7352 190.086C73.8076 191.198 75.3685 193.183 76.274 194.581C76.5796 195.054 77.3106 196.766 77.6107 197.389L81.0731 204.699C81.4512 205.509 81.8929 206.362 82.2925 207.158C82.5179 207.608 82.8762 208.058 83.1103 208.547L83.069 208.823C82.9005 208.97 82.7622 209.017 82.5588 208.951C81.1147 208.478 77.0011 198.212 75.7986 196.058C75.4387 195.413 74.9753 194.887 74.5661 194.301C73.6494 192.989 72.9889 191.766 71.8032 190.818C72.3921 190.68 72.444 190.756 72.7352 190.086Z" fill="#F1E9D6"/>
<path d="M69.461 161.741C70.6374 161.618 69.9762 164.376 70.1757 165.601C70.8748 169.891 71.5422 174.195 72.4662 178.412C72.6765 179.372 73.4574 180.291 73.3469 181.351C72.3367 181.402 71.5532 179.058 71.3026 177.948C70.7011 175.285 70.1198 172.328 69.5624 169.684C69.3151 168.51 69.1503 162.704 69.461 161.741Z" fill="#F1E9D6"/>
<path d="M69.0883 148.178C69.367 148.19 69.3575 148.198 69.6228 148.33C69.6609 148.401 69.699 148.471 69.7372 148.541C69.6025 150.678 68.5071 154.436 68.2968 156.387C68.0333 158.83 67.8096 161.476 67.772 163.711C67.4176 163.804 67.3891 163.84 67.1124 163.662C66.789 162.907 67.1508 156.2 67.392 155.199C67.8315 153.376 67.9165 149.209 69.0883 148.178Z" fill="#F1E9D6"/>
<path d="M95.789 154.652C96.0243 154.669 96.0151 154.668 96.2355 154.781C97.2471 156.268 96.305 163.805 95.8724 165.738C95.7353 166.353 95.7057 167.072 95.4796 167.645C95.1915 167.873 95.0813 167.901 94.809 167.694C94.5181 167.018 94.7617 165.486 94.8923 164.713C95.4083 161.661 95.2369 158.547 95.4417 155.455C95.4574 155.215 95.6788 154.843 95.789 154.652Z" fill="#F1E9D6"/>
<path d="M100.892 168.216C102.135 168.329 102.28 169.374 102.619 170.788C101.746 171.819 101.205 171.954 100.129 172.43C99.7408 172.311 98.7237 171.964 98.6264 171.323C98.3068 169.985 99.8779 169.93 99.9529 169.503C100.112 168.6 99.4332 168.437 100.892 168.216Z" fill="#F1E9D6"/>
<path d="M104.428 175.126C105.133 175.155 105.075 175.511 105.695 175.413L106.06 175.354C106.535 175.275 107.225 175.262 106.904 176.182C106.769 176.57 107.786 177.434 106.084 177.783C105.529 177.883 102.098 178.331 103.456 176.08C103.723 175.638 104.054 175.382 104.428 175.126Z" fill="#F1E9D6"/>
<path d="M106.99 170.625C107.672 170.585 107.755 170.607 108.382 170.954C109.064 172.569 108.984 173.688 107.443 173.762C106.974 173.396 106.955 173.107 106.387 172.992C104.683 172.649 106.398 171.136 106.99 170.625Z" fill="#F1E9D6"/>
<path d="M100.546 177.094C101.279 177.063 101.731 177.557 102.038 178.552C102.242 179.212 101.265 179.16 101.116 179.233C100.696 179.442 100.796 179.824 100.25 180.241C100.001 180.313 99.588 180.463 99.3332 180.317C99.1007 180.126 99.122 179.566 98.9719 179.265C98.3985 178.113 99.8075 178.116 100.212 177.706C100.321 177.597 100.469 177.241 100.546 177.094Z" fill="#F1E9D6"/>
<path d="M101.156 160.152C102.326 160.016 102.052 160.194 102.992 161.237C103.04 162.029 102.999 162.337 103.24 163.103C103.275 163.214 102.924 163.558 102.861 163.628C101.887 163.352 102.214 162.928 101.691 162.372C101.166 161.812 100.751 162.087 100.86 160.666C100.879 160.408 101.01 160.309 101.156 160.152Z" fill="#F1E9D6"/>
<path d="M108.691 181.184C108.936 181.179 109.759 181.166 109.796 181.259C110.149 182.152 109.979 181.771 110.664 182.146C111.475 182.588 109.928 182.939 109.754 182.976L109.647 183.001C109.366 183.056 106.834 184.103 107.566 182.034C107.642 181.817 108.472 181.338 108.691 181.184Z" fill="#F1E9D6"/>
<path d="M103.919 186.518C104.291 186.47 105.56 186.49 105.485 187.599C105.465 187.896 104.481 188.735 104.224 188.94C103.687 188.96 102.94 188.721 102.655 188.034C102.605 187.916 102.597 187.776 102.63 187.649C102.709 187.353 103.676 186.713 103.919 186.518Z" fill="#F1E9D6"/>
<path d="M107.597 164.897C108.218 164.849 108.692 164.79 108.919 165.803C109.137 166.774 109.843 167.2 108.421 167.329C108.277 167.279 107.956 167.196 107.836 167.107C106.552 166.159 106.117 165.485 107.597 164.897Z" fill="#F1E9D6"/>
<path d="M79.7922 194.238C80.8986 194.432 81.4362 195.457 82.2341 196.502C82.3551 196.661 82.331 196.913 82.3074 197.122C81.4184 197.044 79.1015 195.66 79.7922 194.238Z" fill="#F1E9D6"/>
<path d="M112.556 177.928C112.904 177.846 113.43 177.846 113.794 177.837L113.849 177.929C114.276 178.661 114.727 179.205 113.803 179.354C113.417 179.33 112.131 179.291 111.893 178.997C111.098 178.017 112.409 177.96 112.556 177.928Z" fill="#F1E9D6"/>
<path d="M111.275 172.237C113.019 172.419 112.778 174.241 112.2 174.223C111.837 174.231 110.638 174.385 110.685 173.425C110.71 172.92 110.999 172.542 111.275 172.237Z" fill="#F1E9D6"/>
<path d="M94.0058 201.252C94.1902 201.548 93.7501 201.97 93.5436 202.29C93.3361 201.986 93.8437 201.466 94.0058 201.252Z" fill="#1F2A22"/>
<path d="M109.575 72.0946C109.761 72.6647 110.593 74.7071 110.634 74.9332C111.075 77.3815 111.123 81.6763 110.471 84.0303C109.775 86.5424 108.746 88.3568 107.565 90.4253C107.056 91.3152 106.352 91.6941 106.304 92.5734C106.978 93.8764 111.729 91.4115 112.61 90.8509C114.094 89.9066 115.692 88.6001 117.1 87.459C119.891 84.4871 122.492 80.998 123.768 76.4117C124.395 74.1576 124.261 72.1659 124.274 69.8567C124.293 66.35 123.402 64.135 121.918 61.3461C119.976 57.8508 116.219 56.0696 113.363 54.3969C111.118 53.0369 109.074 51.5129 106.713 50.5349C106.076 50.2709 104.325 49.1965 103.696 48.774C100.955 46.933 98.6292 44.6651 95.7668 43.1456C94.243 42.3368 91.767 39.3257 90.6816 37.6639C90.332 37.0765 89.7898 36.8679 89.7041 36.0883C89.7631 35.8144 89.9099 35.578 90.0947 35.4366C90.3324 35.2546 90.568 35.2689 90.8141 35.3961C91.7347 35.8719 92.552 36.7473 93.4611 37.2863C96.1994 38.9087 99.0803 40.0096 101.863 41.4677C103.729 42.445 105.469 43.8486 107.3 44.9209C108.313 45.5143 114.056 48.1045 114.894 47.5457C115.163 47.3657 115.299 47.0923 115.386 46.713C115.678 45.4466 115.109 44.085 114.663 43.0138C114.15 41.7791 113.648 40.4782 112.982 39.3824C112.34 38.3255 111.685 37.2049 110.98 36.2267C109.994 34.8592 106.48 30.8736 106.605 28.9657C106.735 28.7743 106.72 28.714 106.935 28.7261C108.611 28.8205 109.318 30.7039 110.459 31.7333C112.587 33.6537 115.081 34.8748 116.847 37.5306C117.522 38.5186 118.139 39.6807 118.822 40.6862C119.424 41.5712 120.235 42.3785 120.76 43.3303C121.211 44.1673 121.472 45.2042 121.85 46.091C123.101 49.0291 123.933 52.1768 125.801 54.5533C126.327 55.2225 127.501 56.5624 128.202 55.4207C129.712 52.9565 129.504 49.744 129.406 46.76C129.333 44.6655 128.556 42.5563 128.201 40.5629C127.803 38.3394 127.403 36.221 126.883 34.0311C126.651 33.0545 125.949 32.208 126.109 31.4282C127.077 30.0336 128.058 32.6142 128.531 33.3698C129.473 34.8717 129.959 36.1498 130.617 37.8655C131.081 39.0785 131.85 40.2914 132.223 41.6101C132.666 42.9013 133.039 44.3639 133.513 45.6331C133.624 45.9285 133.865 45.977 134.084 45.9902C134.291 45.8625 134.401 45.7945 134.498 45.5007C135.145 43.5553 132.339 35.2159 131.751 33.0504C131.367 31.6317 131.112 30.1377 130.72 28.7394C130.417 27.6609 129.755 26.2908 129.68 25.1601C129.65 24.7045 129.728 24.5063 129.998 24.2493C131.209 24.0009 132.072 25.6334 132.781 26.6739C134.19 28.7437 135.329 30.9912 136.375 33.4269C136.66 34.0885 137.204 34.6084 137.384 35.3724C138.862 39.8127 139.748 45.4167 139.511 50.2827C139.466 51.2089 139.062 52.7287 138.842 53.5964C138.466 55.0801 137.721 56.2758 137.068 57.5634C136.765 58.1602 136.131 59.5873 135.823 60.0749C134.806 61.678 134.254 62.3689 133.465 64.2423C132.636 66.2083 132.486 67.2985 131.958 69.4215C131.279 72.151 130.503 75.1514 129.525 77.714C129.253 78.4291 128.936 79.1055 128.621 79.7817C128.124 80.8493 127.018 82.019 127.032 83.3261C127.662 84.7746 132.156 80.4424 132.77 79.5778C134.504 77.1379 136.719 73.6565 137.873 70.6786C138.339 69.4799 138.675 68.1946 138.868 66.8635C138.985 66.0276 139.274 63.48 139.259 62.6841C139.24 61.6048 138.213 58.4836 138.938 57.8119C139.146 57.6191 139.437 57.6332 139.668 57.7353C140.123 57.9366 140.338 58.4204 140.535 58.9796C141.393 61.4122 142.049 65.4589 142.108 68.1081C142.13 69.1464 142.031 70.2275 141.965 71.2621C141.902 72.2607 141.842 73.2945 141.585 74.241C141.21 75.623 140.535 76.9084 139.913 78.1046C137.318 83.1022 134.259 86.2029 130.167 88.7132C128.585 89.6841 126.951 90.4679 125.323 91.2814C123.632 92.1257 121.967 92.9806 120.244 93.6961C118.122 94.578 115.941 94.8996 113.8 95.669C112.78 96.0351 111.806 96.6466 110.804 97.0954C108.533 98.1149 99.1025 101.905 98.3494 104.496C98.2716 104.763 98.2605 105.003 98.368 105.259C98.6764 106 101.233 107.441 102.213 109.599C102.385 109.978 102.556 110.477 102.493 110.935C102.448 111.263 102.274 111.509 102.067 111.666C101.706 111.935 101.188 111.896 100.785 111.924C100.368 112.502 100.28 112.505 99.7677 112.851C99.764 112.902 99.7593 112.954 99.7547 113.007C99.8149 113.953 98.8561 114.655 99.0331 115.505C99.8807 116.291 101.399 116.987 102.297 117.692C103.872 118.929 107.617 121.579 108.032 124.083C108.126 124.643 107.777 129.106 107.692 129.768C106.436 131.298 106.034 131.999 104.27 131.799C101.881 131.528 99.4323 130.969 97.0535 131.61C96.5477 131.746 95.4491 131.832 95.4417 132.717C95.702 133.447 96.7459 134.03 97.3147 133.939C98.9136 133.687 103.948 131.777 105.22 133.131C105.565 134.542 102.335 136.397 101.397 136.609C99.2915 137.085 96.909 137.796 95.0044 139.113C94.1911 139.764 93.1017 140.974 92.1809 141.751C91.7805 142.933 90.9057 145.652 90.0238 146.253C89.5482 146.578 88.7123 146.12 88.5909 145.254C88.3577 143.592 88.7041 142.045 89.004 140.447C89.0557 140.165 88.9493 140.048 88.835 139.888C87.0902 139.248 85.9408 142.999 85.2163 144.434C85.0442 144.774 84.4379 144.463 84.3326 144.154C83.8151 143.175 85.1375 141.117 84.2627 140.6C82.648 140.73 81.1757 143.765 80.1311 142.765C79.5669 140.899 81.1837 139.273 82.298 138.699C84.4325 137.598 86.5984 137.924 88.7626 136.814C89.8609 136.25 92.5307 135.882 93.2768 134.642C93.4806 133.019 89.9205 133.603 89.8605 131.993C90.4465 130.64 93.815 130.266 95.0091 129.86C96.0716 129.499 98.7922 129.732 98.833 127.371C98.2948 125.954 96.4912 127.326 96.934 123.659C97.2601 123.155 98.0669 122.06 98.0289 121.434C97.927 120.328 96.7394 119.841 96.0595 119.962C94.8006 120.186 93.5473 121.211 92.6561 122.403C91.6457 123.755 91.0496 124.685 89.4906 124.357C88.5811 124.166 88.1666 123.877 87.5902 122.901C87.0297 122.931 86.7018 122.944 86.1806 122.63C85.5913 122.275 86.267 121.153 86.5752 120.913C88.3665 119.515 90.0773 118.013 91.8029 116.465C92.1841 116.123 93.0517 116.19 93.3861 115.677L93.3926 115.485C92.8368 114.79 92.8247 114.842 92.4638 113.947C92.1087 113.912 91.834 113.946 91.5618 113.664C91.3501 113.132 91.3485 112.915 90.9558 112.587C89.9019 112.471 89.8512 112.743 88.7438 112.341C87.8069 113.359 87.8977 113.199 86.7753 112.95C86.3848 112.994 85.6275 113.631 85.335 112.974C84.8467 111.877 84.2197 110.354 83.4515 109.515C82.3923 108.359 80.1467 107.318 78.8578 106.932C77.555 106.541 75.7969 107.704 74.6113 108.341C74.0405 108.651 73.587 109.46 72.9726 109.236L72.914 109.049C73.2553 108.165 74.0855 107.752 74.1285 106.879C73.9403 106.411 73.7487 106.482 73.3703 106.436C73.1816 106.102 72.9406 105.701 72.7665 105.364C73.4856 101.379 71.8938 99.6389 69.3768 98.3574C68.869 98.0991 67.8358 97.7236 67.4216 97.3677C66.2768 96.3864 65.176 95.2109 64.0279 94.2063C61.9306 92.37 59.7069 90.857 57.394 89.5944C56.826 89.2895 56.197 89.1617 55.6123 88.9067C55.0085 88.6433 54.278 87.9135 53.6403 87.7871C52.6163 87.5838 51.3812 87.163 50.4289 87.909C49.8709 88.3459 49.72 89.4612 49.4814 89.3545C48.6475 88.9811 47.5251 88.3547 46.7148 87.9113C46.3731 87.7242 45.6244 86.9475 45.2015 86.6585C43.7762 85.6845 42.4155 84.5533 41.0427 83.4559C40.378 82.9655 39.7301 82.4901 39.084 81.9545C38.4814 81.4549 37.8292 80.5531 37.2456 80.1056C35.91 79.0814 34.4435 77.2861 33.1467 76.3349C32.6039 74.7395 31.5199 73.2553 30.8372 71.7538C29.9741 69.8557 29.2292 67.9144 28.5595 65.8812C26.8994 61.601 25.6115 57.4296 26.7177 52.5248C27.3945 50.2433 28.0505 48.1354 29.1526 46.1655C30.2329 44.2349 31.3767 43.1617 32.6701 41.5818C36.7202 36.6244 40.8763 31.9162 45.6143 28.219C45.9166 27.9831 47.2692 26.5307 47.4463 27.7749C47.6925 29.5036 47.0422 31.0634 45.9808 31.9875C44.9025 32.9262 44.1888 34.4052 43.3092 35.6338C42.6465 36.6473 40.7156 39.0306 40.5064 40.1564C40.5538 40.3465 40.6245 40.6771 40.8017 40.7202C42.0271 41.0185 43.5969 40.2159 44.8346 40.0019C48.795 39.3172 52.7338 38.56 56.6517 37.5312C57.4132 37.3313 58.2135 36.8262 58.9761 36.5877C60.3236 36.1267 61.8522 35.6864 63.1537 35.0297C65.0346 34.0807 66.8821 33.2324 68.8142 32.4868C69.2255 32.3281 69.8139 32.2895 70.1641 32.6995C70.6221 34.1273 69.362 34.7425 68.7196 35.3615C63.2804 40.6027 57.0599 42.4431 50.6474 44.1311C46.4166 45.2448 41.3635 45.9597 37.9587 49.8604C36.1772 51.8677 34.8754 53.087 33.9755 56.1506C32.5018 60.4047 34.3363 63.9785 35.5538 67.8235C35.5793 67.8787 35.6049 67.934 35.6303 67.9893C37.5879 71.104 39.9517 74.3609 42.4223 76.7311C43.705 77.9616 47.5787 80.1553 49.1701 80.3971C49.8585 81.346 50.316 82.6256 50.8745 83.663C51.3719 84.5867 54.023 87.2678 54.8308 86.9157C54.9783 86.6412 54.9299 86.7983 54.9087 86.3973C54.5596 85.9892 54.1054 85.763 53.7815 85.3283C52.9447 84.2053 49.6635 77.7551 49.2503 76.2522C48.9559 75.1814 48.9246 73.6701 48.8644 72.5341C48.803 71.376 49.6207 62.8081 50.0288 62.1854C50.2486 61.8498 50.6402 61.727 50.9584 61.7527C51.2753 61.7783 51.5386 61.9954 51.7376 62.3227C52.8124 64.0911 52.4391 69.6859 52.8273 72.1003C53.1868 74.3366 53.8588 76.6413 54.959 78.3978C55.4365 79.1602 55.9778 79.8467 56.463 80.6002C57.3788 82.0229 58.8383 84.0345 59.9657 85.1034C61.1186 86.1964 62.4768 87.0781 63.7316 87.95C64.6813 88.6099 65.6821 89.4104 66.7044 89.8312C67.8865 90.3179 70.3992 90.7064 71.73 90.9463C72.5398 91.0923 73.6939 91.1273 74.3624 90.4162C74.8056 89.9449 75.1524 89.1489 75.4768 88.5286C76.419 86.7276 77.315 84.8058 78.0387 82.8226C78.5599 81.3944 78.9958 79.9103 79.5205 78.4815C80.0753 76.9705 80.8874 75.709 81.0236 73.9628C81.1675 72.1182 79.7502 66.1333 80.7608 65.0092C80.9251 64.8264 81.1359 64.8051 81.3351 64.8691C82.4016 65.2113 83.1831 67.1968 83.6766 68.3761C84.0453 69.2573 84.3569 70.176 84.5631 71.1523C84.9522 72.9946 85.3219 77.227 84.9376 79.0632C84.2607 82.2979 83.1137 85.5454 81.808 88.3859C81.1251 89.8715 79.6883 92.3157 79.3358 93.882C79.1338 94.7955 79.2136 95.7805 79.5566 96.6122C80.5974 99.19 84.8101 101.117 86.837 101.922C88.2591 102.486 90.7178 101.879 92.0294 100.821C92.1522 100.72 92.2711 100.61 92.3856 100.492C92.5972 99.6212 93.3778 99.204 93.3111 98.8871C93.7233 98.4559 93.9808 98.6445 94.2661 97.7887C94.218 97.9327 95.2656 96.904 95.1888 96.9403C95.2304 96.9523 95.2091 97.0044 95.2582 97.0592C95.5185 97.0062 96.3245 95.4227 97.0146 95.3623L97.0683 95.2899C98.6329 93.2101 100.296 91.6776 101.907 89.8263C104.042 87.3738 106.197 83.7136 107.368 80.2786C108.025 78.2311 107.96 75.0133 107.831 72.8438C108.371 71.5532 108.539 71.264 109.575 72.0946Z" fill="#1F2A22"/>
<path d="M92.3856 100.492C92.5972 99.6212 93.3778 99.204 93.3111 98.8871C93.7233 98.4559 93.9808 98.6445 94.2661 97.7887C94.218 97.9327 95.2656 96.904 95.1888 96.9403C95.2304 96.9523 95.2091 97.0044 95.2582 97.0592C95.5185 97.0062 96.3245 95.4227 97.0146 95.3623C96.1818 96.8176 94.6172 97.9903 93.5584 99.1603C93.1314 99.6324 92.8701 100.072 92.3856 100.492Z" fill="#F1E9D6"/>
<path d="M103.165 122.319C104.078 122.31 106.672 122.939 107.264 123.692C107.45 124.512 106.777 124.807 106.306 124.72C105.116 124.498 103.744 123.12 102.515 123.559C102.102 123.712 101.819 123.826 101.443 124.055C100.915 124.374 100.104 125.116 99.5601 124.608C99.1257 124.202 98.3133 124.32 98.0836 123.627L98.191 123.417C98.8737 123.032 99.3008 123.467 99.7306 123.312C101.065 122.83 101.737 122.375 103.165 122.319Z" fill="#F1E9D6"/>
<path d="M128.236 51.0146C127.327 49.6315 126.349 48.8478 125.444 47.582C124.795 46.5864 124.212 45.4889 123.603 44.4397C122.849 43.1408 121.926 42.3656 121.073 41.2418C120.417 40.4083 119.812 39.1891 119.138 38.4057C117.498 36.4957 115.871 34.4237 114.185 32.6027C113.424 31.7803 112.371 31.0932 111.555 30.3025C110.436 29.2174 109.177 28.2693 107.995 27.3185C107.307 26.7964 106.273 26.5014 105.607 26.0134C103.766 24.6648 102.266 23.6164 100.163 23.173C99.5527 23.0444 98.3893 22.1073 97.6806 21.8685C96.7506 21.4424 95.777 21.4595 94.833 21.2447C92.5278 20.7198 90.288 20.4669 87.9519 20.3746C86.7103 20.3255 85.3618 19.9334 84.1046 19.8867C82.9133 19.8425 81.6674 19.8637 80.4737 19.7096C78.2874 19.8091 79.1312 19.0547 78.0174 18.1483L74.7746 15.5025C74.4226 15.2173 73.6604 14.9413 73.4837 14.5226C74.006 13.6009 77.9953 13.42 79.0393 13.1943C83.48 12.2346 88.1907 12.7329 92.6073 13.6915C93.1934 13.8187 93.9076 13.7253 94.4718 13.9268C95.777 14.393 97.0952 14.8357 98.3781 15.4046C99.7667 16.0736 101.047 16.8364 102.507 17.2207C103.87 17.5795 105.099 18.5271 106.372 19.2326C107.004 19.5812 107.696 19.8115 108.32 20.1989C108.923 20.5917 109.379 21.0659 110.02 21.4085L110.135 21.4686C110.593 21.4954 111.244 21.7184 111.642 22.0661C111.948 22.3318 112.478 22.5766 112.629 23.0175C112.835 23.4077 113.243 23.3704 113.496 23.777C113.844 24.3358 114.118 24.2402 114.486 24.7894C114.816 25.2813 115.214 25.3614 115.525 26.004C117.007 27.1264 119.204 29.6107 120.682 31.0531L124.192 34.5274C124.745 35.078 126.296 36.3641 126.45 37.2264C126.949 40.036 127.611 43.0201 128.008 45.8568C128.223 47.387 128.197 49.4503 128.236 51.0146Z" fill="#1F2A22"/>
<path d="M110.135 21.4686C110.593 21.4954 111.244 21.7184 111.642 22.0661C111.948 22.3318 112.478 22.5766 112.629 23.0175C112.835 23.4077 113.243 23.3704 113.496 23.777C113.844 24.3358 114.118 24.2402 114.486 24.7894C114.816 25.2813 115.214 25.3614 115.525 26.004C114.946 25.7128 114.737 25.5762 114.254 25.0238C113.137 23.7476 111.402 22.4433 110.135 21.4686Z" fill="#F1E9D6"/>
<path d="M82.4435 17.004C82.6114 16.9795 83.297 16.8559 83.4108 17.058C83.7986 17.768 84.7635 17.0702 84.9221 18.099C85.0542 18.9565 83.3516 18.7784 82.9797 18.7987C81.7738 18.8524 81.3798 18.7068 80.34 17.7371C81.3202 17.6201 81.6011 17.7858 82.4435 17.004Z" fill="#F1E9D6"/>
<path d="M29.5699 72.5835C28.9011 72.0623 28.3615 71.3556 27.7411 70.8042C24.4188 67.8536 22.8106 63.1454 20.7645 58.7267C19.7993 56.6424 19.4167 53.3822 19.1984 50.9692C19.0815 49.6772 18.7568 48.4105 18.7253 47.1195C18.7078 46.4035 19.003 45.5278 19.049 44.8044C19.1864 40.1942 20.5697 35.9636 22.2302 31.8066C24.4756 26.1852 28.7773 19.2412 33.1188 16.4239C33.541 16.0635 34.8541 16.4879 34.7438 17.3274C34.5469 18.8268 33.0424 21.002 32.446 22.2043C30.6579 25.8092 28.985 29.4122 27.6169 33.3399C27.1315 34.7336 26.9259 36.206 26.424 37.571C26.1046 38.3792 25.0978 39.6992 24.6107 40.6334C23.4653 42.8302 22.195 46.8655 22.5522 49.6174C22.7187 49.9261 22.6125 49.8449 22.8642 49.9066C23.1541 49.6326 23.2464 49.0519 23.3189 48.6008C23.7049 46.1996 24.4902 44.156 25.3681 42.0127C26.2582 39.8522 27.3809 37.8854 28.6988 36.1775C30.8885 33.3684 33.1688 30.3101 35.7302 28.2199C37.0994 27.1025 43.4658 21.6323 44.6291 23.796C44.8352 25.5792 42.8358 26.2849 42.0049 26.9747C41.5651 27.4483 41.093 28.0819 40.7086 28.649C38.6139 31.7403 36.0787 34.0425 33.955 37.052C33.1417 38.2043 32.7665 39.5349 32.0307 40.7184C31.5981 41.414 30.7357 41.9198 30.2147 42.4948C29.2681 43.605 28.0322 45.5796 27.3064 46.9466C26.4993 48.592 25.7761 50.9387 25.4538 52.8381C25.0086 55.4608 24.7996 57.9073 25.5167 60.4705C25.8512 61.6224 26.0662 63.1604 26.4851 64.2556C27.49 66.8822 28.645 69.4848 29.8076 71.9787C30.0993 72.3927 30.1729 72.3515 30.2197 72.8041L30.131 72.9322C29.855 72.9174 29.792 72.8082 29.5699 72.5835Z" fill="#1F2A22"/>
<path d="M25.126 35.5468C25.3811 35.5407 26.0447 35.3972 25.7573 36.0795C25.4549 36.7975 25.4337 37.5142 24.9696 38.0915L24.8568 38.2406L24.777 38.181C23.5517 37.2852 24.1552 36.3484 25.126 35.5468Z" fill="#F1E9D6"/>
<path d="M70.5402 14.5858C71.6473 14.4189 76.953 18.6022 77.6271 19.8788C76.8814 20.053 76.0459 20.1456 75.3165 20.3495C74.6282 20.5159 73.8845 20.9224 73.1978 21.0574C71.0787 21.4741 69.1942 22.7754 67.1835 23.7009C66.5639 23.9861 65.7637 24.1138 65.1736 24.4135C63.8384 25.0916 62.4765 25.8087 61.164 26.5646C60.3122 27.0699 59.2434 28.4375 58.4358 29.1239C56.7555 30.5518 55.0753 32.0835 53.423 33.5695C52.3453 34.5385 50.7942 36.7834 49.7965 37.8046L49.6647 37.9373C48.1005 38.1729 46.5947 38.3961 45.0192 38.5006C44.5316 38.5328 43.8166 38.719 43.3121 38.7677C43.162 38.7821 43.1477 38.6249 43.0637 38.415C43.0366 37.2919 44.2998 36.143 44.9049 35.4358C45.6655 34.5468 46.2044 33.6314 46.8984 32.6876C47.8995 31.3259 48.3675 30.787 48.7728 28.9102C49.3113 28.065 50.6868 26.9658 51.2564 26.273C53.168 23.9481 54.8239 22.4447 57.1561 21.0329C58.3927 20.2842 59.9212 18.6308 61.2102 17.9209C64.173 16.2893 67.4302 15.5275 70.5402 14.5858Z" fill="#1F2A22"/>
<path d="M121.71 95.945C122.365 95.9004 123.228 96.0026 123.102 97.2423C122.639 101.794 119.702 105.643 117.524 108.934C117.302 109.27 116.929 109.701 116.66 109.995C115.021 111.101 112.055 113.289 110.35 113.717C109.46 113.94 106.767 113.935 105.77 113.936C105.051 113.225 104.38 112.448 103.659 111.732C103.439 111.029 103.221 110.608 103.06 109.835C103.241 109.294 104.313 109.501 104.839 109.141C106.726 107.85 107.701 105.529 109.26 103.835C109.675 103.386 111.101 102.805 111.676 102.515C112.488 102.086 112.513 102.247 113.252 101.971C113.364 101.93 113.434 101.763 113.465 101.59C112.945 101.089 111.466 101.575 110.883 101.703C109.087 102.096 107.402 103.307 106.397 105.421C106.088 106.07 105.915 107.054 105.425 107.558C104.711 108.198 103.629 108.702 102.827 109.139C102.071 107.002 101.58 107.206 100.379 105.972C100.298 105.888 100.341 105.775 100.361 105.616C100.705 105.08 101.441 104.925 101.97 104.748C103.694 104.171 105.346 101.97 106.749 100.971C108.508 99.7206 111.109 98.7142 113.036 98.0164C113.674 97.785 114.81 97.6419 115.564 97.4235C117.573 96.8399 119.664 96.0082 121.71 95.945Z" fill="#1F2A22"/>
<path d="M77.1621 110.699C78.6945 110.461 80.2478 110.621 81.1715 112.544C81.5795 113.392 83.1165 115.913 82.102 116.729C81.0302 116.7 81.3742 115.074 79.9515 115.395C78.7928 116.126 77.1049 116.658 75.9656 115.637C75.5488 115.264 74.0297 114.019 74.0394 113.361C74.0571 112.136 76.4687 110.922 77.1621 110.699Z" fill="#1F2A22"/>
<path d="M77.7798 111.714C80.0951 111.142 80.705 114.795 79.1173 113.73C78.7939 113.313 78.6067 113.021 78.3092 112.586C77.8942 112.645 76.511 113.049 76.4508 112.219C76.5908 112.003 76.6597 111.925 76.8802 111.884L77.7798 111.714Z" fill="#F1E9D6"/>
<path d="M35.2552 60.5064C35.1209 58.4496 35.0509 55.8822 36.2004 54.2792C37.4868 52.4855 38.9242 50.0622 40.5985 49.0346C41.2604 48.6284 41.694 48.6077 42.402 48.1569L42.5861 48.179C42.6382 48.4092 42.6636 48.3887 42.5463 48.6599C42.0141 49.9084 41.3619 50.8112 40.6303 51.8462C40.111 52.5809 39.704 53.7191 39.2076 54.4507C38.1277 56.0421 37.0635 57.5241 36.2401 59.4104C36.0287 59.8946 35.8248 60.4767 35.5782 60.9203C35.5712 60.9685 35.4809 61.2278 35.4628 61.2822L35.332 61.3028C35.1683 60.9101 35.2178 61.0421 35.2552 60.5064Z" fill="#1F2A22"/>
<path d="M137.511 59.3493C137.761 59.3292 137.748 59.3258 137.987 59.4173C139 60.694 137.381 70.4286 136.16 70.7747C135.904 70.5393 135.986 70.6187 135.854 70.1501C135.645 69.5815 134.404 66.3329 134.416 66.157C134.49 64.949 136.892 60.1875 137.511 59.3493Z" fill="#1F2A22"/>
<path d="M103.523 113.444C104.296 113.336 104.911 113.838 104.829 114.931C104.718 116.436 104.557 117.903 103.281 117.816C102.45 117.327 101.434 116.791 101.986 115.205C102.296 114.313 102.725 113.863 103.394 113.513L103.523 113.444Z" fill="#1F2A22"/>
<path d="M103.079 115.306C103.353 115.278 103.738 115.156 103.744 115.687L103.749 115.891L103.656 115.88C103.251 115.835 103.148 115.863 103.079 115.306Z" fill="#F1E9D6"/>
<path d="M121.966 15.3043C122.533 15.3337 122.673 15.2257 122.632 16.033C122.081 15.9543 122.014 16.0504 121.966 15.3043Z" fill="#1F2A22"/>
<path d="M118.266 0.394173C118.703 0.536585 118.813 0.4876 118.7 1.11113C118.233 0.980645 118.035 1.0513 118.266 0.394173Z" fill="#1F2A22"/>
<path d="M164.12 96.0723C164.151 95.9775 164.221 95.9171 164.297 95.9199C164.374 95.9227 164.442 95.9877 164.47 96.0853C164.497 96.182 164.48 96.2916 164.425 96.3641C164.359 96.4515 164.259 96.4617 164.183 96.3901C164.108 96.3186 164.082 96.1857 164.12 96.0723Z" fill="#1F2A22"/>
</svg>
