<svg width="210" height="286" viewBox="0 0 210 286" fill="none" xmlns="http://www.w3.org/2000/svg">
<defs><mask id="m" maskUnits="userSpaceOnUse">
<path d="M94.4685 85.2643C98.1911 84.9845 101.924 85.4126 105.56 86.5359C106.609 86.8509 107.562 87.3597 108.696 87.6731C109.697 87.9494 110.789 87.6165 111.455 88.1234C111.82 89.1759 110.628 90.9337 110.011 91.4393C106.738 94.119 103.371 93.1772 99.8582 92.2648C99.102 92.3606 94.986 91.4827 94.5702 91.8207C93.7957 92.4505 90.6048 93.4012 89.7313 93.8134C88.0991 94.5837 84.6749 97.1138 83.5234 98.8511C82.5553 100.312 81.4963 103.294 80.2118 104.768C79.524 105.579 78.4293 109.627 78.5535 110.943L78.7286 111.068C80.9115 110.768 80.3697 109.033 80.9272 108.117C82.5424 105.464 83.5682 102.265 85.2288 99.7072C86.1295 98.32 88.1568 97.0244 89.4542 96.4867C92.5044 95.22 95.2471 93.539 98.4223 95.4063C100.525 96.5265 102.531 95.5363 104.594 95.1238C106.057 94.8312 107.487 94.8699 108.968 94.3508C109.615 94.1238 110.861 94.4241 111.559 94.3262C112.276 94.2259 111.73 93.2159 112.063 92.5561C112.789 92.077 113.856 92.7283 114.729 92.6088C116.407 92.3794 117.67 91.651 119.221 90.8713C119.678 90.6415 121.289 90.2328 121.627 90.7443C121.329 91.5478 120.2 92.1137 119.577 92.4944L119.469 94.0956C119.182 94.5401 118.964 94.9362 118.703 95.4072C118.68 96.3946 118.822 98.6906 119.112 99.571C119.788 101.624 120.971 101.937 119.57 104.169C119.585 105.28 119.685 106.119 119.802 107.224C118.891 108.106 118.507 108.323 118.568 109.992C118.245 110.058 117.684 109.802 117.343 109.68C116.924 110.224 116.165 110.774 115.947 111.343L116.033 111.594C116.476 111.898 116.989 111.87 117.499 111.913C116.727 112.58 114.336 114.566 114.168 115.75C114.294 116.183 114.752 116.638 115.029 116.965L114.828 116.991C113.884 117.123 112.134 117.81 111.905 119.224C111.991 119.572 112.073 119.737 111.991 120.073C111.651 120.465 111.208 120.655 110.788 120.889C111.16 121.294 111.435 121.636 111.783 122.08C111.406 122.964 110.934 124.129 110.231 124.515L109.276 125.034C109.643 125.438 109.805 125.493 109.818 126.148C109.498 127.043 108.129 127.734 107.201 128.849C107.699 129.156 108.085 129.239 108.192 130.008C108.039 130.576 107.748 130.843 107.411 131.26L107.714 132.737C107.324 132.936 106.641 133.211 106.42 133.658C106.414 134.298 106.398 134.741 106.035 135.21C105.677 135.305 105.632 135.298 105.294 135.52C105.088 136.059 105.178 135.868 105.216 136.571C105.288 137.913 104.071 137.407 103.486 138.154C103.261 139.356 104.182 138.701 104.465 139.902C104.318 140.829 103.273 141.699 102.766 142.693C100.442 143.223 101.552 143.603 100.892 145.415C100.522 146.432 97.9712 146.609 96.9946 146.901C96.8229 147.35 96.6451 147.794 96.4613 148.233C94.1479 149.51 93.0878 148.726 90.7889 149.136C90.4997 149.188 89.7019 149.663 89.393 149.844C87.8023 148.028 87.4479 149.441 85.582 149.034C84.9107 148.887 84.2705 148.094 83.6132 147.857C82.5921 147.488 81.462 147.677 80.4662 147.131C80.0837 146.864 77.9782 145.665 77.8411 145.27C77.286 143.668 75.6818 143.089 75.1096 142.092C74.1717 140.459 73.9649 139.598 72.6914 138.27C72.712 137.202 72.7715 136.453 72.321 135.512C72.0852 135.02 71.4919 133.875 70.9894 134.305C70.8266 134.674 70.8096 135.102 70.9119 135.531C72.272 141.232 75.8739 145.533 79.4968 148.625C80.2368 149.255 81.27 149.516 82.0937 149.884C82.8286 150.125 83.738 150.901 84.449 151.08C86.1052 151.496 87.8742 152.317 89.4924 152.735C90.4431 152.981 92.0744 152.142 93.0513 152.054C93.9932 151.894 95.091 152.324 96.0176 152.168C97.8223 151.865 99.6578 150.662 101.481 150.295C102.187 150.151 103.008 148.067 103.868 147.854C105.451 147.463 104.89 149.073 105.79 149.934C106.177 150.062 109.208 149.858 109.687 149.734C110.626 149.393 111.544 149.07 112.491 148.774C113.277 148.527 115.613 148.557 115.912 147.62L115.822 147.33C114.256 145.504 112.659 147.136 111.631 146.758L111.6 146.531C112.072 145.591 112.412 145.428 113.142 144.884C113.701 144.96 114.126 145.113 114.6 144.73C114.663 144.591 114.726 144.453 114.79 144.316C114.709 142.892 113.989 140.926 114.037 139.485C114.093 137.781 114.607 136.43 114.822 134.727C115.039 133.012 114.938 131.581 115.082 130.018C115.24 128.311 115.575 126.175 115.869 124.495C115.945 124.057 116.689 123.093 116.897 122.561C117.177 121.847 117.155 120.53 117.368 120.004C117.785 118.97 118.436 117.973 118.868 116.907C119.236 115.998 119.254 114.473 119.543 113.637C119.857 112.731 120.809 111.613 121.218 110.677C121.697 109.58 122.004 108.257 122.463 107.183C122.66 106.724 123.798 106.533 124.044 106.186C124.161 106.023 124.117 106.035 124.117 105.752C123.882 105.214 123.413 104.842 123.023 104.462C124.52 103.702 125.091 104.001 126.302 102.295C127.268 101.969 128.145 101.698 129.136 101.543C128.48 102.696 127.305 104.233 126.529 105.479C123.009 111.127 120.114 117.211 118.521 124.361C118.26 125.533 118.186 127.197 117.942 128.432C117.389 131.224 116.809 134.146 116.436 136.995C116.34 138.577 116.288 142.519 116.697 143.891C117.332 146.02 117.853 149.718 118.522 151.538C119.855 155.161 122.261 158.382 124.324 161.224C125.766 163.21 127.052 165.51 128.516 167.485C129.728 169.116 135.2 176.73 134.999 178.565C134.357 179.5 133.245 180.235 132.748 180.855C130.575 183.564 130.235 184.878 126.953 184.905C126.53 184.909 124.139 184.746 123.831 184.924C121.836 186.073 121.888 187.005 119.464 187.344C116.853 187.163 116.317 185.561 114.036 184.904C113.912 184.867 113.9 184.954 113.796 185.121L113.843 185.506C114.385 186.568 116.688 188.066 117.638 188.481C118.757 188.97 121.148 189.028 122.207 188.377C123.122 187.771 123.989 186.896 125.02 186.704C126.966 186.454 127.863 187.401 129.84 186.346C132.296 185.036 133.158 181.952 135.383 180.216C136.696 179.194 137.127 183.557 137.536 184.435C139.832 189.344 140.255 194.673 141.007 200.231C141.05 200.554 141.13 205.761 141.072 206.206C140.691 209.093 140.767 211.93 140.296 214.79C140.143 215.715 139.997 217.429 139.695 218.351C139.002 219.581 136.001 221.29 134.854 221.23C131.753 221.068 130.761 223.782 128.109 224.749C127.146 225.099 125.595 223.862 124.55 223.868C123.23 223.875 122.01 224.532 120.698 224.64C118.157 224.678 115.715 222.842 113.53 221.277C113.346 221.145 113.071 221.197 112.879 221.232L112.763 221.449C113.002 222.818 116.28 224.683 117.275 224.99C118.802 225.461 120.561 225.991 122.138 225.965C122.96 225.952 123.895 225.631 124.74 225.729C126.548 226.072 127.314 227.099 129.263 226.335C130.534 226.051 132.265 223.472 133.385 223.212C135.911 222.625 136.679 222.892 139.048 221.081C137.951 224.268 137.618 225.841 136.043 228.84C134.384 231.997 133.268 234.707 130.651 236.8C129.742 237.528 128.987 237.732 128.038 238.258C127.628 238.496 126.466 240.061 126.128 240.191C124.682 240.743 123.952 241.496 122.705 242.386C120.619 243.876 117.092 245.565 114.793 246.183C110.442 247.353 105.618 247.752 101.195 247.54C98.1269 247.067 92.7816 245.103 89.5369 244.094C90.2612 243.728 91.4326 243.227 91.9595 242.484C92.6775 241.472 93.0318 239.937 93.6612 238.806C94.2472 237.754 95.2561 236.604 95.7809 235.534C96.2894 234.498 96.6673 232.834 97.1447 231.695C97.6251 230.549 98.4243 229.247 98.8657 228.146C99.1369 227.469 99.5223 225.854 99.7751 225.05L101.539 219.352C101.817 218.449 102.32 216.934 102.492 216.052C102.634 215.327 102.422 213.777 102.553 212.762C102.835 210.589 103.295 208.635 103.252 206.408C103.216 204.558 103.15 203.222 102.866 201.414C102.645 200.013 102.191 199.393 101.932 198.297C101.245 195.387 100.718 192.036 99.5243 189.411C99.2133 188.728 98.054 187.893 97.6227 187.304C97.0401 186.508 96.2858 185.47 95.7306 184.689C94.2689 182.633 93.78 183.273 92.0951 182.577C91.4112 182.294 90.2793 181.049 89.2936 180.713C87.2238 180.006 84.5043 179.556 82.3799 179.431C81.6238 179.387 79.7571 180.026 78.9254 180.059C76.9321 180.138 75.0496 180.519 73.0581 180.415C72.2244 180.342 71.2166 181.185 70.4499 181.302C67.9533 181.679 65.7763 182.399 63.4422 183.703C62.6585 184.141 61.7285 184.424 60.8959 184.873C58.1499 186.356 55.7146 188.769 53.347 191.134C52.9679 191.513 51.7852 193.253 51.4084 193.796C50.3732 190.086 49.2081 186.448 47.9172 182.891C49.2249 182.927 54.1819 182.351 54.7463 180.737L54.6379 180.541C53.5975 180.203 52.0986 181.068 51.1378 181.144C49.9686 181.237 49.1282 180.73 47.8125 181.013C46.8694 179.33 46.8871 176.768 46.5238 174.689C46.2387 173.057 50.2897 172.016 51.1683 171.11C52.3315 169.91 53.8818 169.202 55.1402 168.195C56.414 167.176 57.5386 165.996 58.7043 164.775C61.0177 162.574 63.269 160.455 65.1237 157.499C68.1655 152.58 68.2368 148.519 68.2259 142.437C68.2532 140.372 68.446 136.376 67.9665 134.398C65.8795 125.786 65.5329 116.824 67.6369 108.132C68.4188 104.902 71.0044 100.52 72.7064 97.8552C78.2111 89.2362 86.3326 85.7768 94.4685 85.2643Z" fill="white"/>
<path d="M102.209 101.529C102.367 101.561 102.555 101.579 102.706 101.65C102.965 101.774 102.994 101.854 103.118 102.162C103.11 103.173 102.332 104.13 101.873 104.877C101.912 105.219 101.968 105.592 101.969 105.938C101.971 106.295 101.876 106.462 101.699 106.698C101.283 106.814 100.865 106.906 100.553 107.33C100.264 107.721 100.318 108.15 100.31 108.67C99.8495 109.826 97.4518 111.582 96.5279 112.155C94.4333 111.096 94.0062 112.352 92.5317 112.11C92.1857 112.054 91.8233 111.875 91.4898 111.739C90.795 112.107 90.1815 112.743 89.4577 113.015C87.6403 113.699 87.0273 112.643 85.4198 114.802C84.8986 114.835 84.3018 114.816 83.8267 115.143C83.2808 115.519 83.0123 116.441 82.4839 116.898C81.5411 117.713 80.7323 117.583 79.6616 118.742C79.6771 118.965 79.6894 119.19 79.706 119.413C79.7428 119.91 79.7539 120.161 79.6154 120.633C79.0269 121.368 78.5256 120.207 77.8014 120.532C77.7895 121.169 77.8051 122.145 77.3887 122.595C77.1257 122.88 76.9002 122.74 76.5906 122.741C76.3266 122.742 76.2193 122.74 76.0315 122.999C76.0478 123.459 76.1241 123.55 76.3061 123.938C76.4442 124.232 76.6016 124.549 76.5196 124.911C76.3621 125.605 75.8536 125.888 75.4234 126.218L75.072 127.401C74.5362 127.874 74.0187 128.365 73.5082 128.889C73.275 128.892 73.0625 128.845 72.833 128.795C72.5938 128.542 72.5857 128.546 72.5201 128.146C72.763 126.891 73.851 125.771 74.4959 124.829C74.4594 124.319 74.383 123.721 74.4261 123.213C74.5339 121.943 78.1792 117.483 79.0314 116.757C79.4735 116.38 79.9941 116.311 80.4045 115.852C80.4809 115.122 79.6955 114.686 79.6424 113.876L79.8323 113.747C80.3439 113.772 80.8071 114.094 81.2752 114.354C81.6555 113.894 82.068 113.427 82.5315 113.132C83.4332 112.556 84.7958 112.582 85.389 111.413C85.553 111.09 85.6653 110.845 85.9172 110.64C86.4737 110.187 87.2762 110.623 87.8428 110.838C89.793 110.069 89.2777 109.114 91.6411 109.572C93.2961 109.892 97.6388 108.389 98.9089 106.761C99.6642 105.793 100.097 104.489 100.928 103.635C100.968 103.594 101.008 103.555 101.049 103.514C101.096 103.311 101.143 103.11 101.197 102.91C101.407 102.124 101.668 101.878 102.209 101.529Z" fill="black"/>
<path d="M93.2988 99.3398C94.2133 99.224 95.0324 99.341 95.8076 100.073C96.2845 100.523 96.674 101.146 96.7735 101.942C96.9068 103.008 96.6303 104.077 96.1781 104.938C95.6786 105.889 95.0097 106.116 94.1964 106.295C93.5542 106.238 92.9163 106.124 92.337 105.712C91.6155 105.199 90.9507 104.519 90.7223 103.409C90.5818 102.726 90.631 101.906 90.9055 101.291C91.4141 100.152 92.3955 99.6674 93.2988 99.3398Z" fill="black"/>
<path d="M115.33 150.174C115.878 150.148 116.36 150.276 116.895 150.392C117.047 150.426 117.2 150.444 117.301 150.627C117.353 150.724 117.377 150.838 117.349 150.954C117.265 151.31 116.876 151.448 116.638 151.466C116.198 151.499 115.736 151.327 115.304 151.409C114.807 151.504 112.757 152.868 112.213 153.243C112.142 153.291 112.071 153.339 111.999 153.385C111.702 153.571 111.04 154.104 110.696 153.898C110.58 153.829 110.503 153.693 110.458 153.536C110.415 153.385 110.413 153.208 110.462 153.061C110.513 152.911 110.628 152.821 110.739 152.771C111.485 152.433 111.871 151.979 112.519 151.433C113.361 150.725 114.363 150.363 115.33 150.174Z" fill="black"/>
<path d="M110.875 165.651C110.896 165.633 110.916 165.613 110.938 165.597C110.953 165.586 110.953 165.587 110.964 165.592C110.978 165.642 110.961 165.709 110.955 165.757C110.887 165.802 110.917 165.792 110.869 165.804L110.861 165.793C110.859 165.722 110.858 165.771 110.875 165.651Z" fill="white"/>
<path d="M115.642 165.381C115.687 165.37 115.67 165.365 115.695 165.377C115.719 165.425 115.705 165.39 115.716 165.493C115.698 165.488 115.68 165.481 115.662 165.475C115.639 165.43 115.649 165.459 115.642 165.381Z" fill="white"/>
<path d="M80.5775 182.007C82.2772 181.752 87.6428 183.263 89.3322 184.309C90.0707 184.766 90.6011 185.717 91.3159 186.221C91.9419 186.662 92.6991 186.8 93.3503 187.198C95.2898 188.386 95.9828 190.859 97.1284 193.069C97.6782 194.131 98.398 194.835 98.6516 196.166C98.9315 197.634 98.4418 199.037 98.6172 200.478C98.689 201.069 98.9159 201.657 99.0705 202.216C99.3796 203.334 99.3735 204.691 99.5077 205.872C100.226 212.187 99.5414 211.099 98.2222 216.571C97.8299 218.199 97.7913 220.012 97.3343 221.587C96.8577 223.229 96.0628 224.589 95.4216 226.102C94.9988 227.101 94.6704 228.172 94.251 229.173C93.6559 230.593 92.9013 231.913 92.2334 233.272C91.588 234.585 91.0211 235.982 90.3363 237.257C89.9394 237.995 89.5109 238.778 89.0273 239.419C88.0965 240.652 87.186 241.4 86.6373 243.071C85.0209 242.091 83.3779 241.131 81.8065 240.024C80.9285 239.405 80.1253 238.608 79.279 237.915C78.3714 237.173 77.4441 236.516 76.5538 235.727C75.4089 234.682 74.4188 233.45 73.343 232.287C72.4662 231.34 71.5318 230.501 70.6782 229.511C68.8528 227.397 67.2292 225.057 65.5515 222.739C64.7339 221.61 63.8024 220.527 63.0612 219.306C62.4635 218.323 62.112 217.078 61.5035 216.104C60.876 215.101 59.9722 214.462 59.3883 213.392C58.1056 211.04 56.8771 208.419 55.8294 205.857C55.3874 204.775 55.0223 203.632 54.5654 202.565C53.5563 200.208 52.3432 198.056 51.7603 195.411C53.1608 194.546 54.2486 193.377 55.5203 192.252C57.37 190.615 59.3824 188.974 61.3422 187.592C62.8873 186.503 64.8404 185.915 66.5552 185.521C67.2029 185.373 67.9566 185.314 68.578 185.044C69.4414 184.668 70.0966 183.803 71.0284 183.592C72.485 183.261 73.961 183.521 75.4221 183.315C77.1522 183.073 78.8435 182.316 80.5775 182.007Z" fill="white"/>
<path d="M43.2426 91.9838C44.3496 92.3185 48.5146 92.8504 49.0429 93.741C48.3688 95.724 47.5719 97.7449 47.0326 99.7967C46.7197 100.987 46.5446 102.261 46.2852 103.477C45.877 105.388 45.4134 107.303 44.9713 109.201C44.3458 111.887 43.6223 114.497 43.1776 117.258C42.9029 118.962 42.8537 120.712 42.6094 122.417C42.4828 123.299 42.1277 124.097 42.0246 124.984C41.857 126.427 42.0846 128.02 41.9461 129.526C40.9324 130.002 39.7364 130.759 38.6558 130.607C38.2452 130.55 37.986 130.489 37.6384 130.826L37.6312 131.103C38.0947 132.334 39.4078 132.943 40.2221 133.711C40.717 134.178 41.1718 134.732 41.6264 135.268C41.6836 138.036 41.1602 140.69 41.1852 143.413C41.2024 145.288 41.6202 147.358 41.781 149.248L41.1645 150.371C41.5538 152.06 41.4225 152.188 41.3106 153.95C41.2199 155.027 41.5918 156.244 41.6337 157.281C41.7979 161.356 42.6386 165 43.3101 168.898C44.1827 173.963 44.3222 179.826 45.8955 184.622C46.6875 187.035 47.1731 189.166 47.5849 191.753C47.7827 193.026 48.4012 194.526 48.6651 195.787C49.2753 198.698 50.8452 200.653 51.7955 203.306C53.1742 207.462 54.0379 211.557 56.4511 214.94C58.7421 218.153 60.4589 221.996 62.6454 225.339C63.6166 226.824 64.6371 228.044 65.7725 229.286C67.402 231.223 69.611 234.293 71.5794 235.484C73.4836 236.638 73.8245 238.218 75.1842 239.439C84.1999 247.536 95.282 251.682 106.071 251.401C108.263 251.345 110.169 250.322 112.283 249.722C115.14 249.222 117.621 248.438 120.354 247.181C121.075 246.85 122.17 246.486 122.825 245.973C127.016 242.701 131.807 240.448 135.354 235.859C135.949 235.09 136.951 234.384 137.58 233.598C138.149 232.889 138.397 231.761 138.996 231.08C144.299 226.68 147.729 218.981 151.458 212.419C152.463 210.65 153.333 208.378 154.341 206.488C156.134 203.124 157.064 198.945 158.675 195.34C159.239 194.079 159.836 190.478 160.472 189.014C160.773 188.29 160.854 185.875 161.152 185.004C161.798 182.637 162.853 180.128 163.188 177.629C163.671 174.021 164.275 170.495 164.898 166.936C165.295 164.67 165.067 161.245 165.657 159.002C165.724 158.749 168.469 156.766 169.048 156.045C169.453 156.537 170.121 157.079 170.681 156.738C171.108 156.477 171.681 156.248 171.875 155.649C171.439 154.6 165.905 152.862 165.945 150.346C166.477 149.172 169.641 148.746 170.989 148.066L171.139 147.989C171.615 147.735 172.348 147.484 172.857 147.288C172.904 149.91 172.637 151.962 172.426 154.531C172.15 157.916 171.993 161.153 171.394 164.483C171.253 165.263 171.306 166.406 171.187 167.218C170.857 169.487 170.754 171.826 170.262 174.043C170.044 175.514 169.242 177.475 169.058 178.878C168.388 183.994 166.912 188.641 165.487 193.43C165.19 194.533 164.498 195.801 164.223 196.881C163.35 200.319 162.274 203.187 160.911 206.303C159.676 209.127 158.586 212.341 157.132 214.987C155.709 217.574 154.134 220.088 152.654 222.62C151.697 224.211 150.403 225.652 149.418 227.271C148.003 229.594 146.788 232.056 145.141 234.094C143.797 235.767 142.63 236.296 141.266 237.593C140.118 238.687 138.766 240.573 137.561 241.756C134.253 244.997 130.734 247.605 127.022 249.873C125.954 250.525 124.744 250.949 123.669 251.553C122.336 252.302 121.139 253.011 119.784 253.674C118.24 254.432 116.711 254.68 115.205 255.26C112.186 256.423 109.216 257.121 106.086 257.422C105.29 257.499 103.812 257.318 102.938 257.289C101.785 257.16 100.394 257.408 99.2746 257.164C97.1702 256.706 95.1933 256.112 93.0597 255.854C91.5758 255.674 89.789 254.649 88.3065 254.167C86.436 253.557 84.5368 252.694 82.7005 251.925C82.0991 251.654 81.0262 250.772 80.3903 250.376C78.892 249.379 77.1947 248.501 75.7919 247.247C74.1212 245.753 72.8348 244.122 70.9088 243.172C70.6378 243.038 69.5767 241.811 69.2334 241.509C68.3162 240.7 67.3366 239.922 66.4712 239.013C64.3635 236.818 62.4552 234.26 60.496 231.823C59.6318 230.75 58.2259 229.576 57.4931 228.455C56.7327 227.292 55.8369 225.624 55.1231 224.362C54.3185 222.94 53.4858 221.592 52.6814 220.194C51.6817 218.457 50.763 216.473 49.9181 214.589C49.5218 213.638 48.7967 212.616 48.4585 211.652C47.6322 209.299 46.6788 207.144 45.7087 204.907C45.4195 204.241 45.2245 203.121 44.9696 202.385C44.4301 200.826 43.9503 199.231 43.447 197.652C43.2345 196.727 42.3356 195.295 42.1782 194.454C41.5773 191.241 40.7235 188.283 39.8723 185.192C39.4424 183.687 39.3848 181.156 38.9738 179.743C37.891 176.021 37.2193 172.842 37.0319 168.835C36.9732 167.577 36.5551 165.953 36.4622 164.625C36.2946 162.23 36.1679 159.785 35.9781 157.388C35.8175 155.09 35.49 153.032 35.2919 150.78C35.1975 149.707 35.5357 147.403 35.5623 146.173C35.5897 144.905 35.5031 143.459 35.6216 142.238C36.2491 141.102 38.7404 141.541 39.0531 140.08C38.0477 139.058 36.5917 138.35 35.6028 137.288C36.1288 134.9 35.6054 135.321 35.7304 133.375C36.0317 128.684 36.7624 123.995 36.8047 119.304C37.4823 118.571 38.5482 118.083 39.0469 117.323C39.7187 116.299 38.0031 114.795 37.968 113.457C37.9448 112.567 38.1647 112.186 38.5429 111.438C38.5479 108.994 39.4638 106.069 39.964 103.731C40.6449 100.549 41.3151 97.5685 42.3687 94.5609C42.6718 93.6956 42.7781 92.7441 43.2426 91.9838Z" fill="white"/>
<path d="M106.726 25.3237C107.057 25.3458 107.387 25.3751 107.717 25.4115C115.475 26.259 121.628 28.4962 128.653 33.1904C129.5 33.6731 130.384 34.8157 131.188 35.3009C134.402 37.2437 137.023 39.4557 139.671 42.5481L143.435 46.8803C145.648 49.4031 147.935 51.9382 149.864 54.8729C150.891 56.4361 152.104 57.7776 153.086 59.3559C151.003 60.8465 149.937 60.8007 148.095 63.465C147.077 62.1897 146.193 60.5624 145.225 59.2365C143.504 56.8804 141.946 54.767 140.453 52.1308C139.441 50.3436 137.197 48.7903 135.894 47.2632C134.7 45.8643 133.091 44.6894 131.814 43.4319C129.691 41.2576 127.614 39.484 125.099 38.2274C124.515 37.8875 123.771 37.6355 123.209 37.2769C120.853 35.7788 118.671 34.2407 116.034 33.9457C115.48 33.8836 114.61 33.3146 113.996 33.2154C111.945 32.884 109.897 32.3695 107.836 32.1477C106.866 32.042 105.859 32.2932 104.9 32.2686C100.195 32.1716 95.4031 33.1625 90.9619 35.3227C88.5799 36.4813 86.3191 38.0035 83.8273 38.9582C82.7647 39.3655 80.8061 41.3066 79.6621 42.0302C77.7769 43.2228 76.0506 44.5359 74.4795 46.4228C73.3477 47.9521 72.5139 48.5581 71.2781 49.8173C70.3862 50.726 69.2357 52.1743 68.3845 53.1913C67.255 54.4696 66.4334 56.6142 65.437 57.9878C63.5632 60.5717 61.8765 62.4779 60.6022 65.7565C60.3632 66.3713 59.1662 67.8137 58.7794 68.5476C56.6564 72.5757 54.8442 76.8547 53.2368 81.3002C52.9684 82.0384 52.3528 82.8515 52.1225 83.6099C51.5817 85.3909 51.4163 87.53 50.6913 89.2086C49.9813 90.5203 46.517 89.8987 45.435 89.84C44.9295 89.8125 44.2102 89.9464 43.6907 90.0296C44.0435 88.8912 44.4573 87.6335 44.7757 86.491C45.0984 85.4002 45.2784 83.8273 45.7559 82.8635C47.0061 80.3389 48.1125 78.2217 49.1456 75.5039C48.1052 74.1329 46.5538 73.1678 45.287 72.2631C44.8015 71.9165 44.4695 71.2805 44.6499 70.538C46.1247 69.1339 48.8346 72.7227 50.1816 72.6727C50.9155 72.209 51.502 69.768 51.8332 68.804C53.5214 63.8903 55.9347 60.2852 58.6634 56.488C61.0693 53.1398 62.6004 49.9743 65.6236 47.3169C67.2015 45.93 69.1378 42.8525 70.9406 41.5161C78.6128 34.2624 87.3898 29.0538 96.5072 26.3348C99.8383 25.3415 103.585 26.0411 106.726 25.3237Z" fill="white"/>
<path d="M174.768 45.149C175.675 45.3986 176.488 45.2327 177.216 45.8138C178.068 47.5756 171.675 53.9349 170.586 55.1406C165.485 60.7951 160.349 66.2823 155.043 71.5875C153.778 72.8521 152.647 74.659 151.437 76.0222C149.614 78.0737 147.768 80.0547 145.949 82.1081C143.091 84.6086 140.47 86.6276 137.989 89.8578C135.605 92.9614 132.328 97.7319 129.609 100.146C128.488 100.12 126.807 100.958 125.505 100.853C124.805 100.796 123.492 101.666 122.768 101.069L122.742 100.744C123.458 98.5301 123.981 98.9558 125.184 97.6717C125.453 97.3853 126.288 96.2086 126.635 95.7907C128.524 93.5572 130.464 91.406 132.454 89.3402C134.08 87.6429 135.798 86.2183 137.381 84.4436C139.102 82.5156 140.943 80.793 142.748 79.0245C145.888 75.95 149.388 73.6499 152.395 70.3407C154.112 68.4627 156.016 66.8361 157.772 65.0229C161.51 60.6179 165.909 57.5828 169.518 53.0054C170.674 51.5385 175.304 49.1527 175.157 47.0369L174.968 46.9303C174.484 47.0938 173.462 48.4086 172.95 48.8295C171.254 50.2236 169.949 51.079 168.328 52.6847C165.778 55.3017 163.23 58.3757 160.495 60.6801C158.085 62.7118 156.245 64.9535 153.991 67.1707C152.057 69.0747 149.944 70.6728 148.095 72.8187C146.082 74.8799 143.643 76.5251 141.646 78.6953C140.994 79.3742 139.964 79.9742 139.369 80.6719C136.461 84.0792 133.252 86.7368 130.153 89.758C127.243 92.5954 124.819 96.7555 121.788 99.4385C121.561 99.3907 121.489 99.3528 121.35 99.049C119.032 94.0105 125.747 93.8845 123.766 88.9831C123.204 87.5926 121.532 89.0053 120.664 89.2962C119.96 89.5962 119.166 89.5818 118.457 89.8255C117.28 90.231 113.656 91.8635 112.82 90.3676C112.727 89.915 112.707 89.5562 112.914 89.1482C113.533 87.9263 115.986 88.3429 117 88.2484C118.944 88.0673 125.102 83.8013 126.953 82.2556C128.873 80.6516 130.86 79.2419 132.804 77.7014C135.557 75.5208 138.277 73.2546 141.056 71.1332C142.014 70.4022 143.166 70.1035 144.081 69.3014L153.963 60.6103C155.489 59.2852 157.036 58.0688 158.544 56.6968L165.164 50.6724C165.649 50.2218 166.437 49.1841 166.841 48.922C169.802 47.002 171.519 45.9417 174.768 45.149Z" fill="white"/>
<path d="M159.192 70.4917C160.443 71.4684 163.368 80.382 164.047 82.3649C164.539 83.8016 165.439 85.5199 166.035 86.9503C167.143 89.6161 167.648 92.4087 168.37 95.274C168.889 97.3323 169.665 99.6024 170.086 101.674C170.549 103.154 170.398 106.204 170.756 107.556C171.466 110.236 171.329 112.107 171.611 114.864C171.891 117.621 172.59 120.372 172.85 123.139C173.011 124.846 172.798 126.381 172.789 128.083C173.031 133.363 173.28 138.704 173.029 143.99C172.986 144.863 173.074 146.454 172.482 146.822C171.581 146.787 170.497 145.834 169.676 145.23C168.486 144.495 167.61 144.065 166.631 142.862C167.745 139.538 167.236 137.701 167.1 134.234C167.046 132.854 167.498 130.689 167.324 129.316C166.656 124.083 166.481 118.763 165.205 113.707C164.96 112.734 165.121 110.789 164.877 109.739C163.833 105.243 163.138 100.659 161.879 96.2598C161.534 95.0508 160.999 93.8911 160.593 92.7155C158.404 87.155 157.253 79.5018 154.603 74.4348C156.13 73.1659 157.731 71.879 159.192 70.4917Z" fill="white"/>
<path d="M148.664 234.282C149.007 234.327 149.29 234.546 149.606 234.719L149.861 234.858C149.946 235.314 150.011 235.772 150.142 236.209C150.178 236.328 150.218 236.445 150.247 236.567C150.325 236.885 150.299 237.333 150.175 237.625C150.064 237.885 149.879 238.007 149.67 238.059C149.644 238.066 149.617 238.068 149.59 238.073L149.433 238.104C149.044 237.854 148.607 237.273 148.221 237.145C148.027 237.08 147.807 237.043 147.659 236.84C147.559 236.706 147.52 236.543 147.526 236.356C147.551 235.535 148.27 234.79 148.664 234.282Z" fill="white"/>
<path d="M152.932 242.533C153.214 242.554 153.491 242.558 153.756 242.706C153.891 242.781 154.044 242.926 154.096 243.121C154.129 243.246 154.137 243.392 154.089 243.512C153.991 243.746 153.75 243.82 153.579 243.88C153.398 243.911 153.219 243.958 153.039 243.987C152.846 244.016 152.534 243.914 152.395 243.727C152.334 243.643 152.295 243.537 152.307 243.417C152.33 243.195 152.562 242.965 152.672 242.834C152.709 242.791 152.749 242.748 152.787 242.705L152.932 242.533Z" fill="white"/>
<path d="M54.3621 30.6729C54.9322 30.6776 55.378 30.5434 55.0862 31.545L55.0235 31.7695C54.4944 31.7161 54.0181 31.8043 54.304 30.8698L54.3621 30.6729Z" fill="white"/>
<path d="M78.7814 49.07C78.8822 48.9088 79.0559 48.8765 79.1846 48.995C79.3136 49.1135 79.3563 49.345 79.2843 49.5326C79.2298 49.674 79.1208 49.7605 79.0036 49.7552C78.8865 49.7498 78.7819 49.6536 78.7345 49.5076C78.6872 49.3616 78.7054 49.1915 78.7814 49.07Z" fill="white"/>
<path d="M58.2949 34.5188C58.3372 34.4821 58.4087 34.3829 58.4688 34.4244C58.4831 34.487 58.4443 34.5355 58.4149 34.6128C58.3967 34.6483 58.3337 34.8345 58.2701 34.8013C58.2412 34.7124 58.2778 34.6063 58.2949 34.5188Z" fill="white"/>
</mask></defs><rect width="100%" height="100%" fill="white" mask="url(#m)"/>
</svg>
